<svg viewBox="0 0 292 251" fill="none" xmlns="http://www.w3.org/2000/svg">
<path d="M194.667 -4.99999C188.213 -4.99999 182.024 -2.43631 177.46 2.12708C172.897 6.69046 170.333 12.8797 170.333 19.3333L170.333 92.3333C170.333 98.7869 172.897 104.976 177.46 109.54C182.024 114.103 188.213 116.667 194.667 116.667C197.893 116.667 200.988 117.949 203.27 120.23C205.552 122.512 206.833 125.607 206.833 128.833L206.833 141C206.833 147.454 204.27 153.643 199.706 158.206C195.143 162.77 188.954 165.333 182.5 165.333C179.273 165.333 176.179 166.615 173.897 168.897C171.615 171.179 170.333 174.273 170.333 177.5L170.333 201.833C170.333 205.06 171.615 208.155 173.897 210.436C176.179 212.718 179.273 214 182.5 214C201.861 214 220.429 206.309 234.119 192.619C247.809 178.929 255.5 160.361 255.5 141L255.5 19.3333C255.5 12.8797 252.936 6.69047 248.373 2.12708C243.81 -2.4363 237.62 -4.99998 231.167 -4.99998L194.667 -4.99999Z" fill="#C9A94C" fill-opacity="0.1"/>
<path d="M60.8333 -5C54.3797 -5 48.1905 -2.43632 43.6271 2.12707C39.0637 6.69045 36.5 12.8797 36.5 19.3333L36.5 92.3333C36.5 98.7869 39.0637 104.976 43.6271 109.54C48.1904 114.103 54.3797 116.667 60.8333 116.667C64.0601 116.667 67.1548 117.948 69.4365 120.23C71.7181 122.512 73 125.607 73 128.833L73 141C73 147.454 70.4363 153.643 65.8729 158.206C61.3095 162.77 55.1203 165.333 48.6667 165.333C45.4399 165.333 42.3452 166.615 40.0635 168.897C37.7818 171.179 36.5 174.273 36.5 177.5L36.5 201.833C36.5 205.06 37.7818 208.155 40.0635 210.436C42.3452 212.718 45.4398 214 48.6666 214C68.0275 214 86.5953 206.309 100.285 192.619C113.976 178.929 121.667 160.361 121.667 141L121.667 19.3333C121.667 12.8797 119.103 6.69046 114.54 2.12707C109.976 -2.43631 103.787 -4.99999 97.3333 -4.99999L60.8333 -5Z" fill="#C9A94C" fill-opacity="0.1"/>
</svg>
