<svg viewBox="0 0 36 37" fill="#C9A94C" xmlns="http://www.w3.org/2000/svg">
<path d="M17.2875 3.94258C17.3532 3.80978 17.4548 3.69798 17.5807 3.61982C17.7066 3.54166 17.8518 3.50024 18 3.50024C18.1482 3.50024 18.2934 3.54166 18.4193 3.61982C18.5452 3.69798 18.6468 3.80978 18.7125 3.94258L22.1775 10.9611C22.4058 11.423 22.7427 11.8227 23.1595 12.1258C23.5762 12.4288 24.0602 12.6263 24.57 12.7011L32.319 13.8351C32.4658 13.8564 32.6038 13.9183 32.7172 14.0139C32.8307 14.1095 32.9152 14.2349 32.961 14.376C33.0069 14.5171 33.0124 14.6682 32.9769 14.8122C32.9414 14.9563 32.8662 15.0875 32.76 15.1911L27.156 20.6481C26.7864 21.0082 26.5099 21.4528 26.3503 21.9435C26.1906 22.4342 26.1526 22.9564 26.2395 23.4651L27.5625 31.1751C27.5884 31.3218 27.5726 31.4729 27.5168 31.6111C27.4609 31.7493 27.3674 31.869 27.2468 31.9566C27.1263 32.0442 26.9835 32.0961 26.8348 32.1064C26.6861 32.1168 26.5376 32.0851 26.406 32.0151L19.479 28.3731C19.0226 28.1334 18.5148 28.0082 17.9993 28.0082C17.4837 28.0082 16.9759 28.1334 16.5195 28.3731L9.59401 32.0151C9.46251 32.0847 9.31411 32.116 9.16569 32.1055C9.01727 32.0949 8.87479 32.0429 8.75446 31.9554C8.63412 31.8679 8.54076 31.7484 8.485 31.6104C8.42923 31.4725 8.4133 31.3216 8.43901 31.1751L9.76051 23.4666C9.84781 22.9577 9.80999 22.4352 9.65032 21.9442C9.49065 21.4531 9.21393 21.0083 8.84401 20.6481L3.24001 15.1926C3.1329 15.0891 3.057 14.9577 3.02096 14.8132C2.98491 14.6687 2.99017 14.517 3.03613 14.3754C3.08209 14.2337 3.16691 14.1078 3.28093 14.0121C3.39494 13.9163 3.53357 13.8544 3.68101 13.8336L11.4285 12.7011C11.9389 12.6268 12.4236 12.4297 12.8409 12.1266C13.2582 11.8235 13.5956 11.4235 13.824 10.9611L17.2875 3.94258Z" stroke="#C9A94C" stroke-width="2" stroke-linecap="round" stroke-linejoin="round"/>
</svg>
