<svg width="57" height="177" viewBox="0 0 57 177" fill="none" xmlns="http://www.w3.org/2000/svg">
<g filter="url(#filter0_d_131_524)">
<path d="M31.1599 163.445C32.7846 162.455 33.7472 160.284 33.433 158.319C33.207 156.905 33.236 156.863 34.6301 156.602C37.7606 156.015 41.922 153.554 45.0691 150.431C46.742 148.77 48.1108 147.224 48.1108 146.995C48.1108 146.708 42.0555 146.579 28.4871 146.579C17.6941 146.579 8.86346 146.72 8.86346 146.893C8.86346 147.504 12.888 151.712 14.5979 152.889C17.0381 154.568 20.5825 156.271 22.3085 156.595C23.7427 156.864 23.7681 156.9 23.5412 158.319C23.0542 161.364 25.4553 164.237 28.4871 164.237C29.2426 164.237 30.4454 163.881 31.1599 163.445ZM17.5559 152.459C15.3862 151.474 12.7882 149.429 12.7882 148.705C12.7882 148.276 13.3922 148.16 15.4374 148.195C17.259 148.227 17.7188 148.32 16.9092 148.492C16.0083 148.683 15.7035 148.985 15.6116 149.777C15.5051 150.695 15.7704 150.952 17.931 152.032C20.6009 153.366 20.3029 153.705 17.5559 152.459Z" fill="#C9A94C" fill-opacity="0.6"/>
<g filter="url(#filter1_n_131_524)">
<path d="M48.1387 37.7146C48.1342 33.6955 48.1253 30.0595 48.12 29.6347C48.1111 28.8889 47.7517 28.8584 37.7099 28.7516C31.9894 28.6908 27.3092 28.7505 27.3093 28.8841C27.3095 29.0179 29.5477 30.8723 32.2832 33.005C35.0187 35.1378 39.6548 38.7531 42.5856 41.0389C45.5165 43.3247 47.967 45.156 48.0312 45.1085C48.0955 45.0609 48.1437 41.7337 48.1387 37.7146Z" fill="#C54B4A" fill-opacity="0.7"/>
</g>
<path d="M49.8256 144.911C49.9557 144.425 50.0647 142.655 50.0677 140.976C50.0721 138.137 50.0092 137.901 49.156 137.576C47.8623 137.085 9.21066 137.047 7.9236 137.536C6.93323 137.913 6.901 138.029 6.901 141.239C6.901 143.061 7.0082 144.832 7.13923 145.173C7.35237 145.729 9.59957 145.794 28.4832 145.794H49.589L49.8256 144.911Z" fill="#C9A94C" fill-opacity="0.6"/>
<g filter="url(#filter2_n_131_524)">
<path d="M48.2578 74.364C48.2308 73.7164 48.1773 69.9634 48.1387 66.0239L48.0687 58.8613L38.1797 51.1538C32.7408 46.9147 24.087 40.1592 18.9491 36.1417C13.8112 32.1242 9.44727 28.8372 9.25148 28.8372C8.74966 28.8372 8.56805 44.1187 9.0596 44.9835C9.36589 45.5225 19.454 53.5687 26.9608 59.2615C27.5246 59.689 29.5699 61.2827 31.506 62.8031C33.4421 64.3234 36.157 66.3911 36.157 66.3911L41.1367 70.382C41.1367 70.382 45.3928 73.6852 46.1483 74.3325C47.8911 75.8258 48.319 75.8322 48.2578 74.364Z" fill="#5D79A1" fill-opacity="0.7"/>
</g>
<g filter="url(#filter3_n_131_524)">
<path d="M48.2203 101.193L48.1535 92.0556C48.2142 90.3752 48.0706 89.4764 47.6852 89.1226C47.1019 88.5872 32.581 77.2303 29.1228 74.6049C28.0177 73.7658 26.0457 72.1763 24.7407 71.0726C23.4357 69.9689 21.4047 68.3609 21.4047 68.3609L11.1663 60.5153L8.86346 58.6367V67.0858V75.5348L13.6713 79.3392C19.9022 84.2696 22.1105 86.005 33.5606 94.9691C45.4827 104.303 47.8646 106.132 48.1107 106.145C48.2187 106.151 48.268 103.922 48.2203 101.193Z" fill="#C54B4A" fill-opacity="0.7"/>
</g>
<g filter="url(#filter4_n_131_524)">
<path d="M29.6592 136.08C29.6564 135.918 29.1428 135.433 28.518 135.001C27.8931 134.569 23.376 131.076 18.4799 127.238C13.5838 123.4 9.40507 120.221 9.19378 120.174C8.89204 120.106 8.71613 128.436 8.85785 136.08C8.86097 136.242 13.5435 136.375 19.2638 136.375C24.9841 136.375 29.6621 136.242 29.6592 136.08Z" fill="#C54B4A" fill-opacity="0.7"/>
</g>
<path d="M49.8257 26.7767C50.3316 24.8889 50.0929 20.2787 49.4563 19.6421C48.9113 19.0971 46.4469 19.0253 28.2766 19.0253C8.34823 19.0253 7.70105 19.0488 7.30731 19.7845C6.87092 20.5999 6.74553 26.0129 7.13926 27.0389C7.3524 27.5944 9.5996 27.6597 28.4832 27.6597H49.589L49.8257 26.7767Z" fill="#C9A94C" fill-opacity="0.6"/>
<path d="M48.1107 18.2754C48.1107 17.6952 45.5059 14.7568 43.5041 13.079C41.3579 11.2802 37.2854 9.10686 34.8134 8.44121C33.1601 7.99603 33.1251 7.95279 33.368 6.65757C33.6582 5.11089 32.9114 3.03752 31.6362 1.84948C30.3901 0.688587 28.4629 0.438163 26.5782 1.19226C24.6126 1.97877 23.1598 4.55409 23.5396 6.57872C23.7758 7.8381 23.767 7.84615 21.1279 8.75999C16.6693 10.3039 12.3357 13.3375 10.058 16.5092C9.40101 17.424 8.86346 18.2673 8.86346 18.3832C8.86346 18.499 17.6941 18.6017 28.4871 18.6112C39.8651 18.6216 48.1107 18.4802 48.1107 18.2754ZM39.6726 16.779C42.1367 16.1733 42.0159 14.6713 39.3782 13.1186C38.245 12.4515 37.7593 12.0248 38.2989 12.1703C40.8026 12.8454 44.5432 15.7751 44.0077 16.6415C43.8621 16.8771 42.6756 17.0429 41.3174 17.0175C39.981 16.9924 39.2409 16.8852 39.6726 16.779Z" fill="#C9A94C" fill-opacity="0.6"/>
<g filter="url(#filter5_n_131_524)">
<path d="M48.1612 129.408C48.1891 125.577 48.2418 121.93 48.2784 121.304C48.3151 120.679 48.1598 120.022 47.9335 119.846C47.7071 119.67 46.9038 119.015 46.1483 118.39C45.3928 117.766 41.8436 114.978 38.2613 112.195C34.679 109.412 27.4762 103.797 22.255 99.7176L10.7183 90.6583C10.7183 90.6583 8.84812 89.4101 8.77258 89.5721C8.66262 89.8079 8.71775 104.79 8.83249 105.851C8.84949 106.008 12.2632 108.777 16.4185 112.003C20.5738 115.23 28.3006 121.269 33.5892 125.424C47.2898 136.187 47.491 136.341 47.8163 136.359C47.9782 136.368 48.1334 133.24 48.1612 129.408Z" fill="#5D79A1" fill-opacity="0.7"/>
</g>
</g>
<defs>
<filter id="filter0_d_131_524" x="0.901001" y="0.762573" width="55.198" height="175.475" filterUnits="userSpaceOnUse" color-interpolation-filters="sRGB">
<feFlood flood-opacity="0" result="BackgroundImageFix"/>
<feColorMatrix in="SourceAlpha" type="matrix" values="0 0 0 0 0 0 0 0 0 0 0 0 0 0 0 0 0 0 127 0" result="hardAlpha"/>
<feOffset dy="6"/>
<feGaussianBlur stdDeviation="3"/>
<feComposite in2="hardAlpha" operator="out"/>
<feColorMatrix type="matrix" values="0 0 0 0 0 0 0 0 0 0 0 0 0 0 0 0 0 0 0.25 0"/>
<feBlend mode="normal" in2="BackgroundImageFix" result="effect1_dropShadow_131_524"/>
<feBlend mode="normal" in="SourceGraphic" in2="effect1_dropShadow_131_524" result="shape"/>
</filter>
<filter id="filter1_n_131_524" x="27.3093" y="28.7278" width="20.8297" height="16.3816" filterUnits="userSpaceOnUse" color-interpolation-filters="sRGB">
<feFlood flood-opacity="0" result="BackgroundImageFix"/>
<feBlend mode="normal" in="SourceGraphic" in2="BackgroundImageFix" result="shape"/>
<feTurbulence type="fractalNoise" baseFrequency="0.66666668653488159 0.66666668653488159" stitchTiles="stitch" numOctaves="3" result="noise" seed="585" />
<feColorMatrix in="noise" type="luminanceToAlpha" result="alphaNoise" />
<feComponentTransfer in="alphaNoise" result="coloredNoise1">
<feFuncA type="discrete" tableValues="1 1 1 1 1 1 1 1 1 1 1 1 1 1 1 1 1 1 1 1 1 1 1 1 1 1 1 1 1 1 1 1 1 1 1 1 1 1 1 1 1 1 1 1 1 1 1 1 1 1 1 0 0 0 0 0 0 0 0 0 0 0 0 0 0 0 0 0 0 0 0 0 0 0 0 0 0 0 0 0 0 0 0 0 0 0 0 0 0 0 0 0 0 0 0 0 0 0 0 0 "/>
</feComponentTransfer>
<feComposite operator="in" in2="shape" in="coloredNoise1" result="noise1Clipped" />
<feFlood flood-color="rgba(184, 146, 58, 0.25)" result="color1Flood" />
<feComposite operator="in" in2="noise1Clipped" in="color1Flood" result="color1" />
<feMerge result="effect1_noise_131_524">
<feMergeNode in="shape" />
<feMergeNode in="color1" />
</feMerge>
</filter>
<filter id="filter2_n_131_524" x="8.77014" y="28.8372" width="39.4932" height="46.6217" filterUnits="userSpaceOnUse" color-interpolation-filters="sRGB">
<feFlood flood-opacity="0" result="BackgroundImageFix"/>
<feBlend mode="normal" in="SourceGraphic" in2="BackgroundImageFix" result="shape"/>
<feTurbulence type="fractalNoise" baseFrequency="0.66666668653488159 0.66666668653488159" stitchTiles="stitch" numOctaves="3" result="noise" seed="585" />
<feColorMatrix in="noise" type="luminanceToAlpha" result="alphaNoise" />
<feComponentTransfer in="alphaNoise" result="coloredNoise1">
<feFuncA type="discrete" tableValues="1 1 1 1 1 1 1 1 1 1 1 1 1 1 1 1 1 1 1 1 1 1 1 1 1 1 1 1 1 1 1 1 1 1 1 1 1 1 1 1 1 1 1 1 1 1 1 1 1 1 1 0 0 0 0 0 0 0 0 0 0 0 0 0 0 0 0 0 0 0 0 0 0 0 0 0 0 0 0 0 0 0 0 0 0 0 0 0 0 0 0 0 0 0 0 0 0 0 0 0 "/>
</feComponentTransfer>
<feComposite operator="in" in2="shape" in="coloredNoise1" result="noise1Clipped" />
<feFlood flood-color="rgba(184, 146, 58, 0.25)" result="color1Flood" />
<feComposite operator="in" in2="noise1Clipped" in="color1Flood" result="color1" />
<feMerge result="effect1_noise_131_524">
<feMergeNode in="shape" />
<feMergeNode in="color1" />
</feMerge>
</filter>
<filter id="filter3_n_131_524" x="8.86346" y="58.6367" width="39.375" height="47.5082" filterUnits="userSpaceOnUse" color-interpolation-filters="sRGB">
<feFlood flood-opacity="0" result="BackgroundImageFix"/>
<feBlend mode="normal" in="SourceGraphic" in2="BackgroundImageFix" result="shape"/>
<feTurbulence type="fractalNoise" baseFrequency="0.66666668653488159 0.66666668653488159" stitchTiles="stitch" numOctaves="3" result="noise" seed="585" />
<feColorMatrix in="noise" type="luminanceToAlpha" result="alphaNoise" />
<feComponentTransfer in="alphaNoise" result="coloredNoise1">
<feFuncA type="discrete" tableValues="1 1 1 1 1 1 1 1 1 1 1 1 1 1 1 1 1 1 1 1 1 1 1 1 1 1 1 1 1 1 1 1 1 1 1 1 1 1 1 1 1 1 1 1 1 1 1 1 1 1 1 0 0 0 0 0 0 0 0 0 0 0 0 0 0 0 0 0 0 0 0 0 0 0 0 0 0 0 0 0 0 0 0 0 0 0 0 0 0 0 0 0 0 0 0 0 0 0 0 0 "/>
</feComponentTransfer>
<feComposite operator="in" in2="shape" in="coloredNoise1" result="noise1Clipped" />
<feFlood flood-color="rgba(184, 146, 58, 0.25)" result="color1Flood" />
<feComposite operator="in" in2="noise1Clipped" in="color1Flood" result="color1" />
<feMerge result="effect1_noise_131_524">
<feMergeNode in="shape" />
<feMergeNode in="color1" />
</feMerge>
</filter>
<filter id="filter4_n_131_524" x="8.80804" y="120.173" width="20.8512" height="16.2017" filterUnits="userSpaceOnUse" color-interpolation-filters="sRGB">
<feFlood flood-opacity="0" result="BackgroundImageFix"/>
<feBlend mode="normal" in="SourceGraphic" in2="BackgroundImageFix" result="shape"/>
<feTurbulence type="fractalNoise" baseFrequency="0.66666668653488159 0.66666668653488159" stitchTiles="stitch" numOctaves="3" result="noise" seed="585" />
<feColorMatrix in="noise" type="luminanceToAlpha" result="alphaNoise" />
<feComponentTransfer in="alphaNoise" result="coloredNoise1">
<feFuncA type="discrete" tableValues="1 1 1 1 1 1 1 1 1 1 1 1 1 1 1 1 1 1 1 1 1 1 1 1 1 1 1 1 1 1 1 1 1 1 1 1 1 1 1 1 1 1 1 1 1 1 1 1 1 1 1 0 0 0 0 0 0 0 0 0 0 0 0 0 0 0 0 0 0 0 0 0 0 0 0 0 0 0 0 0 0 0 0 0 0 0 0 0 0 0 0 0 0 0 0 0 0 0 0 0 "/>
</feComponentTransfer>
<feComposite operator="in" in2="shape" in="coloredNoise1" result="noise1Clipped" />
<feFlood flood-color="rgba(184, 146, 58, 0.25)" result="color1Flood" />
<feComposite operator="in" in2="noise1Clipped" in="color1Flood" result="color1" />
<feMerge result="effect1_noise_131_524">
<feMergeNode in="shape" />
<feMergeNode in="color1" />
</feMerge>
</filter>
<filter id="filter5_n_131_524" x="8.71295" y="89.5576" width="39.5709" height="46.8013" filterUnits="userSpaceOnUse" color-interpolation-filters="sRGB">
<feFlood flood-opacity="0" result="BackgroundImageFix"/>
<feBlend mode="normal" in="SourceGraphic" in2="BackgroundImageFix" result="shape"/>
<feTurbulence type="fractalNoise" baseFrequency="0.66666668653488159 0.66666668653488159" stitchTiles="stitch" numOctaves="3" result="noise" seed="585" />
<feColorMatrix in="noise" type="luminanceToAlpha" result="alphaNoise" />
<feComponentTransfer in="alphaNoise" result="coloredNoise1">
<feFuncA type="discrete" tableValues="1 1 1 1 1 1 1 1 1 1 1 1 1 1 1 1 1 1 1 1 1 1 1 1 1 1 1 1 1 1 1 1 1 1 1 1 1 1 1 1 1 1 1 1 1 1 1 1 1 1 1 0 0 0 0 0 0 0 0 0 0 0 0 0 0 0 0 0 0 0 0 0 0 0 0 0 0 0 0 0 0 0 0 0 0 0 0 0 0 0 0 0 0 0 0 0 0 0 0 0 "/>
</feComponentTransfer>
<feComposite operator="in" in2="shape" in="coloredNoise1" result="noise1Clipped" />
<feFlood flood-color="rgba(184, 146, 58, 0.25)" result="color1Flood" />
<feComposite operator="in" in2="noise1Clipped" in="color1Flood" result="color1" />
<feMerge result="effect1_noise_131_524">
<feMergeNode in="shape" />
<feMergeNode in="color1" />
</feMerge>
</filter>
</defs>
</svg>
