<?xml version="1.0" encoding="UTF-8" standalone="no"?>

<svg
   viewBox="0 0 29.121681 110.20565"
   version="1.1"
   id="svg5"
   xml:space="preserve"
   xmlns:inkscape="http://www.inkscape.org/namespaces/inkscape"
   xmlns:sodipodi="http://sodipodi.sourceforge.net/DTD/sodipodi-0.dtd"
   xmlns="http://www.w3.org/2000/svg"
   xmlns:svg="http://www.w3.org/2000/svg">
     <defs>
    <filter id="innerShadow" x="-50%" y="-50%" width="200%" height="200%">
      <feColorMatrix in="SourceGraphic" type="matrix" values="0 0 0 0 0 
        0 0 0 0 0 
        0 0 0 0 0 
        0 0 0 100 0" result="opaque-source"/>
      <feGaussianBlur stdDeviation="3"/>
      <feOffset dy="3"/>
      <feComposite operator="xor" in2="opaque-source"/>
      <feComposite operator="in" in2="opaque-source"/>
    </filter>
   </defs>
     <g
     inkscape:label="Layer 1"
     inkscape:groupmode="layer"
     id="layer1"
     transform="translate(-81.407373,-103.29661)"><path
        filter="url(#innerShadow)"
       d="m 97.761316,212.96827 c 1.095259,-0.66776 1.744226,-2.13137 1.532406,-3.45603 -0.152408,-0.95311 -0.132845,-0.98117 0.807008,-1.15748 2.11041,-0.39592 4.91581,-2.05436 7.03737,-4.16021 1.12779,-1.11944 2.05052,-2.16162 2.05052,-2.31596 0,-0.19403 -4.08214,-0.28062 -13.229164,-0.28062 -7.276042,0 -13.229167,0.0953 -13.229167,0.21177 0,0.41209 2.713117,3.24869 3.865851,4.04179 1.645047,1.13182 4.034489,2.28044 5.19802,2.49872 0.96688,0.18139 0.984007,0.20533 0.83103,1.16199 -0.328282,2.05296 1.290415,3.99 3.334266,3.99 0.509323,0 1.32016,-0.24028 1.80186,-0.53397 z m -9.171048,-7.40651 c -1.462715,-0.66374 -3.214146,-2.04281 -3.214146,-2.53081 0,-0.28923 0.407192,-0.36751 1.785938,-0.34334 1.228032,0.0215 1.537978,0.0839 0.992188,0.19969 -0.607336,0.12885 -0.812777,0.33238 -0.874761,0.86666 -0.07175,0.61842 0.107067,0.79226 1.563614,1.5201 1.79991,0.89943 1.59902,1.12802 -0.252833,0.2877 z"
       id="path1013" /><path
       filter="url(#innerShadow)"
       style="fill:#000000;fill-opacity:1;stroke-width:0.264583"
       d="m 109.20754,128.20759 c -0.003,-2.70946 -0.009,-5.16061 -0.0126,-5.44702 -0.006,-0.50276 -0.24828,-0.5233 -7.01794,-0.59531 -3.856403,-0.041 -7.011559,-7.9e-4 -7.011459,0.0893 9.8e-5,0.0902 1.509009,1.34032 3.353131,2.77812 1.844118,1.43781 4.969508,3.875 6.945308,5.41598 1.9758,1.54098 3.6278,2.77554 3.67111,2.74348 0.0433,-0.0321 0.0759,-2.27514 0.0725,-4.9846 z"
       id="path1027" /><path
       filter="url(#innerShadow)"
       style="fill:#000000;fill-opacity:1;stroke-width:0.264583"
       d="m 110.34478,200.47349 c 0.0877,-0.32742 0.16116,-1.52099 0.16315,-2.65238 0.003,-1.91397 -0.0394,-2.07342 -0.61461,-2.29212 -0.87212,-0.33157 -26.928909,-0.35693 -27.796573,-0.0271 -0.667647,0.25384 -0.689375,0.3325 -0.689375,2.49597 0,1.22863 0.07227,2.4222 0.1606,2.65238 0.14369,0.37445 1.658628,0.41852 14.388933,0.41852 h 14.228335 z"
       id="path1017" /><path
       filter="url(#innerShadow)"
       style="fill:#000000;fill-opacity:1;stroke-width:0.264583"
       d="m 109.28784,152.91464 c -0.0182,-0.43656 -0.0543,-2.96664 -0.0803,-5.6224 l -0.0472,-4.82864 -6.66658,-5.19598 c -3.666623,-2.8578 -9.500517,-7.41194 -12.964209,-10.12032 -3.463692,-2.70838 -6.405613,-4.92433 -6.537598,-4.92433 -0.338304,0 -0.460737,10.30193 -0.129362,10.88498 0.206483,0.36331 7.007315,5.78763 12.068027,9.62542 0.380018,0.28819 1.758857,1.36257 3.064087,2.38753 1.305229,1.02495 3.135455,2.41885 3.135455,2.41885 l 3.357,2.69045 c 0,0 2.86925,2.22681 3.37858,2.66322 1.17486,1.00666 1.46337,1.01097 1.42213,0.0212 z"
       id="path1025" /><path
       filter="url(#innerShadow)"
       style="fill:#000000;fill-opacity:1;stroke-width:0.264583"
       d="m 109.26244,171.00118 -0.045,-6.16 c 0.0409,-1.13282 -0.0559,-1.73875 -0.31567,-1.97722 -0.39328,-0.36098 -10.18244,-8.01713 -12.513755,-9.78706 -0.74503,-0.56563 -2.0744,-1.63719 -2.954155,-2.38125 -0.879756,-0.74406 -2.248959,-1.82811 -2.248959,-1.82811 l -6.90219,-5.28906 -1.552422,-1.26642 v 5.69588 5.69588 l 3.241146,2.56469 c 4.200538,3.32383 5.689251,4.49372 13.408314,10.5368 8.037201,6.29215 9.642901,7.52547 9.808871,7.53412 0.0728,0.004 0.10596,-1.4984 0.0738,-3.3382 z"
       id="path1023" /><path
       filter="url(#innerShadow)"
       style="fill:#000000;fill-opacity:1;stroke-width:0.264583"
       d="m 109.22274,190.02245 c 0.0188,-2.58299 0.0543,-5.04149 0.079,-5.46332 0.0247,-0.42182 -0.08,-0.86417 -0.23255,-0.98298 -0.15259,-0.11881 -0.69415,-0.56049 -1.20347,-0.98151 -0.50933,-0.42101 -2.90195,-2.30038 -5.31695,-4.17638 -2.41499,-1.876 -7.270744,-5.66122 -10.790551,-8.4116 l -7.777457,-6.10729 c 0,0 -1.260739,-0.84147 -1.311669,-0.73226 -0.07413,0.15896 -0.03696,10.25917 0.04039,10.97442 0.01146,0.10588 2.31277,1.97224 5.114046,4.14746 2.801276,2.17523 8.010261,6.24651 11.575521,9.04729 9.23623,7.25576 9.37183,7.35999 9.59115,7.37182 0.10914,0.006 0.21379,-2.10265 0.23255,-4.68565 z"
       id="path1021" /><path
       filter="url(#innerShadow)"
       style="fill:#000000;fill-opacity:1;stroke-width:0.264583"
       d="m 96.749737,194.52037 c -0.0019,-0.10914 -0.348123,-0.43656 -0.769368,-0.72761 -0.421246,-0.29104 -3.466444,-2.64608 -6.767106,-5.23342 -3.300661,-2.58734 -6.117748,-4.73046 -6.260192,-4.7625 -0.203414,-0.0457 -0.322003,5.56981 -0.22646,10.72353 0.0021,0.10914 3.158834,0.19844 7.015137,0.19844 3.856302,0 7.009897,-0.0893 7.007989,-0.19844 z"
       id="path1019" /><path
       filter="url(#innerShadow)"
       style="fill:#000000;fill-opacity:1;stroke-width:0.264583"
       d="m 110.3448,120.83391 c 0.34104,-1.27261 0.18014,-4.3806 -0.24901,-4.80975 -0.3674,-0.36739 -2.02878,-0.41577 -14.278194,-0.41577 -13.434579,0 -13.870872,0.0158 -14.136312,0.51177 -0.294185,0.54969 -0.37872,4.19885 -0.113292,4.89055 0.14369,0.37445 1.658628,0.41851 14.388933,0.41851 h 14.228335 z"
       id="path1029" /><path
       filter="url(#innerShadow)"
       style="fill:#000000;fill-opacity:1;stroke-width:0.264583"
       d="m 109.18864,115.10279 c 0,-0.39116 -1.75605,-2.37202 -3.10554,-3.50312 -1.44683,-1.21268 -4.19231,-2.67781 -5.85878,-3.12655 -1.114564,-0.30012 -1.138191,-0.32927 -0.974388,-1.20243 0.195612,-1.04269 -0.307853,-2.44044 -1.167527,-3.24135 -0.840038,-0.78261 -2.13923,-0.95143 -3.409778,-0.44306 -1.325139,0.53022 -2.30455,2.26636 -2.048497,3.63125 0.159277,0.84901 0.153284,0.85444 -1.62583,1.4705 -3.005751,1.04082 -5.927172,3.08587 -7.462694,5.22405 -0.442913,0.61675 -0.805297,1.18526 -0.805297,1.26336 0,0.0781 5.953125,0.14729 13.229167,0.15373 7.670434,0.007 13.229164,-0.0883 13.229164,-0.22638 z m -5.68854,-1.00877 c 1.66114,-0.40832 1.57971,-1.42089 -0.19844,-2.46763 -0.76398,-0.44973 -1.0914,-0.73743 -0.7276,-0.63933 1.68783,0.45512 4.20955,2.43016 3.84856,3.01424 -0.0982,0.15885 -0.89803,0.27063 -1.81366,0.25348 -0.90091,-0.0169 -1.3999,-0.0892 -1.10886,-0.16076 z"
       id="path1031" /></g></svg>
