<?xml version="1.0" encoding="UTF-8" standalone="no"?>
<!-- Created with Inkscape (http://www.inkscape.org/) -->

<svg
   width="28.000004mm"
   height="28.000011mm"
   viewBox="0 0 28.000004 28.000011"
   version="1.1"
   id="svg1"
   xml:space="preserve"
   xmlns:xlink="http://www.w3.org/1999/xlink"
   xmlns="http://www.w3.org/2000/svg"
   xmlns:svg="http://www.w3.org/2000/svg"><defs
     id="defs1"><path
       id="a"
       d="M 4300.322,0 C 3860.883,0 3470.494,210.985 3225.241,537.54 H 403.155 C 181.42,537.54 0,718.96 0,940.695 v 4300.322 c 0,221.736 181.42,403.155 403.155,403.155 h 4300.322 c 221.735,0 403.155,-181.419 403.155,-403.155 V 2609.086 c 282.208,-412.562 537.54,-784.137 537.54,-1265.235 C 5644.173,601.373 5042.8,0 4300.322,0 Z" /><path
       id="m"
       fill="#db4437"
       d="m 4300.322,0 c -742.478,0 -1343.851,601.373 -1343.851,1343.851 0,1012.591 1130.85,1540.053 1264.563,2985.364 4.031,40.315 38.3,71.896 79.287,71.896 40.987,0 75.927,-31.581 79.287,-71.896 C 4513.321,2883.903 5644.171,2356.442 5644.171,1343.851 5644.173,601.373 5042.8,0 4300.322,0 Z" /><clipPath
       id="c"><use
         overflow="visible"
         xlink:href="#a"
         id="use1" /></clipPath><filter
       id="b"
       width="2.1831678"
       height="1.6771018"
       x="-0.53577408"
       y="-0.32719011"><feGaussianBlur
         in="SourceAlpha"
         stdDeviation="600"
         id="feGaussianBlur1" /><feComponentTransfer
         id="feComponentTransfer1"><feFuncA
           exponent=".7"
           type="gamma"
           id="feFuncA1" /></feComponentTransfer><feOffset
         dx="300"
         dy="100"
         id="feOffset1" /></filter></defs><g
     id="layer1"
     transform="translate(-59.156896,-63.460438)"><g
       id="g53"
       transform="matrix(0.00496087,0,0,0.00496087,59.156898,63.460437)"><path
         fill="#0f9d58"
         d="M 2553.316,3090.856 4821.885,555.396 c -37.479,-11.6 -77.248,-17.856 -118.408,-17.856 H 403.155 C 181.42,537.54 0,718.96 0,940.695 v 4300.322 c 0,41.16 6.257,80.929 17.856,118.408 z"
         id="path1" /><path
         fill="#4285f4"
         d="M 2553.316,3090.856 284.747,5626.316 c 37.479,11.6 77.248,17.856 118.408,17.856 h 4300.322 c 41.16,0 80.929,-6.256 118.408,-17.856 z"
         id="path2" /><path
         fill="#d2d2d2"
         d="m 2553.316,3090.856 2535.46,2268.569 c 11.6,-37.479 17.856,-77.248 17.856,-118.408 V 940.695 c 0,-41.16 -6.257,-80.929 -17.856,-118.408 z"
         id="path3" /><path
         fill="#f1f1f1"
         d="M 5106.633,5241.018 2687.701,2822.086 2217.353,3225.241 4636.284,5644.172 h 67.192 c 221.737,0 403.157,-181.419 403.157,-403.154 z"
         id="path4" /><path
         fill="#ffde48"
         d="M 4703.478,537.54 0,5241.018 c 0,221.736 181.42,403.155 403.155,403.155 h 67.193 L 5106.633,1007.888 v -67.193 c 0,-221.735 -181.42,-403.155 -403.155,-403.155 z"
         id="path5" /><path
         fill="#ffffff"
         fill-opacity="0.2"
         d="M 4703.478,537.54 H 403.155 C 181.42,537.54 0,718.96 0,940.695 v 33.596 C 0,752.556 181.42,571.136 403.155,571.136 h 4300.322 c 221.735,0 403.155,181.42 403.155,403.155 v -33.596 c 0,-221.735 -181.419,-403.155 -403.154,-403.155 z"
         id="path6" /><path
         fill="#263238"
         fill-opacity="0.1"
         d="M 4703.478,5610.577 H 403.155 C 181.42,5610.577 0,5429.157 0,5207.421 v 33.596 c 0,221.736 181.42,403.155 403.155,403.155 h 4300.322 c 221.735,0 403.155,-181.419 403.155,-403.155 v -33.596 c 0,221.736 -181.419,403.156 -403.154,403.156 z"
         id="path7" /><path
         fill="#eeeeee"
         d="m 1142.273,1545.428 v 286.24 h 397.78 c -31.581,169.997 -180.748,293.631 -397.78,293.631 -241.221,0 -437.423,-204.265 -437.423,-444.814 0,-240.549 196.202,-444.814 437.423,-444.814 108.852,0 205.609,37.628 282.881,110.196 l 211.657,-211.656 c -128.338,-120.275 -294.975,-193.515 -494.537,-193.515 -408.531,0 -739.118,330.587 -739.118,739.118 0,408.531 330.587,739.118 739.118,739.118 426.672,0 709.553,-300.351 709.553,-722.32 0,-52.41 -4.703,-102.805 -13.438,-151.183 h -696.116 z"
         id="path8" /><use
         clip-path="url(#c)"
         filter="url(#b)"
         opacity="0.25"
         xlink:href="#m"
         id="use8" /><use
         xlink:href="#m"
         id="use9" /><circle
         cx="4300.3218"
         cy="1343.851"
         r="470.34799"
         fill="#7b231e"
         id="circle9" /><path
         fill="#ffffff"
         fill-opacity="0.2"
         d="m 4300.322,33.596 c 735.758,0 1333.1,591.294 1343.179,1324.365 0,-4.703 0.672,-9.407 0.672,-14.11 C 5644.173,601.373 5042.8,0 4300.322,0 c -742.478,0 -1343.85,601.373 -1343.85,1343.851 0,4.703 0.672,9.407 0.672,14.11 10.078,-733.07 607.42,-1324.365 1343.178,-1324.365 z"
         id="path9" /><path
         fill="#3e2723"
         fill-opacity="0.2"
         d="m 4379.609,4295.619 c -3.36,40.315 -38.3,71.896 -79.287,71.896 -40.987,0 -75.927,-31.581 -79.287,-71.896 C 4088.666,2857.027 2967.894,2327.55 2957.144,1324.365 c 0,6.719 -0.672,12.767 -0.672,19.486 0,1012.591 1130.85,1540.053 1264.564,2985.364 4.031,40.315 38.3,71.896 79.287,71.896 40.987,0 75.927,-31.581 79.287,-71.896 133.712,-1445.312 1264.563,-1972.773 1264.563,-2985.364 0,-6.719 -0.672,-12.767 -0.672,-19.486 C 5632.75,2327.549 4512.65,2857.698 4379.609,4295.619 Z"
         id="path10" /><path
         fill="url(#r)"
         d="M 4300.322,0 C 3860.883,0 3470.494,210.985 3225.241,537.54 H 403.155 C 181.42,537.54 0,718.96 0,940.695 v 4300.322 c 0,221.736 181.42,403.155 403.155,403.155 h 4300.322 c 221.735,0 403.155,-181.419 403.155,-403.155 V 2609.086 c 282.208,-412.562 537.54,-784.137 537.54,-1265.235 C 5644.173,601.373 5042.8,0 4300.322,0 Z"
         id="path11" /></g></g></svg>
