<?xml version="1.0" encoding="UTF-8" standalone="no"?>

<svg
   viewBox="0 0 166.69516 253.1422"
   version="1.1"
   id="svg1"
   xml:space="preserve"
   xmlns="http://www.w3.org/2000/svg"
   xmlns:svg="http://www.w3.org/2000/svg">
   <defs>
    <filter id="innerShadow" x="-50%" y="-50%" width="200%" height="200%">
      <feColorMatrix in="SourceGraphic" type="matrix" values="0 0 0 0 0 
        0 0 0 0 0 
        0 0 0 0 0 
        0 0 0 100 0" result="opaque-source"/>
      <feGaussianBlur stdDeviation="3"/>
      <feOffset dy="3"/>
      <feComposite operator="xor" in2="opaque-source"/>
      <feComposite operator="in" in2="opaque-source"/>
    </filter>
   </defs>
     <g
     id="layer1"
     transform="translate(-21.542377,-22.267514)"><path
        filter="url(#innerShadow)"
       d="m 52.519789,275.29242 c -13.406072,-1.22519 -24.974011,-10.34837 -29.221371,-23.04576 -5.75699,-17.21039 3.076759,-35.82332 20.127026,-42.40814 3.981707,-1.53773 7.246348,-2.10748 12.137054,-2.11815 7.142841,-0.0156 12.68779,1.57934 18.484155,5.31675 0.998473,0.6438 2.004642,1.1341 2.235932,1.08956 0.318023,-0.0613 2.373968,-6.98137 8.434661,-28.39029 4.407775,-15.57012 8.015278,-28.54106 8.016674,-28.82431 0.0014,-0.28325 -4.478818,-11.0584 -9.956031,-23.94479 C 56.291053,70.650991 50.54101,56.863015 49.689862,53.625801 48.781701,50.171749 48.555505,44.46023 49.192607,41.069972 50.312554,35.110315 53.757253,28.385583 57.92956,24.013717 l 1.601688,-1.678296 22.471326,53.60398 c 12.359229,29.482189 22.601746,53.782339 22.761146,54.000339 0.1594,0.21799 0.46528,0.32881 0.67972,0.24625 0.21876,-0.0842 8.8053,-20.2102 19.56291,-45.853465 10.54515,-25.136851 20.71974,-49.384736 22.61018,-53.884189 l 3.43717,-8.180824 1.54441,1.698532 c 4.52254,4.973875 7.78756,11.556322 8.78602,17.713092 0.69112,4.26162 0.47781,8.092356 -0.69205,12.42815 -0.71977,2.667628 -9.76266,24.286909 -33.03491,78.978134 -3.96302,9.31333 -7.84883,18.45784 -8.63513,20.32113 l -1.42965,3.38779 7.98159,28.22992 c 4.38987,15.52645 8.13319,28.39374 8.31848,28.59399 0.28259,0.3054 0.65027,0.16875 2.28154,-0.84797 11.38527,-7.09613 25.72809,-6.84434 37.12809,0.65178 2.66197,1.7504 7.3148,6.35575 9.05473,8.96234 2.88087,4.31582 4.68344,8.81173 5.50653,13.73417 0.64752,3.87246 0.43403,9.758 -0.48069,13.25123 -2.59149,9.89676 -8.4617,17.37693 -17.4284,22.20832 -7.54206,4.06377 -17.8994,4.89411 -26.4178,2.11789 -11.71767,-3.81888 -20.77043,-14.22958 -22.87973,-26.31175 -0.24026,-1.37625 -0.52372,-5.44886 -0.67208,-9.65613 -0.99941,-28.34236 -3.9577,-48.57556 -8.45261,-57.81146 -1.50318,-3.08868 -2.73994,-4.63206 -4.32774,-5.4007 -3.89247,-1.88431 -7.42396,0.94126 -10.056796,8.04653 -3.569126,9.63205 -6.180559,28.35217 -7.049628,50.53542 -0.529823,13.52389 -0.890887,16.14708 -2.92006,21.2147 -3.552362,8.8716 -11.51653,16.2797 -20.847831,19.3922 -4.080833,1.36119 -9.487142,1.98268 -13.810196,1.5876 z"
       id="path1" /></g>
</svg>
