<svg width="76" height="113" viewBox="0 0 76 113" fill="none" xmlns="http://www.w3.org/2000/svg">
<path d="M25.5833 84.4875L32.5011 60.0452C32.5011 60.0452 18.3643 26.8681 14.5237 17.5461C10.6832 8.22399 18.5183 1.5 18.5183 1.5L38.1385 48.2645H38.1573L57.7785 1.5C57.7785 1.5 65.6155 8.22399 61.775 17.5461C57.9345 26.8681 43.7956 60.0452 43.7956 60.0452L50.6662 84.3176" stroke="#C9A94C" stroke-width="3" stroke-linecap="round" stroke-linejoin="round"/>
<path d="M31.7644 96.5608C31.7646 99.9168 30.6284 103.175 28.5392 105.811C26.4499 108.446 23.5292 110.305 20.2479 111.088C16.9665 111.871 13.5156 111.532 10.4515 110.126C7.38741 108.72 4.88861 106.329 3.35783 103.338C1.82705 100.347 1.3535 96.9309 2.01352 93.6397C2.67353 90.3485 4.42863 87.3741 6.99596 85.1962C9.56329 83.0182 12.7933 81.7634 16.1653 81.6341C19.5372 81.5049 22.8547 82.5086 25.5831 84.4835" stroke="#C9A94C" stroke-width="3" stroke-linecap="round" stroke-linejoin="round"/>
<path d="M50.6648 84.3176C53.4198 82.4039 56.7408 81.4647 60.0961 81.6504C63.4514 81.836 66.647 83.1358 69.1717 85.3416C71.6963 87.5474 73.4038 90.5317 74.0211 93.817C74.6384 97.1022 74.1297 100.498 72.5764 103.462C71.0231 106.426 68.515 108.786 65.4536 110.164C62.3921 111.542 58.9543 111.859 55.6903 111.064C52.4263 110.269 49.5248 108.408 47.4502 105.779C45.3756 103.149 44.2479 99.9039 44.2474 96.5618" stroke="#C9A94C" stroke-width="3" stroke-linecap="round" stroke-linejoin="round"/>
<path d="M31.7645 96.5607C31.8633 92.4171 32.6768 67.7186 38.0091 67.7186C43.3592 67.7186 44.15 92.4269 44.2418 96.3633" stroke="#C9A94C" stroke-width="3" stroke-linecap="round" stroke-linejoin="round"/>
</svg>
