<svg width="126" height="113" viewBox="0 0 126 113" fill="none" xmlns="http://www.w3.org/2000/svg">
<path d="M85.0268 29.5563C68.7606 29.9814 60.4979 44.4663 60.4979 44.4663L9.11589 56.1748C-3.06682 49.3742 3.02114 34.6464 3.02114 34.6464L91.7657 14.3413" stroke="#C9A94C" stroke-width="3" stroke-miterlimit="10"/>
<path d="M113.432 9.38482L115.945 8.811C116.843 8.60718 117.772 8.58135 118.68 8.73501C119.588 8.88866 120.457 9.21881 121.236 9.70642C122.015 10.194 122.689 10.8295 123.22 11.5765C123.751 12.3234 124.129 13.1671 124.33 14.059C124.532 14.951 124.554 15.8737 124.395 16.7742C124.237 17.6747 123.901 18.5353 123.406 19.3065C122.911 20.0777 122.268 20.7443 121.513 21.2682C120.759 21.7921 119.907 22.1629 119.007 22.3592L110.822 24.1234" stroke="#C9A94C" stroke-width="3" stroke-miterlimit="10"/>
<path d="M93.6244 9.35918C89.2371 21.8934 72.4004 63.5597 32.9124 96.2251C31.8039 97.1288 30.9937 98.3414 30.5863 99.7065C30.1789 101.072 30.193 102.526 30.6268 103.883C31.8661 107.645 35.015 111.994 42.9856 111.454C56.2103 110.56 107.528 49.8518 113.55 13.6403C113.894 11.709 113.694 9.72102 112.972 7.89522C112.251 6.06942 111.036 4.47656 109.461 3.29197C108.352 2.45601 107.061 1.89108 105.691 1.64295C104.322 1.39482 102.913 1.4705 101.578 1.86385C99.7384 2.3776 98.0526 3.32863 96.6667 4.63467C95.2808 5.94071 94.2366 7.56238 93.6244 9.35918V9.35918Z" stroke="#C9A94C" stroke-width="3" stroke-miterlimit="10"/>
<path d="M101.673 21.8241C103.365 21.8241 104.738 20.4621 104.738 18.7821C104.738 17.1021 103.365 15.7401 101.673 15.7401C99.9797 15.7401 98.6074 17.1021 98.6074 18.7821C98.6074 20.4621 99.9797 21.8241 101.673 21.8241Z" stroke="#C9A94C" stroke-width="3" stroke-miterlimit="10"/>
</svg>
