<svg width="92" height="153" viewBox="0 0 92 153" fill="none" xmlns="http://www.w3.org/2000/svg">
<path d="M9.7193 85.2555H10.9017C11.0423 84.6937 11.161 84.0564 11.2769 83.4352C11.5932 81.7347 11.8934 80.1207 12.7024 79.3244C13.0493 77.0655 13.1358 75.0401 12.96 73.2999C12.7964 71.6461 12.3901 70.1888 11.754 68.9701L11.7084 68.8814L11.6906 68.7857C10.8729 64.3055 11.0873 59.8922 12.3285 55.669C13.2066 52.6784 14.1142 49.5881 16.7384 47.2117C21.6755 42.7407 29.3393 43.7065 34.9357 44.4118C36.416 44.5979 37.6393 44.8399 39.1882 45.1436C41.254 45.5504 44.0827 46.1082 49.1697 46.8608C50.7347 47.0907 51.5201 47.2071 52.2554 47.2958C58.591 48.0645 63.2354 47.8369 67.3336 47.6352C71.6495 47.4226 73.3932 47.1039 75.0666 46.5905C79.9956 44.3824 84.2165 42.1916 85.9954 37.8059C87.648 33.7331 86.4529 29.892 86.061 28.6294C83.8443 21.5026 76.9013 17.8563 72.7524 15.6775C67.5428 12.941 63.8169 12.1637 57.6443 10.8758C54.8478 10.2915 51.678 9.62944 47.6594 8.64236C42.7781 7.44323 37.928 6.07411 33.203 4.56669L42.9816 13.8394L42.1195 14.8161C40.4421 13.4366 35.8444 10.2385 29.4425 10.3538C24.5226 10.4408 20.7166 12.4247 18.2521 14.2375C22.0506 12.922 25.8526 12.4985 29.5952 12.9779C30.5039 13.0943 31.4178 13.2672 32.3109 13.4913L34.1243 13.9454L32.4204 14.717C30.2901 15.6787 28.0699 16.4992 25.8209 17.151C22.4983 18.1144 20.368 18.3432 18.656 18.5276C17.0587 18.6999 15.7968 18.8359 14.0768 19.4628C8.06553 21.6519 4.66174 26.7279 4.0348 28.4301C4.05728 28.4226 4.08033 28.4168 4.10222 28.4093C4.84037 28.169 6.07581 27.7663 7.74975 27.859C8.99095 27.927 10.227 28.2532 11.4238 28.8271L12.7998 29.4851L11.3719 30.0233C9.47614 30.7373 7.85002 31.8068 6.53967 33.2007C2.01166 38.0174 3.08057 44.8486 3.34102 46.1687L3.34736 46.2056L6.61285 69.9952L9.7193 85.2555ZM11.8807 86.5583H8.65501L5.32498 70.1946L2.05949 46.4021C1.77137 44.9269 0.647728 37.5673 5.59062 32.3081C6.682 31.1476 7.96757 30.1916 9.42716 29.4552C8.84689 29.2904 8.26202 29.1913 7.67772 29.159C6.24695 29.0806 5.19936 29.4212 4.50558 29.6471C3.85848 29.858 3.24767 30.0573 2.83567 29.5439C2.49051 29.1129 2.66395 28.4935 2.721 28.29C2.99644 27.3047 4.03135 25.406 6.04008 23.3011C7.574 21.6945 10.1359 19.5112 13.6313 18.2383C15.5 17.5584 16.898 17.408 18.5166 17.2322C20.2643 17.0449 22.2454 16.8312 25.4579 15.8988C26.9814 15.4574 28.4911 14.9371 29.9674 14.3453C29.7876 14.3188 29.6084 14.294 29.4298 14.2704C24.7491 13.6711 19.9583 14.5695 15.1894 16.9389L12.0847 18.4815L14.4173 15.9167C15.8487 14.3441 21.1615 9.19727 29.4194 9.05091C32.6941 8.9904 35.5257 9.74469 37.7822 10.7047L28.0762 1.5L30.8635 2.43061C36.4149 4.2878 42.1702 5.95195 47.97 7.37696C51.9667 8.35943 55.1244 9.01864 57.9105 9.60005C64.1943 10.9116 67.987 11.7033 73.3581 14.5239C77.6855 16.7972 84.9282 20.6003 87.3045 28.2428C87.7315 29.6148 89.0298 33.7907 87.2026 38.2957C85.2376 43.1401 80.7684 45.4651 75.5627 47.796L75.4884 47.8236C73.7021 48.3757 71.8835 48.7162 67.3975 48.9363C63.2475 49.1415 58.5438 49.3714 52.0987 48.5895C51.3467 48.4978 50.5555 48.3814 48.9795 48.1486C43.8615 47.3932 41.0149 46.8325 38.9364 46.4223C37.3524 46.1099 36.2086 45.8858 34.7726 45.7043C29.4269 45.0301 22.1059 44.1081 17.6125 48.178C15.2609 50.3078 14.4438 53.0904 13.5783 56.0361C12.404 60.0322 12.1942 64.211 12.9548 68.4567C13.6423 69.8051 14.0796 71.3908 14.256 73.1714C14.4496 75.0816 14.347 77.3018 13.9523 79.7652L13.9091 80.0337L13.6878 80.1916C13.1312 80.5898 12.8131 82.2994 12.5572 83.6743C12.4022 84.5081 12.242 85.3696 12.0208 86.0968L11.8807 86.5583ZM82.2182 48.3152C81.3383 48.3152 80.5206 48.4817 79.953 48.7445C79.5531 48.9288 79.28 49.1576 79.2224 49.3553C79.1394 49.6382 79.628 50.1839 80.1005 50.7105C80.3241 50.9601 80.5552 51.2182 80.7874 51.5057C82.3651 53.4678 82.8849 55.427 83.5665 61.9914C84.0339 66.4946 84.19 68.988 84.3277 71.1874C84.4211 72.6787 84.5093 74.0859 84.6827 75.9165C84.8337 77.5012 85.1615 80.9557 85.7055 83.3499C87.7252 71.3349 88.9854 61.2774 88.9508 57.3343C88.9376 55.8885 88.6754 54.505 88.1706 53.2229C87.6935 52.0117 86.8061 49.758 84.6879 48.8078C83.9134 48.461 83.0387 48.3152 82.2182 48.3152ZM86.299 87.5956L85.3932 86.2662C84.5381 85.0106 83.9566 82.047 83.3862 76.0393C83.2104 74.1879 83.1217 72.7703 83.0278 71.2698C82.8906 69.0825 82.7356 66.6041 82.2706 62.1256C81.6212 55.8724 81.1544 54.04 79.7721 52.3228C79.5618 52.0618 79.3428 51.8169 79.1307 51.5812C78.3874 50.752 77.6855 49.9689 77.9719 48.9894C78.1408 48.4108 78.6369 47.917 79.4067 47.5615C80.7557 46.9386 83.1505 46.6908 85.2209 47.6191C87.8237 48.7859 88.8765 51.4602 89.3824 52.7452C89.946 54.1771 90.2393 55.7157 90.2537 57.3222C90.2917 61.6664 88.8817 72.6597 86.5733 86.0098L86.299 87.5956Z" fill="#C9A94C"/>
<path d="M67.3336 47.6352C63.2354 47.8369 58.591 48.0645 52.2554 47.2958C51.5201 47.2071 50.7347 47.0907 49.1697 46.8608C44.0827 46.1082 41.254 45.5504 39.1882 45.1436C37.6393 44.8399 36.416 44.5979 34.9357 44.4118C29.3393 43.7065 21.6755 42.7407 16.7384 47.2117C14.1142 49.5881 13.2066 52.6784 12.3285 55.669C11.0873 59.8922 10.8729 64.3055 11.6906 68.7857L11.7084 68.8814L11.754 68.9701C12.3901 70.1888 12.7964 71.6461 12.96 73.2999C13.1358 75.0401 13.0493 77.0655 12.7024 79.3244C11.8934 80.1207 11.5932 81.7347 11.2769 83.4352C11.161 84.0564 11.0423 84.6937 10.9017 85.2555H9.7193L6.61285 69.9952L3.34736 46.2056L3.34102 46.1687C3.08057 44.8486 2.01166 38.0174 6.53967 33.2007C7.85002 31.8068 9.47614 30.7373 11.3719 30.0233L12.7998 29.4851L11.4238 28.8271C10.227 28.2532 8.99095 27.927 7.74975 27.859C6.07581 27.7663 4.84037 28.169 4.10222 28.4093C4.08033 28.4168 4.05728 28.4226 4.0348 28.4301C4.66174 26.7279 8.06553 21.6519 14.0768 19.4628C15.7968 18.8359 17.0587 18.6999 18.656 18.5276C20.368 18.3432 22.4983 18.1144 25.8209 17.151C28.0699 16.4992 30.2901 15.6787 32.4204 14.717L34.1243 13.9454L32.3109 13.4913C31.4178 13.2672 30.5039 13.0943 29.5952 12.9779C25.8526 12.4985 22.0506 12.922 18.2521 14.2375C20.7166 12.4247 24.5226 10.4408 29.4425 10.3538C35.8444 10.2385 40.4421 13.4366 42.1195 14.8161L42.9816 13.8394L33.203 4.56669C37.928 6.07411 42.7782 7.44323 47.6594 8.64236C51.678 9.62944 54.8478 10.2915 57.6443 10.8758C63.8169 12.1637 67.5428 12.941 72.7524 15.6775C76.9013 17.8563 83.8443 21.5026 86.061 28.6294C86.4529 29.892 87.648 33.7331 85.9954 37.8059C84.2165 42.1916 79.9956 44.3824 75.0666 46.5905C73.3932 47.1039 71.6495 47.4226 67.3336 47.6352ZM67.3336 47.6352L67.3653 48.2858M77.9719 48.9894C77.6855 49.9689 78.3874 50.752 79.1307 51.5812C79.3428 51.8169 79.5617 52.0618 79.7721 52.3228C81.1544 54.04 81.6212 55.8724 82.2706 62.1256C82.7356 66.6041 82.8906 69.0825 83.0278 71.2698C83.1217 72.7703 83.2104 74.1879 83.3862 76.0393C83.9566 82.047 84.5381 85.0106 85.3932 86.2662L86.299 87.5956L86.5733 86.0098C88.8817 72.6597 90.2917 61.6664 90.2537 57.3222C90.2393 55.7157 89.946 54.1771 89.3824 52.7452C88.8765 51.4602 87.8237 48.7859 85.2209 47.6191C83.1505 46.6908 80.7557 46.9386 79.4067 47.5615C78.6369 47.917 78.1408 48.4108 77.9719 48.9894ZM77.9719 48.9894L78.5971 49.172M11.8807 86.5583H8.65501L5.32498 70.1946L2.05949 46.4021C1.77137 44.9269 0.647728 37.5673 5.59062 32.3081C6.682 31.1476 7.96757 30.1916 9.42716 29.4552C8.84689 29.2904 8.26202 29.1913 7.67772 29.159C6.24695 29.0806 5.19936 29.4212 4.50558 29.6471C3.85848 29.858 3.24767 30.0573 2.83567 29.5439C2.49051 29.1129 2.66395 28.4935 2.721 28.29C2.99644 27.3047 4.03135 25.406 6.04008 23.3011C7.574 21.6945 10.1359 19.5112 13.6313 18.2383C15.5 17.5584 16.898 17.408 18.5166 17.2322C20.2643 17.0449 22.2454 16.8312 25.4579 15.8988C26.9814 15.4574 28.4911 14.9371 29.9674 14.3453C29.7876 14.3188 29.6084 14.294 29.4298 14.2704C24.7491 13.6711 19.9583 14.5695 15.1894 16.9389L12.0847 18.4815L14.4173 15.9167C15.8487 14.3441 21.1615 9.19727 29.4194 9.05091C32.6941 8.9904 35.5257 9.74469 37.7822 10.7047L28.0762 1.5L30.8635 2.43061C36.4149 4.2878 42.1702 5.95195 47.97 7.37696C51.9667 8.35943 55.1244 9.01864 57.9105 9.60005C64.1943 10.9116 67.987 11.7033 73.3581 14.5239C77.6855 16.7972 84.9282 20.6003 87.3045 28.2428C87.7315 29.6148 89.0298 33.7907 87.2025 38.2957C85.2376 43.1401 80.7684 45.4651 75.5627 47.796L75.4884 47.8236C73.7021 48.3757 71.8835 48.7162 67.3975 48.9363C63.2475 49.1415 58.5438 49.3714 52.0987 48.5895C51.3467 48.4978 50.5555 48.3814 48.9795 48.1486C43.8615 47.3932 41.0149 46.8325 38.9364 46.4223C37.3524 46.1099 36.2086 45.8858 34.7726 45.7043C29.4269 45.0301 22.1059 44.1081 17.6125 48.178C15.2609 50.3078 14.4438 53.0904 13.5783 56.0361C12.404 60.0322 12.1942 64.211 12.9548 68.4567C13.6423 69.8051 14.0796 71.3908 14.256 73.1714C14.4496 75.0816 14.347 77.3018 13.9523 79.7652L13.9091 80.0337L13.6878 80.1916C13.1312 80.5898 12.8131 82.2994 12.5572 83.6743C12.4022 84.5081 12.242 85.3696 12.0208 86.0968L11.8807 86.5583ZM82.2182 48.3152C81.3383 48.3152 80.5206 48.4817 79.953 48.7445C79.5531 48.9288 79.28 49.1576 79.2224 49.3553C79.1394 49.6382 79.628 50.1839 80.1005 50.7106C80.3241 50.9601 80.5552 51.2182 80.7874 51.5057C82.3651 53.4678 82.8849 55.427 83.5665 61.9914C84.0339 66.4946 84.19 68.988 84.3277 71.1874C84.4211 72.6787 84.5093 74.0859 84.6827 75.9165C84.8337 77.5012 85.1615 80.9557 85.7055 83.3499C87.7252 71.3349 88.9854 61.2774 88.9508 57.3343C88.9376 55.8885 88.6754 54.505 88.1706 53.2229C87.6935 52.0117 86.8061 49.758 84.6879 48.8078C83.9134 48.461 83.0387 48.3152 82.2182 48.3152Z" stroke="#C9A94C" stroke-width="2"/>
<path d="M47.3471 121.683L47.8138 122.142C49.9557 124.248 52.0024 125.321 53.8976 125.331C53.904 125.331 53.9097 125.331 53.9161 125.331C55.9963 125.331 59.9515 122.81 60.186 120.95C60.3479 119.662 59.3361 117.339 57.9301 115.767C57.011 114.741 56.0516 114.172 55.2207 114.157C50.6316 115.145 45.9745 115.281 41.3773 114.561C38.8627 114.168 38.1032 114.051 36.571 116.288C35.7412 117.504 34.8838 118.758 34.5496 120.646C36.4967 123.435 38.5659 124.943 40.7031 125.131C42.713 125.306 44.7955 124.304 46.8901 122.152L47.3471 121.683ZM53.9132 126.633C53.9051 126.633 53.8976 126.633 53.8896 126.633C51.7904 126.622 49.5972 125.573 47.3655 123.515C45.1309 125.647 42.8531 126.626 40.5896 126.429C37.9903 126.201 35.5465 124.431 33.3268 121.167L33.1834 120.958L33.2208 120.705C33.5648 118.38 34.5905 116.878 35.4952 115.554L35.4958 115.553C37.4918 112.636 38.9439 112.863 41.5784 113.274C46.0396 113.972 50.5595 113.836 55.0132 112.869L55.0766 112.856L55.1417 112.854C55.1579 112.854 55.174 112.854 55.1901 112.854C56.7425 112.854 58.0626 113.964 58.9005 114.899C60.5802 116.775 61.6883 119.446 61.4785 121.112C61.131 123.866 56.3881 126.633 53.9132 126.633ZM41.2534 148.962C42.263 148.988 43.2259 149.311 44.1576 149.624C45.6115 150.111 46.8665 150.533 48.0466 149.823L48.1544 149.758L48.2777 149.737C52.9186 148.984 53.4459 148.33 55.1919 146.166C55.7635 145.459 56.4745 144.577 57.4795 143.507L57.5481 143.433L57.6356 143.383C58.0753 143.136 58.4089 143.293 58.5317 143.371C58.9206 143.617 58.9523 144.065 58.9322 144.479C59.6991 143.682 60.9928 141.292 61.5263 140.306C62.0161 139.401 62.28 138.917 62.4679 138.686L64.0462 136.742L63.6157 139.208C63.5973 139.313 63.5823 139.407 63.5702 139.493C64.128 138.829 65.1693 137.364 67.0679 134.136L68.1265 132.336L68.2786 134.418C68.376 135.747 68.5869 136.182 68.6733 136.309C69.0265 136.15 70.4043 134.955 73.9354 126.321L73.9608 126.259L73.9988 126.203C76.5118 122.489 78.3131 118.578 79.2079 114.894L79.2206 114.85C80.603 110.521 81.5866 105.417 81.8517 101.196C82.1772 96.0022 81.3077 94.2868 80.7424 94.092C80.3633 93.9623 79.3854 94.1658 77.0926 97.0037C74.9842 99.6134 74.5457 102.136 74.0812 104.806C73.611 107.51 73.0786 110.574 70.716 114.02C70.2505 114.698 69.6477 115.396 68.5546 116.612L67.851 117.394L67.4644 116.415C65.167 110.602 57.3089 107.55 52.4634 107.242C50.2305 107.098 48.5727 107.501 48.1359 108.293L47.6553 109.163L47.0492 108.376C46.2511 107.339 44.3772 106.951 41.7732 107.284C36.159 108.004 29.3964 111.665 28.1194 114.676C27.9339 115.116 27.7605 115.585 27.6043 116.073L27.2655 117.132L26.5077 116.318C25.7419 115.495 25.1876 115.255 24.6517 115.021C24.0415 114.756 23.4099 114.481 22.7974 113.496C20.7218 110.156 20.4331 107.088 20.179 104.381C19.9157 101.586 19.6886 99.1692 17.6586 96.8902C16.7303 95.8472 15.5726 94.999 14.2093 94.3576C13.4734 103.4 14.2669 112.086 16.5701 120.189C17.367 122.993 18.7828 127.251 20.3669 130.794C22.8118 136.26 23.9199 136.129 23.9297 136.128C23.9464 136.124 24.34 136.037 24.7266 134.592L25.0672 133.318L25.8722 134.364C26.8852 135.678 27.9281 137.003 28.9723 138.297C29.1192 138.481 29.2667 138.663 29.4154 138.847L28.5908 137.087L30.8346 138.951C31.1435 139.208 31.5641 139.867 32.3415 141.107C32.8537 141.924 33.7901 143.415 34.4205 144.173C34.4349 143.868 34.5219 143.543 34.855 143.362C35.1673 143.192 35.5223 143.25 35.9106 143.53C36.9611 144.22 37.6509 145.247 38.3181 146.241C39.1352 147.457 39.9074 148.607 41.2534 148.962ZM46.666 151.5C45.6547 151.5 44.6624 151.167 43.7439 150.859C42.8433 150.558 41.9927 150.271 41.1589 150.263L41.0858 150.261L41.0143 150.245C39.1335 149.792 38.1695 148.357 37.2365 146.967C36.7542 146.249 36.2927 145.561 35.7222 145.033L35.717 145.054C35.5666 145.719 35.1235 145.864 34.9397 145.896C34.0143 146.052 33.1015 144.769 31.238 141.798C31.1268 141.621 31.0092 141.434 30.8917 141.248C30.6768 141.413 30.2244 141.603 29.5721 141.075L29.5208 141.034L29.4793 140.984C28.9705 140.366 28.4588 139.737 27.9581 139.115C27.1571 138.122 26.3568 137.112 25.5696 136.101C25.2026 136.874 24.737 137.305 24.1608 137.409C23.3258 137.56 22.4545 136.98 21.5015 135.636C20.791 134.635 20.0096 133.185 19.1781 131.324C17.5658 127.72 16.1264 123.393 15.3174 120.546C12.8937 112.02 12.1106 102.869 12.9894 93.3452L13.0689 92.4855L13.8739 92.7984C15.7858 93.5417 17.386 94.6262 18.6313 96.0241C20.946 98.6223 21.2035 101.36 21.4761 104.258C21.7285 106.949 21.9901 109.73 23.9038 112.809C24.3019 113.449 24.6292 113.59 25.1715 113.827C25.5984 114.012 26.1003 114.231 26.7002 114.715C26.7716 114.529 26.8448 114.347 26.9197 114.168C28.509 110.42 36.1204 106.695 41.6072 105.992C44.2792 105.649 46.3029 106.001 47.5263 107.01C48.4794 106.169 50.2167 105.791 52.5464 105.94C55.5226 106.131 58.863 107.135 61.7119 108.697C63.8866 109.889 66.6899 111.918 68.2521 114.995C68.9021 114.259 69.3164 113.757 69.6414 113.282C71.8437 110.072 72.3289 107.281 72.798 104.583C73.2918 101.742 73.7585 99.0574 76.079 96.1849C77.6659 94.2205 79.511 92.2907 81.1671 92.86C82.799 93.4236 83.4668 96.2557 83.1516 101.278C82.8808 105.592 81.8782 110.804 80.4687 115.225C79.5398 119.031 77.6896 123.06 75.1156 126.877C73.6496 130.457 72.3946 133.154 71.385 134.894C70.1554 137.014 69.2467 137.823 68.3477 137.597C67.7974 137.46 67.4725 136.961 67.2737 136.33C66.4035 137.757 65.6723 138.873 65.0926 139.655C64.1931 140.867 63.493 141.555 62.7831 141.236C62.7036 141.2 62.6344 141.157 62.5739 141.105C60.7657 144.436 59.7049 146.025 58.6527 146.025C58.6498 146.025 58.6469 146.025 58.644 146.025C58.4095 146.023 57.9722 145.938 57.684 145.384L57.6431 145.306L57.6356 145.272C57.0588 145.928 56.5984 146.498 56.206 146.985C54.3909 149.233 53.6314 150.174 48.6056 151.004C47.9608 151.365 47.309 151.499 46.666 151.5Z" fill="#C9A94C" stroke="#C9A94C" stroke-width="2"/>
</svg>
