<?xml version="1.0" encoding="UTF-8" standalone="no"?>
<!-- Created with Inkscape (http://www.inkscape.org/) -->

<svg
   width="28mm"
   height="28.000004mm"
   viewBox="0 0 28 28.000004"
   version="1.1"
   id="svg1"
   xml:space="preserve"
   xmlns="http://www.w3.org/2000/svg"
   xmlns:svg="http://www.w3.org/2000/svg"><defs
     id="defs1" /><g
     id="layer1"
     transform="translate(-22.197953,-182.89861)"><g
       id="g52"
       transform="matrix(0.2419458,0,0,0.2419458,-23.021178,11.618804)"><g
         id="g92">
</g><g
         id="g100"
         transform="matrix(0.17521332,0,0,0.17521332,157.15531,678.18385)">
	<path
   style="fill:#15ccff"
   d="M 754.99,830.25 H 245.01 c -41.565,0 -75.26,-33.695 -75.26,-75.26 V 245.01 c 0,-41.565 33.695,-75.26 75.26,-75.26 h 509.98 c 41.565,0 75.26,33.695 75.26,75.26 v 509.98 c 0,41.565 -33.695,75.26 -75.26,75.26 z"
   id="path92" />
	<g
   id="g99">
		<path
   d="m 532.81,671.239 c 0,-28.4 23.022,-51.422 51.424,-51.422 28.404,0 51.426,23.022 51.426,51.422 0,28.403 -23.022,51.425 -51.426,51.425 -28.402,10e-4 -51.424,-23.021 -51.424,-51.425"
   id="path93" />
		<path
   d="m 744.76,445.986 c -4.787,-28.285 -16.043,-54.816 -33.401,-78.862 -19.661,-27.116 -46.52,-49.773 -77.692,-65.487 -31.501,-15.897 -66.693,-24.302 -101.738,-24.302 -9.867,0 -19.844,0.658 -29.601,2.01 -40.893,5.518 -81.128,22.511 -113.25,47.909 -36.215,28.577 -59.567,65.341 -67.57,106.306 -2.375,12.169 -3.399,25.617 -4.385,38.664 -1.535,20.392 -3.106,41.441 -9.611,55.218 -4.422,9.428 -11.036,15.714 -28.906,15.714 -9.83,0 -18.82,5.555 -23.206,14.362 -4.385,8.807 -3.435,19.332 2.485,27.152 60.48,80.25 162.365,89.533 233.735,89.533 1.754,0 3.545,0 5.262,-0.037 h 9.903 c 2.302,0.037 4.641,0.037 7.09,0.037 33.255,0 68.447,-1.644 100.532,-13.631 26.75,-9.976 52.221,-26.092 73.636,-46.667 23.169,-22.219 40.162,-48.457 49.152,-75.829 10.159,-30.843 12.68,-61.795 7.565,-92.09 z m -32.196,83.978 c -16.189,49.298 -61.357,89.204 -107.22,106.306 -29.893,11.146 -64.829,11.986 -91.469,11.986 -4.678,0 -9.063,-0.037 -13.156,-0.037 -1.389,0 -2.704,0.037 -3.983,0.037 h -5.116 c -66.985,0 -159.478,-8.186 -213.015,-79.191 73.344,0 58.872,-81.931 68.374,-130.535 14.435,-74.075 87.705,-123.884 158.82,-133.495 8.734,-1.169 17.504,-1.754 26.129,-1.754 116.867,10e-4 220.871,104.334 180.636,226.683 z"
   id="path94" />
		<path
   style="fill:#ffffff"
   d="m 712.564,529.964 c -16.189,49.298 -61.357,89.204 -107.22,106.306 -29.893,11.146 -64.829,11.986 -91.469,11.986 -4.678,0 -9.063,-0.037 -13.156,-0.037 -1.389,0 -2.704,0.037 -3.983,0.037 h -5.116 c -66.985,0 -159.478,-8.186 -213.015,-79.191 73.344,0 58.872,-81.931 68.374,-130.535 14.435,-74.075 87.705,-123.884 158.82,-133.495 8.734,-1.169 17.504,-1.754 26.129,-1.754 116.867,10e-4 220.871,104.334 180.636,226.683 z"
   id="path95" />
		<path
   d="m 498.584,432.469 c 0,13.755 -11.15,24.904 -24.906,24.904 -13.75,0 -24.904,-11.149 -24.904,-24.904 0,-13.756 11.154,-24.901 24.904,-24.901 13.756,0 24.906,11.145 24.906,24.901"
   id="path96" />
		<path
   d="m 614.934,432.469 c 0,13.755 -11.15,24.904 -24.904,24.904 -13.752,0 -24.905,-11.149 -24.905,-24.904 0,-13.756 11.152,-24.901 24.905,-24.901 13.754,0 24.904,11.145 24.904,24.901"
   id="path97" />
		<path
   d="m 530.964,566.011 c -42.202,0 -80.215,-27.667 -87.188,-63.88 -1.351,-7.032 3.253,-13.829 10.283,-15.181 7.036,-1.36 13.832,3.249 15.185,10.28 4.097,21.295 29.59,43.71 63.572,42.827 35.397,-0.931 58.781,-22.098 63.586,-42.523 1.642,-6.971 8.628,-11.288 15.594,-9.655 6.968,1.642 11.292,8.622 9.652,15.594 -3.922,16.668 -14.662,32.122 -30.245,43.508 -16.226,11.859 -36.248,18.429 -57.903,19 -0.849,0.019 -1.692,0.03 -2.536,0.03"
   id="path98" />
		<path
   d="m 354.318,671.239 c 0,-28.4 23.024,-51.422 51.426,-51.422 28.402,0 51.424,23.022 51.424,51.422 0,28.403 -23.022,51.425 -51.424,51.425 -28.402,10e-4 -51.426,-23.021 -51.426,-51.425"
   id="path99" />
	</g>
</g></g></g></svg>
