<?xml version="1.0" encoding="UTF-8" standalone="no"?>
<svg
   width="27.092262"
   height="14.076791"
   viewBox="0 0 27.092262 14.076791"
   fill="none"
   version="1.1"
   id="svg8"
   xmlns="http://www.w3.org/2000/svg"
   xmlns:svg="http://www.w3.org/2000/svg">
  <g
     clip-path="url(#clip0_80_264)"
     id="g8"
     style="fill:#000000;fill-opacity:1"
     transform="translate(-10.287169,-12.44)">
    <path
       d="m 30.6648,12.4415 c -0.7042,-0.005 -1.4087,0.0836 -2.0886,0.269 -1.3983,0.4074 -2.8719,0.9776 -3.7978,2.1601 -0.6521,0.9214 -0.9345,2.1865 -0.5355,3.2677 0.3742,1.047 1.2606,1.6285 2.1905,2.1495 0,0 -0.4252,0.0689 -0.8871,0.3068 -1.6418,0.8457 -1.8661,2.9519 -0.7653,4.0631 1.0743,1.0844 2.3756,1.3567 3.6947,1.6138 1.7954,0.3497 3.7013,0.3469 5.4852,-0.1477 1.1797,-0.4158 2.4271,-1.0352 3.0057,-2.212 0.8538,-1.5192 0.2981,-3.4773 -0.8877,-4.6533 -0.4306,-0.388 -0.9035,-0.7046 -1.4045,-0.9684 0.6923,-0.1526 1.3404,-0.61 1.6377,-1.2635 0.4726,-0.9517 0.1191,-2.12 -0.6783,-2.7762 -1.3727,-1.1732 -3.1694,-1.7962 -4.969,-1.8089 z M 30.64,13.1641 c 0.4468,0.0014 0.8929,0.0433 1.3297,0.1253 1.0783,0.2475 2.1594,0.8287 2.7652,1.7797 0.427,0.8724 0.2771,2.3045 -0.2808,2.7936 -0.1067,0.0937 -0.176,0.162 -0.2169,0.2129 -1.2729,-0.5785 -2.6941,-0.8626 -4.0576,-1.114 -1.0224,-0.2333 -2.148,-0.4014 -2.9693,-1.1049 -0.7016,-0.6392 -0.1847,-1.765 0.5635,-2.109 0.897,-0.393 1.8832,-0.5864 2.8662,-0.5836 z m 4.3082,1.2622 c 0,0 1.028,0.6658 0.9706,1.6765 -0.0673,1.1869 -0.9706,1.5883 -0.9706,1.5883 0,0 0.473,-0.7098 0.4743,-1.5442 0.0017,-1.084 -0.4743,-1.7206 -0.4743,-1.7206 z m -9.3705,0.8581 c 0.008,-7e-4 0.0174,0.002 0.0276,0.0112 0.0147,0.0134 3e-4,0.0483 3e-4,0.0483 l -0.8258,2.2591 v -0.8823 l 0.7755,-1.4261 c 0,0 0.0091,-0.0093 0.0224,-0.0102 z m 0.5963,0.6316 c 0.006,-3e-4 0.0127,10e-4 0.02,0.0057 0.016,0.0107 0.006,0.0369 0.006,0.0369 l -0.973,2.5797 -0.2203,-0.3442 1.1449,-2.2672 c 0,0 0.0092,-0.0098 0.0224,-0.0109 z m 0.5873,0.7073 c 0.006,-3e-4 0.0129,0.001 0.0202,0.0057 0.016,0.0106 0.006,0.0368 0.006,0.0368 l -0.9178,2.4531 -0.2754,-0.2175 1.1448,-2.2673 c 0,0 0.009,-0.0097 0.0222,-0.0108 z m 0.6177,0.5294 c 0.006,-3e-4 0.0129,0.001 0.0202,0.0057 0.016,0.0107 0.006,0.0369 0.006,0.0369 l -0.8572,2.4254 -0.3195,-0.2395 1.1283,-2.2176 c 0,0 0.0089,-0.0098 0.0222,-0.0109 z m 0.7059,0.353 c 0.006,-4e-4 0.0129,10e-4 0.0202,0.0057 0.016,0.0106 0.006,0.0368 0.006,0.0368 l -0.8489,2.4559 -0.372,-0.2093 1.1725,-2.2783 c 0,0 0.0089,-0.0097 0.0222,-0.0108 z m 0.8582,0.133 c 0.0051,2e-4 0.0106,0.002 0.0164,0.0059 0.016,0.0106 0.006,0.0369 0.006,0.0369 l -0.988,2.6567 -0.3348,-0.1592 1.2744,-2.5293 c 0,0 0.0108,-0.0117 0.026,-0.011 z m 0.7593,0.258 c 0.0051,2e-4 0.0108,0.002 0.0166,0.0059 0.016,0.0106 0.006,0.0368 0.006,0.0368 l -0.977,2.7007 -0.3996,-0.1532 1.3282,-2.5792 c 0,0 0.0106,-0.0117 0.0258,-0.011 z m 0.7731,0.2252 c 0.0061,-3e-4 0.0128,0.001 0.02,0.0057 0.0161,0.0107 0.0061,0.0369 0.0061,0.0369 l -0.9758,2.7066 -0.3885,-0.1236 1.3158,-2.6147 c 0,0 0.0092,-0.0098 0.0224,-0.0109 z m 0.7942,0.2427 c 0.006,-3e-4 0.0127,0.001 0.02,0.0057 0.016,0.0106 0.006,0.0368 0.006,0.0368 l -0.9675,2.6708 -0.394,-0.1098 1.3131,-2.5927 c 0,0 0.0092,-0.0097 0.0224,-0.0108 z m 0.8162,0.0993 c 0.006,-4e-4 0.0127,0.001 0.02,0.0057 0.016,0.0106 0.006,0.0368 0.006,0.0368 l -0.951,2.7287 -0.4849,-0.096 1.3875,-2.6644 c 0,0 0.0091,-0.0097 0.0224,-0.0108 z m 0.8162,0.1544 c 0.006,-4e-4 0.0127,10e-4 0.0199,0.0057 0.0161,0.0106 0.0061,0.0369 0.0061,0.0369 l -0.9841,2.6845 -0.4132,-0.0574 1.3489,-2.6589 c 0,0 0.0092,-0.0097 0.0224,-0.0108 z m 0.7417,0.2991 c 0.006,-3e-4 0.0129,0.0011 0.0202,0.0058 0.016,0.0106 0.006,0.0368 0.006,0.0368 l -0.9013,2.5303 -0.4188,-0.0576 1.2717,-2.5044 c 0,0 0.009,-0.0097 0.0222,-0.0109 z m 0.7941,0.2648 c 0.006,-4e-4 0.0129,10e-4 0.0202,0.0056 0.0161,0.0107 0.0061,0.0369 0.0061,0.0369 l -0.8872,2.4784 -0.3975,-0.1139 1.2362,-2.3962 c 0,0 0.009,-0.0098 0.0222,-0.0108 z m 0.6187,0.4661 c 0.006,-3e-4 0.0128,0.001 0.02,0.0057 0.016,0.0107 0.0062,0.0369 0.0062,0.0369 l -0.8519,2.2654 -0.3029,-0.1539 1.1062,-2.1432 c 0,0 0.0092,-0.0098 0.0224,-0.0109 z m 0.6167,0.6809 c 0.006,-3e-4 0.0129,0.001 0.0201,0.0057 0.0161,0.0107 0.0061,0.0369 0.0061,0.0369 l -0.6923,2.0222 -0.3218,-0.2156 0.9656,-1.8383 c 0,0 0.009,-0.0098 0.0223,-0.0109 z m -8.7134,0.2198 c 0.0159,0.0089 0.0324,0.018 0.0482,0.027 1.1705,0.5954 2.4612,0.9561 3.7513,1.2 1.3349,0.2731 2.8589,0.2241 3.9207,1.2079 0.6843,0.5928 0.3707,1.7981 -0.4135,2.1555 -1.3397,0.7123 -2.9129,0.5924 -4.3823,0.6188 -0.6962,-0.0685 -1.4157,-0.098 -2.0803,-0.3267 -1.0406,-0.488 -2.0307,-1.3706 -2.2854,-2.532 -0.071,-0.9895 0.6877,-1.8075 1.4413,-2.3505 z m -0.6975,0.1532 c 0,0 -0.6359,0.5878 -0.8438,0.9596 -0.1952,0.3491 -0.3142,0.8241 -0.3529,1.147 -0.0509,0.4253 0.1529,0.8567 0.3529,1.2354 0.2331,0.4411 0.957,1.151 0.957,1.151 0,0 -0.9275,-0.5447 -1.2217,-0.9746 -0.2784,-0.4068 -0.4511,-0.603 -0.4412,-1.4118 0.0054,-0.4372 0.1809,-0.884 0.4412,-1.2353 0.4013,-0.5413 1.1085,-0.8713 1.1085,-0.8713 z m 9.9403,0.5094 c 0.006,-3e-4 0.0129,10e-4 0.0202,0.0057 0.016,0.0107 0.006,0.0369 0.006,0.0369 l -0.6421,1.874 -0.2534,-0.4215 0.8471,-1.4842 c 0,0 0.0089,-0.0098 0.0222,-0.0109 z m 0.4146,0.9349 c 0.0051,3e-4 0.0106,0.0017 0.0164,0.0057 0.016,0.0107 0.006,0.0371 0.006,0.0371 l -0.8627,2.2212 -0.0107,-0.6254 0.825,-1.6275 c 0,0 0.0108,-0.0118 0.026,-0.0111 z"
       fill="#C9A94C"
       id="path7"
       style="fill:#000000;fill-opacity:1" />
    <path
       d="m 16.893,12.4402 c -0.7042,-0.005 -1.4087,0.0835 -2.0886,0.269 -1.3983,0.4074 -2.8719,0.9775 -3.7978,2.1601 -0.6521,0.9214 -0.9345,2.1865 -0.5354,3.2677 0.3742,1.0469 1.2605,1.6285 2.1904,2.1494 0,0 -0.4252,0.069 -0.8871,0.3069 -1.6418,0.8457 -1.86611,2.9518 -0.7653,4.063 1.0743,1.0845 2.3756,1.3568 3.6947,1.6138 1.7954,0.3498 3.7013,0.347 5.4852,-0.1477 1.1797,-0.4158 2.4271,-1.0352 3.0058,-2.2119 0.8537,-1.5192 0.2981,-3.4774 -0.8878,-4.6533 -0.4306,-0.388 -0.9035,-0.7047 -1.4045,-0.9684 0.6923,-0.1527 1.3404,-0.6101 1.6377,-1.2636 0.4726,-0.9517 0.1191,-2.1199 -0.6783,-2.7762 -1.3726,-1.1731 -3.1694,-1.7961 -4.969,-1.8088 z m -0.0248,0.7226 c 0.4468,0.0013 0.893,0.0432 1.3297,0.1253 1.0783,0.2475 2.1594,0.8287 2.7652,1.7797 0.427,0.8724 0.2771,2.3045 -0.2808,2.7936 -0.1067,0.0936 -0.176,0.1619 -0.2169,0.2128 -1.2729,-0.5784 -2.6941,-0.8625 -4.0575,-1.114 -1.0225,-0.2332 -2.1481,-0.4013 -2.9694,-1.1048 -0.7016,-0.6393 -0.1847,-1.765 0.5635,-2.1091 0.897,-0.3929 1.8832,-0.5864 2.8662,-0.5835 z m 4.3082,1.2622 c 0,0 1.028,0.6658 0.9706,1.6765 -0.0673,1.1868 -0.9706,1.5882 -0.9706,1.5882 0,0 0.473,-0.7098 0.4743,-1.5441 0.0017,-1.084 -0.4743,-1.7206 -0.4743,-1.7206 z m -9.3705,0.8581 c 0.008,-7e-4 0.0174,0.002 0.0276,0.0112 0.0147,0.0134 5e-4,0.0482 5e-4,0.0482 l -0.8259,2.2592 v -0.8824 l 0.7756,-1.4261 c 0,0 0.0089,-0.0092 0.0222,-0.0101 z m 0.5963,0.6316 c 0.006,-4e-4 0.0127,10e-4 0.02,0.0056 0.016,0.0107 0.006,0.0369 0.006,0.0369 l -0.973,2.5797 -0.2202,-0.3441 1.1448,-2.2673 c 0,0 0.0092,-0.0097 0.0224,-0.0108 z m 0.5873,0.7072 c 0.006,-3e-4 0.0129,0.001 0.0202,0.0057 0.016,0.0107 0.006,0.0369 0.006,0.0369 l -0.9178,2.4531 -0.2754,-0.2175 1.1448,-2.2673 c 0,0 0.009,-0.0098 0.0222,-0.0109 z m 0.6177,0.5295 c 0.006,-4e-4 0.0129,0.001 0.0202,0.0056 0.016,0.0107 0.006,0.0369 0.006,0.0369 l -0.8572,2.4255 -0.3195,-0.2396 1.1283,-2.2176 c 0,0 0.009,-0.0097 0.0222,-0.0108 z m 0.7059,0.3529 c 0.006,-3e-4 0.0129,10e-4 0.0201,0.0057 0.0161,0.0107 0.0061,0.0369 0.0061,0.0369 l -0.849,2.4558 -0.3719,-0.2092 1.1725,-2.2783 c 0,0 0.009,-0.0098 0.0222,-0.0109 z m 0.8582,0.1331 c 0.0051,2e-4 0.0106,0.002 0.0164,0.0058 0.016,0.0107 0.006,0.0369 0.006,0.0369 l -0.988,2.6568 -0.3348,-0.1593 1.2744,-2.5292 c 0,0 0.0108,-0.0117 0.026,-0.011 z m 0.7594,0.2579 c 0.005,3e-4 0.0107,0.002 0.0165,0.0059 0.016,0.0107 0.006,0.0369 0.006,0.0369 l -0.977,2.7007 -0.3996,-0.1532 1.3282,-2.5792 c 0,0 0.0106,-0.0118 0.0259,-0.0111 z m 0.7731,0.2253 c 0.006,-3e-4 0.0127,0.001 0.0199,0.0057 0.0161,0.0107 0.0061,0.0369 0.0061,0.0369 l -0.9758,2.7065 -0.3884,-0.1235 1.3158,-2.6147 c 0,0 0.0091,-0.0098 0.0224,-0.0109 z m 0.7941,0.2426 c 0.006,-3e-4 0.0127,0.001 0.02,0.0057 0.016,0.0107 0.006,0.0369 0.006,0.0369 l -0.9675,2.6707 -0.394,-0.1098 1.3131,-2.5926 c 0,0 0.0092,-0.0098 0.0224,-0.0109 z m 0.8162,0.0993 c 0.006,-3e-4 0.0127,0.001 0.02,0.0057 0.016,0.0107 0.006,0.0369 0.006,0.0369 l -0.951,2.7286 -0.4849,-0.096 1.3875,-2.6643 c 0,0 0.0092,-0.0098 0.0224,-0.0109 z m 0.8162,0.1544 c 0.006,-3e-4 0.0127,10e-4 0.02,0.0057 0.016,0.0107 0.006,0.0369 0.006,0.0369 l -0.9841,2.6845 -0.4132,-0.0574 1.3489,-2.6588 c 0,0 0.0092,-0.0098 0.0224,-0.0109 z m 0.7417,0.2992 c 0.006,-3e-4 0.0129,0.001 0.0202,0.0057 0.016,0.0107 0.006,0.0369 0.006,0.0369 l -0.9013,2.5303 -0.4188,-0.0576 1.2717,-2.5044 c 0,0 0.009,-0.0098 0.0222,-0.0109 z m 0.7941,0.2647 c 0.0061,-3e-4 0.0129,10e-4 0.0202,0.0057 0.016,0.0107 0.006,0.0369 0.006,0.0369 l -0.8871,2.4784 -0.3975,-0.114 1.2362,-2.3961 c 0,0 0.009,-0.0098 0.0222,-0.0109 z m 0.6187,0.4662 c 0.006,-3e-4 0.0128,0.001 0.02,0.0057 0.0161,0.0107 0.0062,0.0369 0.0062,0.0369 l -0.8518,2.2654 -0.303,-0.1539 1.1062,-2.1432 c 0,0 0.0092,-0.0098 0.0224,-0.0109 z m 0.6167,0.6809 c 0.006,-3e-4 0.0129,0.001 0.0201,0.0057 0.0161,0.0107 0.0061,0.0369 0.0061,0.0369 l -0.6923,2.0222 -0.3218,-0.2156 0.9657,-1.8383 c 0,0 0.0089,-0.0098 0.0222,-0.0109 z m -8.7134,0.2197 c 0.0159,0.009 0.0324,0.0181 0.0482,0.0271 1.1705,0.5954 2.4612,0.956 3.7513,1.2 1.3349,0.273 2.8589,0.224 3.9207,1.2079 0.6843,0.5928 0.3707,1.7981 -0.4135,2.1554 -1.3397,0.7124 -2.9129,0.5924 -4.3823,0.6189 -0.6962,-0.0685 -1.4157,-0.0981 -2.0803,-0.3268 -1.0406,-0.488 -2.0307,-1.3705 -2.2854,-2.532 -0.071,-0.9895 0.6877,-1.8075 1.4413,-2.3505 z m -0.6975,0.1532 c 0,0 -0.6359,0.5879 -0.8438,0.9596 -0.1952,0.3492 -0.3142,0.8241 -0.3529,1.1471 -0.0509,0.4252 0.1529,0.8566 0.3529,1.2353 0.2331,0.4412 0.957,1.1511 0.957,1.1511 0,0 -0.9275,-0.5447 -1.2217,-0.9746 -0.2784,-0.4069 -0.451,-0.603 -0.4411,-1.4118 0.0053,-0.4372 0.1808,-0.8841 0.4411,-1.2353 0.4013,-0.5414 1.1085,-0.8714 1.1085,-0.8714 z m 9.9403,0.5095 c 0.006,-4e-4 0.0129,0.001 0.0202,0.0057 0.016,0.0106 0.006,0.0369 0.006,0.0369 l -0.6421,1.8739 -0.2534,-0.4215 0.8471,-1.4842 c 0,0 0.0089,-0.0097 0.0222,-0.0108 z m 0.4146,0.9349 c 0.0051,2e-4 0.0106,0.0017 0.0164,0.0057 0.0161,0.0106 0.006,0.037 0.006,0.037 l -0.8627,2.2213 -0.0107,-0.6254 0.825,-1.6276 c 0,0 0.0109,-0.0117 0.026,-0.011 z"
       fill="#C9A94C"
       id="path8"
       style="fill:#000000;fill-opacity:1" />
  </g>
  <defs
     id="defs8">
    <clipPath
       id="clip0_80_264">
      <rect
         width="48"
         height="48"
         fill="#ffffff"
         id="rect8"
         x="0"
         y="0" />
    </clipPath>
  </defs>
</svg>
