<svg width="544" height="408" viewBox="0 0 544 408" fill="none" xmlns="http://www.w3.org/2000/svg">
<g clip-path="url(#clip0_82_71)">
<path d="M271.251 2.52631C271.2 5.55188 269.866 8.65698 273.744 8.7356L272.971 33.3927L270.871 38.2266L272.499 43.4475L271.732 70.7015L268.811 70.6526L268.378 77.1374L277.021 76.1504L280.383 77.4421L285.571 77.7502L285.68 71.2599L283.084 71.2164L284.212 42.67C288.775 43.2603 286.301 53.5897 286.244 56.9867C286.158 62.1423 283.926 72.6906 288.531 76.2943C291.579 78.6796 296.512 78.2581 300.169 78.3194L300.278 71.8292C296.067 71.7089 297.441 66.7837 297.493 63.6674C297.604 57.0515 300.744 44.7993 294.64 40.2479C296.322 38.7963 297.687 37.3061 298.32 35.1159C299.104 32.402 298.721 29.1639 298.768 26.3591C298.876 19.8905 301.728 10.0693 295.544 5.60193C292.442 3.36169 287.691 2.3988 283.906 2.83234C282.494 2.99403 281.032 3.99184 279.667 3.96679C278.529 3.946 277.54 2.9982 276.441 2.74004C274.803 2.35502 272.927 2.55439 271.251 2.52631ZM230.638 4.7672L230.854 11.2629L233.78 10.9874L234.719 32.4271L233.142 39.8666L235.366 46.3959L236.327 72.0559L233.731 72.0124L233.947 78.5081L241.952 76.8504L245.642 77.9572L252.786 77.7946L258.952 77.0631L258.802 69.1863L257.85 46.7726L253.738 48.5422L249.396 47.6047L250.118 61.8995L250.622 71.3215L247.696 71.597L246.748 52.4294L246.233 42.6826L254.032 42.1641L253.811 35.9929L246.017 36.1869L245.334 20.5944L244.824 10.5231L247.745 10.572L248.695 31.3627L252.932 30.3161L257.132 31.5041L255.977 3.56865L242.98 4.37198L239.06 5.80986L235.83 4.88632L230.638 4.7672ZM284.656 35.5362L284.781 28.0723L285.405 10.2295C288.332 10.4409 287.963 12.7722 287.919 15.1407C287.825 20.315 287.423 25.5139 287.334 30.712C287.294 33.0335 287.36 35.1478 284.656 35.5362ZM349.568 55.4511L345.333 56.354L342.142 53.0545L333.854 82.7792C339.938 83.7787 346.436 89.1226 352.618 86.4927C357.134 84.5714 358.134 79.3088 359.35 75.0914C361.849 66.4481 361.735 59.2803 360.556 50.4416C360.328 48.7365 361.239 47.2278 361.017 45.5803C360.809 44.0573 359.497 42.7323 358.894 41.3248L363.772 40.7573C364.312 42.4264 365.424 43.292 366.963 44.0569C368.019 37.6432 370.622 31.2417 372.428 24.9967C372.948 23.199 374.828 19.4696 374.291 17.6526C373.802 15.9928 368.908 15.5459 367.45 14.9976C360.573 12.4098 353.3 10.7821 350.231 19.7557C348.968 23.4451 347.3 27.8077 347.057 31.7129C346.796 35.9202 348.06 39.9042 348.201 44.067C348.246 45.4172 347.363 46.6057 347.51 47.9507C347.694 49.6382 349.347 50.6248 349.82 52.2093C350.865 55.7141 350.556 60.0258 349.938 63.5725C349.238 67.6099 347.919 71.6142 346.729 75.5291C346.439 76.4828 345.892 79.0432 344.36 78.3537C342.58 77.5529 344.345 73.8545 344.736 72.5743C346.398 67.1296 349.009 61.1162 349.568 55.4511ZM179.174 15.2659L180.693 21.4589L183.625 20.8588L188.969 42.3723L188.835 49.1819L191.913 54.1074L198.542 79.8624L195.935 80.4679L197.454 86.6609C200.54 86.076 202.541 84.2035 205.3 83.3359C206.547 82.9436 208.178 83.6931 209.516 83.5574C213.51 83.152 218.642 81.2664 221.089 77.9678C222.665 75.8425 222.998 73.0791 222.502 70.5259C221.154 63.5909 219.634 54.6605 216.438 48.3511C215.179 45.864 213.226 44.081 210.514 43.3828C215.638 36.8905 211.708 28.0717 209.822 20.9734C208.774 17.031 207.804 13.3016 203.58 11.6367C199.77 10.1348 194.943 10.6395 191.234 12.2835C190.059 12.8046 189.163 13.9397 187.954 14.3342C186.845 14.6964 185.537 14.0529 184.387 14.0891C182.628 14.1447 180.846 14.7619 179.174 15.2659ZM200.476 41.9161L194.713 17.7987C197.793 17.8867 197.932 20.1499 198.619 22.7333C199.83 27.2835 200.888 31.8746 202.097 36.425C202.703 38.7061 203.508 41.3496 200.476 41.9161ZM359.245 39.7078L358.596 39.6973C358.577 34.525 359.623 30.1159 361.064 25.1314C361.243 24.5056 362.408 19.8495 363.757 21.4961C364.613 22.5404 363.277 25.3567 362.944 26.4613C361.645 30.7584 359.92 35.2714 359.245 39.7078ZM394.251 23.4153L391.557 29.213L393.812 30.2247L384.091 50.5116L380.152 54.6706L379.81 59.2045L376.217 66.9348L367.57 85.2924L364.666 84.2699L362.296 90.073L367.134 91.9463L369.993 92.1878L372.617 94.8556L378.075 97.653L383.198 98.6029L390.312 103.527L393.011 97.4047L390.431 96.3876L402.622 71.274L406.306 67.4055L407.389 61.2899L416.668 41.6444L419.572 42.6669L422.266 36.8692C419.552 35.3633 416.967 34.4195 413.856 35.1052C412.251 30.7461 405.09 27.4859 400.654 28.7164C399.336 25.8196 397.055 24.6215 394.251 23.4153ZM142.27 28.6059C139.154 27.4925 136.839 28.6672 133.816 29.4381L135.66 35.6364L138.597 34.7118L146.585 57.2435L146.889 63.4112L150.204 67.3672L155.046 80.7569L159.366 93.1643L156.754 94.0943C157.196 95.4771 157.777 98.8435 159.095 99.6089C161.253 100.862 165.36 97.2797 166.143 95.5501C169.386 96.2085 171.878 95.5161 174.926 94.3989L173.077 88.5249L173.402 88.5325C175.686 93.0812 180.736 92.2719 184.724 90.8569C185.696 90.5114 187.708 90.2057 188.282 89.2655C189.097 87.9286 187.159 84.6523 186.799 83.2388C182.36 84.5851 181.924 79.6913 180.731 76.3204C178.386 69.6935 176.715 58.6367 169.402 56.005C173.465 49.2723 167.615 39.8301 165.178 33.2118C164.113 30.3193 163.435 27.1787 160.828 25.2308C155.902 21.5504 145.272 23.0519 142.27 28.6059ZM406.689 36.61L396.265 58.1839C392.833 56.6605 394.996 54.3021 396.186 51.6904C398.706 46.1702 401.424 40.7082 404.115 35.2685L406.689 36.61ZM158.374 55.4955C154.745 48.397 151.659 39.3787 149.685 31.6537C152.61 30.85 153.126 33.2984 153.942 35.6203C155.588 40.3096 157.238 45.0128 158.992 49.663C159.872 51.9961 160.945 54.013 158.374 55.4955ZM439.954 46.7236C432.953 47.6862 430.648 54.2416 427.402 59.6795C425.458 62.9362 423.75 66.6463 421.38 69.6108C420.312 70.944 418.349 71.3146 417.547 72.8375C416.86 74.1461 417.513 75.658 417.003 77.0339C415.69 80.593 413.016 84.0591 411.082 87.322C408.483 91.7055 403.924 97.0185 403.092 102.12C401.746 110.373 411.449 117.292 418.982 116.612C425.777 116 428.215 109.015 431.254 103.89C433.8 99.5976 436.054 94.6426 439.149 90.7282C440.153 89.4566 441.922 89.1208 442.807 87.7927C443.663 86.5073 443.032 85.0341 443.438 83.6444C444.158 81.197 446.091 78.7617 447.381 76.5692C450.097 71.9573 454.861 66.4507 455.836 61.1299C457.322 53.0604 447.418 45.6979 439.954 46.7236ZM120.764 111.019C121.23 112.37 122.466 115.918 123.99 116.327C126.75 117.067 128.214 112.748 130.196 111.927C133.304 110.638 136.269 110.394 139.309 108.424C140.715 107.513 141.544 105.38 143.011 104.771C145.343 103.804 147.986 103.527 150.447 102.428L147.624 96.5377C146.957 96.8003 145.923 97.473 145.183 97.2547C144.122 96.9414 143.331 95.0319 142.748 94.1837C140.584 91.0332 138.448 87.8585 136.35 84.6629C134.075 81.1983 131.246 77.8458 129.352 74.1583C128.629 72.7511 128.951 70.9049 128.078 69.6275C127.15 68.2697 125.328 67.8928 124.273 66.593C118.282 59.2075 112.13 50.0368 107.643 41.6586C105.317 42.2698 104.91 44.7965 102.964 45.6043C101.617 46.1628 98.7201 45.306 98.043 47.1439C97.6686 48.1601 98.6295 49.6859 99.0049 50.6027L102.613 59.4276C104.719 64.601 107.334 69.7843 108.996 75.1156C109.501 76.7357 108.698 78.4437 109.281 79.9765C109.869 81.5227 111.604 82.213 112.434 83.6178C114.071 86.3868 115.031 89.7902 116.249 92.7658L120.792 103.879C121.404 105.364 122.742 107.454 122.759 109.075C122.771 110.18 121.602 110.633 120.764 111.019ZM209.63 76.8021L206.058 63.1088L202.634 48.7688C205.86 48.8611 205.934 51.3622 206.628 54.0294C208.039 59.4581 209.365 64.9086 210.806 70.3297C211.467 72.8159 212.51 75.5506 209.63 76.8021ZM444.677 55.0542C446.352 55.0825 445.609 57.2076 445.179 58.0272C443.677 60.8758 441.924 63.6205 440.274 66.3848C433.895 77.069 427.632 87.824 421.282 98.527C419.762 101.092 418.283 103.687 416.744 106.241C416.227 107.104 415.478 108.605 414.277 108.553C412.545 108.478 413.48 106.352 413.932 105.545C415.565 102.617 417.327 99.75 419.037 96.8664C425.324 86.2708 431.53 75.6291 437.836 65.0455L442.422 57.3321C442.903 56.5274 443.548 55.0353 444.677 55.0542ZM380.453 91.3507L377.873 90.3336L390.332 63.6002C394.444 64.8153 391.459 68.3755 390.135 71.0628C386.835 77.7625 383.434 84.504 380.453 91.3507ZM173.077 88.5249L170.47 89.13L164.555 73.1252L160.862 62.0268C164.264 61.5634 164.639 65.4179 165.57 67.9486C168.054 74.6943 171.222 81.5973 173.077 88.5249ZM476.614 67.3184L472.952 72.7753L474.883 73.7815C473.216 76.9953 470.545 79.8626 468.377 82.7614C465.551 86.5424 462.964 90.7946 459.767 94.2678C458.772 95.3486 457.149 95.5422 456.238 96.6438C454.767 98.4228 454.364 101.52 452.823 103.6C448.037 110.063 441.585 116.601 438.014 123.802L435.439 122.46L433.74 124.705C430.055 129.593 437.021 129.582 439.704 131.601C442.095 133.401 442.814 136.209 445.898 137.568L449.236 132.105L447.305 131.099L464.577 107.692L464.901 107.7C465.986 109.02 467.501 109.84 469.074 110.491C479.442 114.783 484.162 105.635 489.539 98.3746C491.559 95.6497 494.847 92.5467 495.34 89.0583C496.146 83.3886 492.235 78.134 487.516 75.407C486.153 74.6188 484.33 74.7194 483.084 73.9123C482.037 73.2313 481.72 71.6409 480.93 70.6954C479.791 69.3256 478.135 68.2193 476.614 67.3184ZM88.8995 133.532C89.6384 134.764 91.4418 138.336 93.0677 138.36C95.8732 138.404 97.0749 134.41 98.5518 132.824C99.5085 131.796 101.344 131.981 102.569 131.355C105.6 129.808 108.706 126.869 110.231 123.827C114.12 116.073 105.471 108.852 101.231 103.226C99.2738 100.63 97.4065 97.6346 94.7268 95.723C92.5729 94.1858 90.5021 93.9574 87.9404 93.9145C89.0379 86.2624 84.7796 81.7017 80.3214 75.9335C76.6581 71.1932 73.8922 66.9698 67.2811 67.6595C63.8222 68.0207 60.1044 70.4075 57.8481 72.9613C57.0606 73.8524 56.7344 75.1899 55.8782 75.9782C53.9514 77.7527 49.9077 77.001 48.6279 80.0406C48.0948 81.3067 50.5757 84.3979 51.7508 84.7579C52.7737 85.0708 53.5676 84.027 54.5658 84.7427C55.7983 85.6249 56.7273 87.3485 57.6474 88.5387C61.2138 93.1537 65.3247 97.7183 68.3936 102.677C69.3297 104.189 69.0067 106.125 70.0419 107.538C71.0717 108.944 73.0241 109.142 74.2624 110.348C77.1433 113.155 79.3946 116.925 81.8534 120.106L87.8886 127.998C88.6314 128.959 90.1822 130.344 90.3061 131.608C90.3987 132.552 89.5527 133.062 88.8995 133.532ZM468.888 102.246C471.858 94.8923 479.226 88.7268 483.509 82.041C486.432 83.5111 484.51 85.6314 483.092 87.5523C480.159 91.5234 477.162 95.4486 474.223 99.414C472.738 101.417 471.556 103.577 468.888 102.246ZM78.4859 96.3526L78.1614 96.3451C73.1143 90.674 66.5715 83.4334 63.2355 76.6186C66.1448 75.5238 67.2036 77.4424 68.898 79.6349L77.2208 90.4864C78.7916 92.5198 80.4544 94.0783 78.4859 96.3526ZM121.886 82.7952L126.623 90.6651L124.989 91.287L121.886 82.7952ZM130.105 95.9172L134.848 103.463L131.251 105.025L128.142 96.8581L130.105 95.9172ZM100.404 124.958L93.6605 116.73L82.6121 101.938C85.625 100.455 86.8494 103.109 88.5288 105.283L98.3766 118.108C100.133 120.38 102.175 122.148 100.404 124.958Z" fill="#C9A94C"/>
</g>
<path d="M123.64 389.501V388.541H126.68V366.333H123.64V365.373H134.872V366.333H131.736V376.573H140.792V366.333H137.656V365.373H148.952V366.333H145.848V388.541H148.952V389.501H137.656V388.541H140.792V377.533H131.736V388.541H134.872V389.501H123.64ZM165.214 389.021L159.358 372.989H159.23L159.038 371.805L161.214 365.085H162.046L170.75 389.021H165.214ZM148.957 389.501V388.541H156.766V389.501H148.957ZM154.686 382.973V382.045H165.694V382.973H154.686ZM161.694 389.501V388.541H172.798V389.501H161.694ZM151.774 389.021L161.214 365.085H162.046L160.382 370.173L152.83 389.021H151.774ZM175.993 389.021V365.373H181.049V389.021H175.993ZM172.953 389.501V388.541H184.185V389.501H172.953ZM172.953 366.333V365.373H184.185V366.333H172.953ZM193.2 376.957V375.997H195.856C196.88 375.997 197.712 375.869 198.352 375.613C198.992 375.357 199.451 374.877 199.728 374.173C200.027 373.469 200.176 372.445 200.176 371.101C200.176 369.735 200.038 368.722 199.76 368.061C199.483 367.378 199.067 366.919 198.512 366.685C197.979 366.45 197.307 366.333 196.496 366.333H185.296V365.373H198.096C199.632 365.373 201.008 365.597 202.224 366.045C203.462 366.471 204.443 367.09 205.168 367.901C205.894 368.711 206.256 369.703 206.256 370.877C206.256 372.178 205.84 373.287 205.008 374.205C204.176 375.101 202.982 375.783 201.424 376.253C199.888 376.722 198.032 376.957 195.856 376.957H193.2ZM185.296 389.501V388.541H197.168V389.501H185.296ZM188.336 389.021V365.373H193.392V389.021H188.336ZM205.072 389.501C204.006 389.501 203.046 389.298 202.192 388.893C201.339 388.487 200.646 387.922 200.112 387.197C199.6 386.45 199.323 385.586 199.28 384.605L199.12 381.117C199.056 379.687 198.64 378.642 197.872 377.981C197.104 377.298 196.123 376.957 194.928 376.957L197.36 376.765H199.504V376.893C200.464 377.106 201.392 377.522 202.288 378.141C203.206 378.759 203.952 379.506 204.528 380.381C205.104 381.255 205.392 382.205 205.392 383.229V384.669C205.392 386.141 205.552 387.143 205.872 387.677C206.192 388.21 206.768 388.477 207.6 388.477H208.816V389.501H205.072ZM221.028 389.917C219.342 389.917 217.796 389.586 216.388 388.925C214.98 388.263 213.753 387.367 212.708 386.237C211.684 385.085 210.884 383.773 210.308 382.301C209.732 380.807 209.444 379.239 209.444 377.597C209.444 375.954 209.721 374.386 210.276 372.893C210.852 371.399 211.662 370.066 212.708 368.893C213.753 367.719 214.99 366.791 216.42 366.109C217.849 365.426 219.428 365.085 221.156 365.085C222.265 365.085 223.214 365.245 224.004 365.565C224.814 365.863 225.646 366.333 226.5 366.973L227.908 365.373H228.708V372.765H227.748C227.513 371.527 227.118 370.418 226.564 369.437C226.03 368.434 225.305 367.645 224.388 367.069C223.492 366.493 222.372 366.205 221.028 366.205C220.238 366.205 219.502 366.354 218.82 366.653C218.158 366.951 217.582 367.517 217.092 368.349C216.601 369.159 216.217 370.343 215.94 371.901C215.662 373.437 215.524 375.453 215.524 377.949C215.524 380.146 215.63 381.959 215.844 383.389C216.078 384.797 216.43 385.895 216.9 386.685C217.369 387.474 217.945 388.029 218.628 388.349C219.332 388.647 220.142 388.797 221.06 388.797C222.51 388.797 223.716 388.509 224.676 387.933C225.657 387.357 226.425 386.599 226.98 385.661C227.556 384.701 227.961 383.666 228.196 382.557H229.156V389.501H228.196L226.788 388.029C225.87 388.69 224.932 389.17 223.972 389.469C223.033 389.767 222.052 389.917 221.028 389.917ZM243.49 389.917C241.634 389.917 240.002 389.682 238.594 389.213C237.207 388.722 236.119 387.986 235.33 387.005C234.562 386.023 234.178 384.786 234.178 383.293V366.333H231.074V365.373H242.626V366.333H239.234V383.101C239.234 385.085 239.724 386.503 240.706 387.357C241.708 388.21 243.042 388.637 244.706 388.637C246.498 388.637 247.906 388.178 248.93 387.261C249.954 386.343 250.466 384.957 250.466 383.101V366.333H247.426V365.373H255.042V366.333H251.682V383.261C251.682 385.565 250.999 387.25 249.634 388.317C248.268 389.383 246.22 389.917 243.49 389.917ZM260.431 389.501V388.541H264.431V366.333H262.831C261.658 366.333 260.644 366.653 259.791 367.293C258.959 367.933 258.308 368.775 257.839 369.821C257.391 370.866 257.156 371.997 257.135 373.213H255.855V365.373H278.063V373.213H276.783C276.762 371.997 276.516 370.866 276.047 369.821C275.599 368.775 274.959 367.933 274.127 367.293C273.295 366.653 272.282 366.333 271.087 366.333H269.487V388.541H273.263V389.501H260.431ZM297.275 389.501L291.355 380.201C291.102 379.854 290.875 379.461 290.675 379.021C290.475 378.567 290.375 378.074 290.375 377.541C290.375 376.887 290.549 376.314 290.895 375.821C291.242 375.327 291.742 374.941 292.395 374.661C293.049 374.381 293.829 374.241 294.735 374.241C295.549 374.241 296.269 374.354 296.895 374.581C297.535 374.794 298.035 375.101 298.395 375.501C298.769 375.887 298.955 376.347 298.955 376.881C298.955 377.227 298.842 377.607 298.615 378.021C298.402 378.434 297.995 378.847 297.395 379.261C296.795 379.661 295.935 380.034 294.815 380.381L294.255 379.881C294.882 379.814 295.395 379.501 295.795 378.941C296.195 378.367 296.395 377.694 296.395 376.921C296.395 376.294 296.249 375.807 295.955 375.461C295.675 375.114 295.235 374.941 294.635 374.941C294.062 374.941 293.655 375.087 293.415 375.381C293.175 375.661 293.055 375.994 293.055 376.381C293.055 376.714 293.155 377.054 293.355 377.401C293.569 377.747 293.782 378.087 293.995 378.421L301.155 389.501H297.275ZM291.895 389.761C290.815 389.761 289.895 389.581 289.135 389.221C288.389 388.861 287.822 388.381 287.435 387.781C287.049 387.167 286.855 386.507 286.855 385.801C286.855 384.987 287.082 384.274 287.535 383.661C288.002 383.047 288.615 382.501 289.375 382.021C290.149 381.541 290.995 381.121 291.915 380.761L292.335 381.401C291.429 381.641 290.822 381.934 290.515 382.281C290.209 382.614 290.055 383.074 290.055 383.661C290.055 384.207 290.149 384.761 290.335 385.321C290.535 385.881 290.802 386.394 291.135 386.861C291.469 387.314 291.855 387.681 292.295 387.961C292.749 388.241 293.222 388.381 293.715 388.381C294.075 388.381 294.462 388.287 294.875 388.101C295.302 387.901 295.782 387.554 296.315 387.061L296.755 387.601C295.942 388.427 295.142 388.994 294.355 389.301C293.582 389.607 292.762 389.761 291.895 389.761ZM297.955 389.501V388.901H302.895V389.501H297.955ZM298.035 386.301L297.475 385.741C298.022 385.287 298.495 384.754 298.895 384.141C299.295 383.514 299.602 382.861 299.815 382.181C300.029 381.487 300.135 380.834 300.135 380.221H300.915C300.915 380.874 300.775 381.581 300.495 382.341C300.229 383.101 299.875 383.834 299.435 384.541C299.009 385.234 298.542 385.821 298.035 386.301ZM297.795 380.401V379.901H303.015V380.401H297.795ZM320.634 389.917C319.333 389.917 318.213 389.735 317.274 389.373C316.336 389.01 315.472 388.541 314.682 387.965L313.178 389.501H312.218V382.781H313.21C313.466 383.826 313.882 384.807 314.458 385.725C315.056 386.642 315.856 387.389 316.858 387.965C317.861 388.519 319.088 388.797 320.538 388.797C321.733 388.797 322.725 388.605 323.514 388.221C324.325 387.837 324.933 387.314 325.338 386.653C325.765 385.97 325.978 385.223 325.978 384.413C325.978 383.581 325.786 382.909 325.402 382.397C325.018 381.885 324.517 381.49 323.898 381.213C323.301 380.914 322.65 380.679 321.946 380.509C321.264 380.338 320.613 380.178 319.994 380.029C318.501 379.645 317.189 379.143 316.058 378.525C314.928 377.885 314.042 377.063 313.402 376.061C312.784 375.058 312.474 373.81 312.474 372.317C312.474 370.674 312.826 369.319 313.53 368.253C314.234 367.186 315.162 366.397 316.314 365.885C317.466 365.351 318.693 365.085 319.994 365.085C320.954 365.085 321.808 365.223 322.554 365.501C323.322 365.778 324.133 366.183 324.986 366.717L326.234 365.373H327.226V371.901H326.266C325.648 369.874 324.816 368.423 323.77 367.549C322.725 366.653 321.445 366.205 319.93 366.205C319.013 366.205 318.17 366.354 317.402 366.653C316.656 366.93 316.058 367.335 315.61 367.869C315.162 368.402 314.938 369.031 314.938 369.757C314.938 370.439 315.13 371.005 315.514 371.453C315.898 371.879 316.4 372.221 317.018 372.477C317.637 372.733 318.298 372.946 319.002 373.117C319.706 373.287 320.378 373.447 321.018 373.597C322.64 373.981 324.005 374.514 325.114 375.197C326.224 375.858 327.066 376.733 327.642 377.821C328.218 378.909 328.506 380.274 328.506 381.917C328.506 384.434 327.824 386.397 326.458 387.805C325.114 389.213 323.173 389.917 320.634 389.917ZM329.957 389.501V388.541H332.997V366.333H329.957V365.373H341.189V366.333H338.053V376.573H347.109V366.333H343.973V365.373H355.269V366.333H352.165V388.541H355.269V389.501H343.973V388.541H347.109V377.533H338.053V388.541H341.189V389.501H329.957ZM371.53 389.021L365.674 372.989H365.546L365.354 371.805L367.53 365.085H368.362L377.066 389.021H371.53ZM355.274 389.501V388.541H363.082V389.501H355.274ZM361.002 382.973V382.045H372.01V382.973H361.002ZM368.01 389.501V388.541H379.114V389.501H368.01ZM358.09 389.021L367.53 365.085H368.362L366.698 370.173L359.146 389.021H358.09ZM385.933 389.789L377.229 365.853H382.765L388.557 381.757H388.685L388.877 382.941L386.765 389.789H385.933ZM385.933 389.789L387.597 384.701L394.509 365.853H395.565L386.765 389.789H385.933ZM374.861 366.333V365.373H385.485V366.333H374.861ZM390.573 366.333V365.373H397.645V366.333H390.573ZM397.644 389.501V388.541H411.18C412.375 388.541 413.388 388.221 414.22 387.581C415.052 386.941 415.692 386.098 416.14 385.053C416.61 384.007 416.855 382.877 416.876 381.661H418.156V389.501H397.644ZM400.684 389.021V365.373H405.74V389.021H400.684ZM411.468 382.589C411.447 381.565 411.244 380.722 410.86 380.061C410.476 379.399 409.858 378.909 409.004 378.589C408.151 378.269 407.02 378.109 405.612 378.109V377.149C407.02 377.149 408.151 376.999 409.004 376.701C409.858 376.402 410.476 375.943 410.86 375.325C411.244 374.706 411.447 373.927 411.468 372.989H412.748V382.589H411.468ZM416.396 371.773C416.375 370.791 416.151 369.895 415.724 369.085C415.319 368.253 414.732 367.591 413.964 367.101C413.196 366.589 412.268 366.333 411.18 366.333H397.644V365.373H417.676V371.773H416.396Z" fill="#C9A94C"/>
<path d="M160.907 330.109C159.649 335.222 151.365 339.085 145.255 337.97C139.085 337.558 133.389 329.975 137.168 324.269C140.749 318.299 148.201 317.065 154.493 316.386C171.306 314.571 188.034 319.409 203.976 324.459C219.94 329.676 234.692 336.652 251.667 335.74C256.427 335.484 262.962 334.931 265.837 330.753C267.028 329.023 266.973 327.602 266.717 326.11C266.456 324.597 265.6 323.605 266.216 323.005C266.878 322.36 268.083 323.442 268.401 324.837C269.445 329.417 267.903 334.511 263.197 336.201C252.31 340.111 241.947 338.46 231.506 337.141C217.238 335.061 203.964 328.195 189.531 327.295C184.914 327.007 178.341 327.232 176.362 331.313C173.95 336.287 180.782 339.923 185.624 337.48C186.345 337.116 187.168 336.594 187.458 335.324C187.727 334.146 187.33 334.144 187.437 333.728C187.572 333.205 188.849 333.701 188.722 335.567C188.384 340.535 181.372 341.935 176.119 339.824C171.543 337.984 170.666 330.776 173.686 327.746C175.11 326.319 175.616 326.234 178.637 324.343C179.021 324.102 177.007 323.448 175.906 323.228C168.115 321.67 157.329 320.72 149.116 322.748C144.093 323.989 137.272 329.49 143.436 333.372C148.281 336.404 155.017 335.386 158.907 331.1C159.305 330.661 159.773 329.756 160.215 329.502C160.619 329.27 161.038 329.568 160.907 330.109Z" fill="#C9A94C"/>
<path d="M382.82 330.146C384.079 335.258 392.363 339.121 398.473 338.007C404.643 337.595 410.338 330.012 406.56 324.305C402.979 318.336 395.526 317.101 389.235 316.422C372.422 314.607 355.694 319.445 339.752 324.496C323.788 329.713 309.035 336.688 292.061 335.776C287.301 335.521 280.766 334.968 277.891 330.79C276.7 329.059 276.755 327.638 277.011 326.146C277.272 324.633 278.128 323.641 277.512 323.041C276.849 322.396 275.645 323.479 275.327 324.874C274.283 329.454 275.825 334.548 280.531 336.238C291.418 340.147 301.781 338.496 312.222 337.178C326.49 335.098 339.764 328.232 354.197 327.331C358.814 327.043 365.387 327.268 367.366 331.35C369.778 336.324 362.946 339.959 358.104 337.517C357.382 337.153 356.559 336.63 356.27 335.361C356.001 334.183 356.398 334.18 356.293 333.764C356.158 333.241 354.881 333.738 355.008 335.604C355.346 340.571 362.357 341.972 367.61 339.861C372.187 338.021 373.064 330.812 370.043 327.783C368.62 326.355 368.114 326.271 365.093 324.379C364.708 324.138 366.723 323.484 367.824 323.264C375.615 321.706 386.401 320.756 394.613 322.784C399.637 324.025 406.458 329.526 400.293 333.409C395.449 336.441 388.712 335.422 384.823 331.136C384.425 330.698 383.957 329.792 383.515 329.539C383.111 329.307 382.69 329.605 382.82 330.146Z" fill="#C9A94C"/>
<path d="M503.219 217.92L453.219 214.92C452.064 214.85 449.937 215.552 449.937 217.92C449.937 220.545 452.193 220.981 453.219 220.92L503.219 217.92Z" fill="#C9A94C"/>
<path d="M444.94 220.42C443.559 220.42 442.44 219.3 442.44 217.92C442.44 216.539 443.559 215.42 444.94 215.42C446.32 215.42 447.44 216.539 447.44 217.92C447.44 219.3 446.32 220.42 444.94 220.42Z" fill="#C9A94C"/>
<path d="M40.7812 217.857L90.7813 214.857C91.9362 214.788 94.0625 215.49 94.0625 217.857C94.0625 220.482 91.8067 220.918 90.7813 220.857L40.7812 217.857Z" fill="#C9A94C"/>
<path d="M99.0603 220.357C100.441 220.357 101.56 219.238 101.56 217.857C101.56 216.476 100.441 215.357 99.0603 215.357C97.6796 215.357 96.5603 216.476 96.5603 217.857C96.5603 219.238 97.6796 220.357 99.0603 220.357Z" fill="#C9A94C"/>
<path d="M193.236 138.363C185.256 138.307 177.271 139.31 169.566 141.412C153.719 146.029 137.018 152.49 126.525 165.892C119.135 176.334 115.935 190.672 120.457 202.925C124.698 214.791 134.743 221.381 145.282 227.285C145.282 227.285 140.463 228.067 135.229 230.763C116.621 240.347 114.079 264.217 126.555 276.81C138.73 289.1 153.478 292.186 168.428 295.099C188.774 299.063 210.375 299.031 230.592 293.425C243.961 288.713 258.099 281.694 264.656 268.357C274.332 251.14 268.035 228.948 254.596 215.621C249.716 211.223 244.356 207.635 238.678 204.646C246.524 202.916 253.868 197.732 257.238 190.326C262.594 179.54 258.588 166.3 249.551 158.863C233.994 145.567 213.631 138.507 193.236 138.363ZM192.955 146.552C198.019 146.567 203.075 147.042 208.025 147.972C220.245 150.777 232.498 157.364 239.363 168.142C244.203 178.029 242.504 194.259 236.182 199.802C234.972 200.863 234.186 201.637 233.723 202.214C219.298 195.659 203.191 192.439 187.738 189.589C176.151 186.946 163.394 185.041 154.086 177.068C146.135 169.823 151.993 157.065 160.473 153.166C170.638 148.713 181.815 146.52 192.955 146.552ZM241.781 160.857C241.781 160.857 253.431 168.402 252.781 179.857C252.018 193.307 241.781 197.857 241.781 197.857C241.781 197.857 247.141 189.813 247.156 180.357C247.175 168.072 241.781 160.857 241.781 160.857ZM135.584 170.582C135.674 170.574 135.781 170.604 135.896 170.709C136.063 170.861 135.902 171.256 135.902 171.256L126.543 196.859V186.859L135.332 170.697C135.332 170.697 135.433 170.592 135.584 170.582ZM142.342 177.74C142.41 177.736 142.486 177.751 142.568 177.804C142.75 177.925 142.637 178.222 142.637 178.222L131.609 207.458L129.113 203.558L142.088 177.863C142.088 177.863 142.192 177.752 142.342 177.74ZM148.998 185.755C149.066 185.752 149.144 185.767 149.227 185.82C149.408 185.941 149.295 186.238 149.295 186.238L138.893 214.039L135.772 211.574L148.746 185.878C148.746 185.878 148.848 185.768 148.998 185.755ZM155.998 191.755C156.066 191.752 156.144 191.767 156.227 191.82C156.408 191.941 156.295 192.238 156.295 192.238L146.58 219.726L142.959 217.011L155.746 191.878C155.746 191.878 155.848 191.768 155.998 191.755ZM163.998 195.755C164.066 195.752 164.144 195.767 164.227 195.82C164.408 195.941 164.295 196.238 164.295 196.238L154.674 224.07L150.459 221.699L163.746 195.879C163.746 195.879 163.848 195.768 163.998 195.755ZM173.725 197.263C173.782 197.266 173.844 197.286 173.91 197.33C174.092 197.451 173.979 197.748 173.979 197.748L162.781 227.857L158.986 226.052L173.43 197.388C173.43 197.388 173.552 197.255 173.725 197.263ZM182.33 200.187C182.388 200.19 182.452 200.21 182.518 200.254C182.699 200.375 182.586 200.672 182.586 200.672L171.514 231.279L166.984 229.543L182.037 200.312C182.037 200.312 182.158 200.179 182.33 200.187ZM191.092 202.74C191.16 202.736 191.236 202.751 191.318 202.804C191.5 202.925 191.387 203.222 191.387 203.222L180.328 233.896L175.926 232.496L190.838 202.863C190.838 202.863 190.942 202.752 191.092 202.74ZM200.092 205.49C200.16 205.486 200.236 205.501 200.318 205.554C200.5 205.675 200.387 205.972 200.387 205.972L189.422 236.24L184.957 234.996L199.838 205.613C199.838 205.613 199.942 205.502 200.092 205.49ZM209.342 206.615C209.41 206.611 209.486 206.626 209.568 206.679C209.75 206.8 209.637 207.097 209.637 207.097L198.859 238.021L193.363 236.933L209.088 206.738C209.088 206.738 209.192 206.627 209.342 206.615ZM218.592 208.365C218.66 208.361 218.736 208.376 218.818 208.429C219 208.55 218.887 208.847 218.887 208.847L207.734 239.271L203.051 238.621L218.338 208.488C218.338 208.488 218.442 208.377 218.592 208.365ZM226.998 211.755C227.066 211.752 227.144 211.767 227.227 211.82C227.408 211.941 227.295 212.238 227.295 212.238L217.08 240.914L212.334 240.262L226.746 211.879C226.746 211.879 226.848 211.768 226.998 211.755ZM235.998 214.755C236.066 214.752 236.144 214.767 236.227 214.82C236.408 214.941 236.295 215.238 236.295 215.238L226.24 243.326L221.736 242.035L235.746 214.878C235.746 214.878 235.848 214.768 235.998 214.755ZM243.01 220.039C243.078 220.035 243.154 220.05 243.236 220.103C243.418 220.224 243.307 220.521 243.307 220.521L233.652 246.195L230.219 244.451L242.756 220.162C242.756 220.162 242.86 220.051 243.01 220.039ZM249.998 227.755C250.066 227.752 250.144 227.767 250.227 227.82C250.408 227.941 250.295 228.238 250.295 228.238L242.449 251.156L238.803 248.713L249.746 227.879C249.746 227.879 249.848 227.768 249.998 227.755ZM151.248 230.246C151.428 230.347 151.616 230.451 151.795 230.552C165.06 237.3 179.688 241.387 194.309 244.152C209.437 247.247 226.709 246.691 238.742 257.841C246.498 264.559 242.943 278.219 234.057 282.269C218.873 290.343 201.044 288.983 184.391 289.283C176.501 288.506 168.347 288.171 160.814 285.58C149.022 280.049 137.801 270.047 134.914 256.884C134.109 245.67 142.708 236.4 151.248 230.246ZM143.344 231.982C143.344 231.982 136.137 238.644 133.781 242.857C131.568 246.814 130.219 252.197 129.781 255.857C129.204 260.676 131.514 265.566 133.781 269.857C136.422 274.857 144.627 282.902 144.627 282.902C144.627 282.902 134.116 276.729 130.781 271.857C127.625 267.246 125.669 265.023 125.781 255.857C125.842 250.902 127.83 245.838 130.781 241.857C135.329 235.722 143.344 231.982 143.344 231.982ZM255.998 237.755C256.066 237.752 256.144 237.767 256.227 237.82C256.409 237.941 256.295 238.238 256.295 238.238L249.018 259.476L246.147 254.699L255.746 237.879C255.746 237.879 255.848 237.768 255.998 237.755ZM260.697 248.351C260.755 248.354 260.817 248.37 260.883 248.415C261.065 248.536 260.951 248.835 260.951 248.835L251.174 274.009L251.053 266.921L260.403 248.476C260.403 248.476 260.525 248.343 260.697 248.351Z" fill="#C9A94C"/>
<path d="M349.313 138.378C341.333 138.322 333.348 139.325 325.643 141.427C309.796 146.044 293.095 152.506 282.602 165.908C275.212 176.35 272.012 190.687 276.534 202.941C280.775 214.806 290.82 221.397 301.359 227.301C301.359 227.301 296.54 228.082 291.305 230.779C272.698 240.363 270.156 264.232 282.632 276.825C294.807 289.115 309.555 292.202 324.505 295.115C344.851 299.079 366.452 299.047 386.669 293.441C400.038 288.729 414.176 281.709 420.733 268.372C430.409 251.155 424.111 228.964 410.673 215.636C405.793 211.239 400.433 207.65 394.755 204.661C402.601 202.931 409.945 197.747 413.315 190.341C418.671 179.555 414.665 166.316 405.628 158.878C390.071 145.583 369.708 138.522 349.313 138.378ZM349.032 146.568C354.096 146.583 359.152 147.058 364.102 147.988C376.322 150.792 388.575 157.379 395.44 168.157C400.28 178.044 398.581 194.274 392.259 199.818C391.049 200.879 390.263 201.653 389.8 202.23C375.375 195.674 359.268 192.454 343.815 189.605C332.228 186.961 319.471 185.056 310.163 177.083C302.212 169.839 308.07 157.08 316.55 153.181C326.715 148.728 337.892 146.535 349.032 146.568ZM397.858 160.872C397.858 160.872 409.508 168.418 408.858 179.872C408.095 193.323 397.858 197.872 397.858 197.872C397.858 197.872 403.218 189.828 403.233 180.372C403.252 168.087 397.858 160.872 397.858 160.872ZM291.661 170.597C291.751 170.589 291.859 170.62 291.974 170.724C292.14 170.876 291.977 171.271 291.977 171.271L282.618 196.874V186.874L291.407 170.712C291.407 170.712 291.51 170.608 291.661 170.597ZM298.419 177.755C298.487 177.751 298.563 177.766 298.645 177.819C298.827 177.94 298.714 178.237 298.714 178.237L287.686 207.474L285.19 203.573L298.165 177.878C298.165 177.878 298.269 177.768 298.419 177.755ZM305.075 185.771C305.143 185.767 305.221 185.782 305.304 185.835C305.486 185.956 305.372 186.253 305.372 186.253L294.97 214.054L291.849 211.589L304.823 185.894C304.823 185.894 304.925 185.783 305.075 185.771ZM312.075 191.771C312.143 191.767 312.221 191.782 312.304 191.835C312.486 191.956 312.372 192.253 312.372 192.253L302.657 219.741L299.036 217.026L311.823 191.894C311.823 191.894 311.925 191.783 312.075 191.771ZM320.075 195.771C320.143 195.767 320.221 195.782 320.304 195.835C320.486 195.956 320.372 196.253 320.372 196.253L310.751 224.085L306.536 221.714L319.823 195.894C319.823 195.894 319.925 195.783 320.075 195.771ZM329.802 197.279C329.859 197.281 329.921 197.301 329.987 197.345C330.169 197.466 330.056 197.763 330.056 197.763L318.858 227.872L315.063 226.068L329.507 197.404C329.507 197.404 329.63 197.271 329.802 197.279ZM338.407 200.202C338.465 200.205 338.529 200.225 338.595 200.269C338.776 200.39 338.663 200.687 338.663 200.687L327.591 231.294L323.061 229.558L338.114 200.328C338.114 200.328 338.235 200.194 338.407 200.202ZM347.169 202.755C347.237 202.751 347.313 202.766 347.395 202.82C347.577 202.941 347.464 203.238 347.464 203.238L336.405 233.912L332.003 232.511L346.915 202.878C346.915 202.878 347.019 202.768 347.169 202.755ZM356.169 205.505C356.237 205.501 356.313 205.517 356.395 205.569C356.577 205.69 356.464 205.987 356.464 205.987L345.499 236.255L341.034 235.011L355.915 205.628C355.915 205.628 356.019 205.518 356.169 205.505ZM365.419 206.63C365.487 206.626 365.563 206.641 365.645 206.695C365.827 206.816 365.714 207.113 365.714 207.113L354.936 238.037L349.44 236.949L365.165 206.753C365.165 206.753 365.269 206.643 365.419 206.63ZM374.669 208.38C374.737 208.376 374.813 208.391 374.895 208.445C375.077 208.566 374.964 208.863 374.964 208.863L363.811 239.287L359.128 238.636L374.415 208.503C374.415 208.503 374.519 208.393 374.669 208.38ZM383.075 211.771C383.143 211.767 383.221 211.782 383.304 211.835C383.485 211.956 383.372 212.253 383.372 212.253L373.157 240.929L368.411 240.277L382.823 211.894C382.823 211.894 382.925 211.783 383.075 211.771ZM392.075 214.771C392.143 214.767 392.221 214.782 392.304 214.835C392.485 214.956 392.372 215.253 392.372 215.253L382.317 243.341L377.814 242.05L391.823 214.894C391.823 214.894 391.925 214.783 392.075 214.771ZM399.087 220.054C399.155 220.05 399.231 220.065 399.313 220.119C399.495 220.24 399.383 220.537 399.383 220.537L389.729 246.21L386.296 244.466L398.833 220.177C398.833 220.177 398.937 220.066 399.087 220.054ZM406.075 227.771C406.143 227.767 406.221 227.782 406.304 227.835C406.485 227.956 406.372 228.253 406.372 228.253L398.526 251.171L394.88 248.728L405.823 227.894C405.823 227.894 405.925 227.783 406.075 227.771ZM307.325 230.261C307.505 230.363 307.692 230.466 307.872 230.568C321.137 237.315 335.765 241.403 350.386 244.167C365.514 247.262 382.786 246.706 394.819 257.857C402.575 264.575 399.02 278.234 390.134 282.284C374.95 290.358 357.121 288.998 340.468 289.298C332.578 288.521 324.424 288.187 316.891 285.595C305.099 280.065 293.878 270.062 290.991 256.9C290.186 245.685 298.785 236.415 307.325 230.261ZM299.421 231.997C299.421 231.997 292.214 238.659 289.858 242.872C287.645 246.829 286.296 252.212 285.858 255.872C285.281 260.691 287.591 265.581 289.858 269.872C292.499 274.872 300.704 282.917 300.704 282.917C300.704 282.917 290.192 276.744 286.858 271.872C283.702 267.261 281.746 265.039 281.858 255.872C281.919 250.917 283.907 245.853 286.858 241.872C291.406 235.737 299.421 231.997 299.421 231.997ZM412.075 237.771C412.143 237.767 412.221 237.782 412.304 237.835C412.486 237.956 412.372 238.253 412.372 238.253L405.095 259.492L402.224 254.714L411.823 237.894C411.823 237.894 411.925 237.783 412.075 237.771ZM416.774 248.367C416.832 248.369 416.894 248.385 416.96 248.431C417.142 248.552 417.028 248.851 417.028 248.851L407.251 274.025L407.13 266.937L416.48 248.491C416.48 248.491 416.602 248.359 416.774 248.367Z" fill="#C9A94C"/>
<defs>
<clipPath id="clip0_82_71">
<rect width="446.892" height="135.861" fill="white" transform="translate(48.5539 2.4993)"/>
</clipPath>
</defs>
</svg>
