<?xml version="1.0" encoding="UTF-8" standalone="no"?>
<!-- Created with Inkscape (http://www.inkscape.org/) -->

<svg
   width="400mm"
   height="100mm"
   viewBox="0 0 400 100"
   version="1.1"
   id="svg1"
   xmlns="http://www.w3.org/2000/svg"
   xmlns:svg="http://www.w3.org/2000/svg">
  <defs
     id="defs1" />
  <g
     id="layer1">
    <path
       d="m 55.421237,27.857147 c -1.889294,-0.01318 -3.779497,0.22431 -5.60369,0.721706 -3.751711,1.093074 -7.705421,2.622933 -10.189663,5.795618 -1.749555,2.472143 -2.507262,5.866441 -1.436719,8.767338 1.00392,2.809135 3.38219,4.369314 5.877181,5.767174 0,0 -1.14082,0.184863 -2.3801,0.823111 -4.405067,2.269038 -5.00681,7.920031 -2.053363,10.901414 2.882357,2.909486 6.373764,3.640075 9.913027,4.329878 4.81708,0.938309 9.930675,0.930703 14.716925,-0.396294 3.16518,-1.115606 6.51198,-2.777476 8.06441,-5.93486 2.29075,-4.076059 0.80009,-9.329703 -2.38173,-12.484946 -1.15531,-1.041012 -2.4242,-1.890459 -3.76833,-2.598241 1.85744,-0.409478 3.59635,-1.636651 4.39401,-3.390008 1.26798,-2.553441 0.31942,-5.688027 -1.81994,-7.448636 -3.68295,-3.147729 -8.50358,-4.819252 -13.332018,-4.853325 z m -0.071,1.938748 c 1.19882,0.0038 2.395711,0.116211 3.567658,0.336161 2.89312,0.664006 5.79373,2.223425 7.41916,4.774989 1.14558,2.340671 0.7433,6.18304 -0.75344,7.495312 -0.28597,0.251385 -0.47256,0.434626 -0.58207,0.57122 -3.41526,-1.552128 -7.228316,-2.314376 -10.886632,-2.988887 -2.743133,-0.625978 -5.763202,-1.076972 -7.966752,-2.964489 -1.8824,-1.714986 -0.495871,-4.735542 1.511862,-5.658508 2.406766,-1.054428 5.052747,-1.573322 7.690113,-1.565817 z m 11.559048,3.386521 c 0,0 2.75815,1.786365 2.60421,4.4981 -0.18051,3.184488 -2.60421,4.261458 -2.60421,4.261458 0,0 1.26909,-1.904411 1.27255,-4.143128 0.005,-2.908412 -1.27255,-4.61643 -1.27255,-4.61643 z m -25.141353,2.302308 c 0.02027,-0.0019 0.05072,0.0054 0.07099,0.03042 0.04055,0.0355 7.05e-4,0.129597 7.05e-4,0.129597 l -2.215615,6.06123 v -2.367238 l 2.08075,-3.826265 c 0,0 0.02027,-0.02535 0.06081,-0.02738 z m 1.59988,1.694602 c 0.02027,-7.64e-4 0.03045,0.0027 0.05072,0.01521 0.04054,0.0284 0.02027,0.09938 0.02027,0.09938 l -2.610594,6.921406 -0.591194,-0.923503 3.07178,-6.082972 c 0,0 0.02027,-0.02637 0.06081,-0.02941 z m 1.575746,1.89771 c 0.02027,-7.65e-4 0.03045,0.0027 0.05072,0.01521 0.04055,0.0284 0.02027,0.09836 0.02027,0.09836 l -2.46254,6.581737 -0.739248,-0.583591 3.071482,-6.083225 c 0,0 0.02027,-0.02637 0.06081,-0.02941 z m 1.657382,1.420392 c 0.02027,-7.64e-4 0.03045,0.0027 0.05072,0.01521 0.04054,0.0284 0.02027,0.09938 0.02027,0.09938 l -2.299884,6.507417 -0.856877,-0.642609 3.027267,-5.949888 c 0,0 0.02027,-0.02637 0.06081,-0.0294 z m 1.893959,0.947131 c 0.02027,-0.0011 0.03045,0.0027 0.05072,0.01521 0.04054,0.0284 0.02027,0.09836 0.02027,0.09836 l -2.277677,6.589252 -0.997839,-0.561586 3.145815,-6.112745 c 0,0 0.02027,-0.02637 0.06081,-0.0294 z m 2.302516,0.356848 c 0.01017,5.36e-4 0.03045,0.0054 0.04054,0.01622 0.04055,0.0284 0.02027,0.09938 0.02027,0.09938 l -2.650855,7.128011 -0.898453,-0.427122 3.419201,-6.786192 c 0,0 0.03045,-0.03144 0.07099,-0.0294 z m 2.037246,0.692195 c 0.01017,5.37e-4 0.03045,0.0054 0.04055,0.01622 0.04054,0.0284 0.02027,0.09837 0.02027,0.09837 l -2.621341,7.246056 -1.072163,-0.410998 3.563604,-6.920067 c 0,0 0.03045,-0.03144 0.07099,-0.0294 z m 2.074259,0.604177 c 0.02031,-8.42e-4 0.03047,0.0027 0.05068,0.0152 0.04053,0.0284 0.02031,0.09938 0.02031,0.09938 l -2.618094,7.261886 -1.042352,-0.331597 3.530346,-7.015317 c 0,0 0.02031,-0.02637 0.06084,-0.0294 z m 2.130838,0.651127 c 0.02031,-7.66e-4 0.03047,0.0027 0.05069,0.01521 0.04053,0.0284 0.02031,0.09837 0.02031,0.09837 l -2.595791,7.165834 -1.057156,-0.294585 3.52304,-6.956289 c 0,0 0.02031,-0.02637 0.06084,-0.02941 z m 2.189867,0.266393 c 0.0203,-0.0011 0.0305,0.0027 0.0507,0.01521 0.0405,0.0284 0.0203,0.09837 0.0203,0.09837 l -2.551579,7.321177 -1.300937,-0.25757 3.722716,-7.148657 c 0,0 0.0203,-0.02637 0.0608,-0.0294 z m 2.18996,0.414242 c 0.0203,-0.0011 0.0305,0.0027 0.0507,0.01521 0.0405,0.0284 0.0203,0.09938 0.0203,0.09938 l -2.6404,7.202595 -1.108668,-0.154036 3.619168,-7.133912 c 0,0 0.0203,-0.02637 0.0608,-0.0294 z m 1.98998,0.802526 c 0.0203,-8.41e-4 0.0305,0.003 0.0507,0.01521 0.0405,0.0284 0.0203,0.09836 0.0203,0.09836 l -2.41823,6.788869 -1.12368,-0.154543 3.412,-6.719375 c 0,0 0.0203,-0.02637 0.0608,-0.0294 z m 2.13054,0.71045 c 0.0203,-0.0011 0.0305,0.0027 0.0507,0.0152 0.0405,0.0284 0.0203,0.09938 0.0203,0.09938 l -2.3804,6.649619 -1.06649,-0.305637 3.31678,-6.429071 c 0,0 0.0203,-0.02637 0.0608,-0.0294 z m 1.66002,1.250567 c 0.0203,-8.41e-4 0.0305,0.0027 0.0507,0.01521 0.0405,0.0284 0.0203,0.09938 0.0203,0.09938 l -2.28559,6.078135 -0.81328,-0.412924 2.96804,-5.75027 c 0,0 0.0203,-0.02637 0.0609,-0.02941 z m 1.65463,1.826868 c 0.0203,-7.66e-4 0.0305,0.0027 0.0507,0.0152 0.0405,0.0284 0.0203,0.09938 0.0203,0.09938 l -1.85745,5.425619 -0.86296,-0.578419 2.59071,-4.932218 c 0,0 0.0203,-0.02637 0.0608,-0.0294 z m -23.37831,0.589776 c 0.04055,0.02435 0.09127,0.04867 0.129801,0.072 3.140544,1.597476 6.603554,2.565243 10.064838,3.219635 3.581651,0.732759 7.670541,0.601236 10.519431,3.24083 1.83597,1.590501 0.9948,4.824354 -1.10948,5.783267 -3.59443,1.911126 -7.815346,1.589426 -11.757801,1.660258 -1.867996,-0.183748 -3.79836,-0.262945 -5.581581,-0.876552 -2.791907,-1.309323 -5.448338,-3.677361 -6.131711,-6.793432 -0.190639,-2.654856 1.845085,-4.849573 3.867016,-6.306461 z m -1.871438,0.410998 c 0,0 -1.706158,1.577084 -2.263892,2.574634 -0.523249,0.936686 -0.842679,2.211083 -0.947129,3.077434 -0.136899,1.1411 0.409682,2.298557 0.947129,3.314623 0.62568,1.183477 2.567602,3.088163 2.567602,3.088163 0,0 -2.488504,-1.46145 -3.277849,-2.614881 -0.747356,-1.091452 -1.210279,-1.61787 -1.183704,-3.787905 0.0101,-1.173022 0.485727,-2.371791 1.183704,-3.314349 1.076731,-1.452314 2.974139,-2.337719 2.974139,-2.337719 z m 26.670138,1.366738 c 0.0203,-8.41e-4 0.0305,0.0027 0.0507,0.01521 0.0405,0.0284 0.0203,0.09938 0.0203,0.09938 l -1.72278,5.027996 -0.67942,-1.130898 2.27281,-3.982147 c 0,0 0.0203,-0.02637 0.0608,-0.0294 z m 1.11242,2.508365 c 0.0102,7.65e-4 0.0305,0.0046 0.0405,0.01521 0.0405,0.0284 0.0203,0.09938 0.0203,0.09938 l -2.31459,5.959542 -0.0305,-1.677963 2.21348,-4.366628 c 0,0 0.0305,-0.03144 0.071,-0.0294 z"
       fill="#c9a94c"
       id="path7"
       style="fill:#000000;fill-opacity:1;stroke-width:2.68303" />
    <path
       d="m 18.471175,27.853659 c -1.889393,-0.01318 -3.779603,0.224006 -5.603789,0.721706 -3.7517107,1.093074 -7.7054287,2.62267 -10.1896717,5.795618 -1.749554,2.472143 -2.5072517,5.86644 -1.436511,8.767338 1.00392,2.808861 3.381984,4.369314 5.876974,5.766899 0,0 -1.140812,0.185168 -2.380092,0.823417 -4.4050727,2.269036 -5.0069157,7.919766 -2.053371,10.901149 2.882357,2.90975 6.373764,3.640338 9.9130347,4.329879 4.817081,0.93851 9.930674,0.931007 14.716928,-0.396294 3.165183,-1.115607 6.511979,-2.777477 8.064607,-5.934596 2.290551,-4.076059 0.800093,-9.329968 -2.381928,-12.484946 -1.155316,-1.041013 -2.4241,-1.890733 -3.768341,-2.598242 1.857453,-0.40968 3.59636,-1.636924 4.394021,-3.390282 1.267973,-2.55344 0.319429,-5.687753 -1.819933,-7.448626 -3.682757,-3.147464 -8.503594,-4.818989 -13.331928,-4.85306 z m -0.07099,1.938748 c 1.19882,0.0035 2.396019,0.115908 3.567659,0.33616 2.893106,0.664006 5.793723,2.223426 7.419154,4.77499 1.145585,2.34067 0.743308,6.183039 -0.753446,7.495312 -0.285962,0.251182 -0.472546,0.434423 -0.582067,0.570915 -3.415146,-1.551865 -7.228308,-2.314111 -10.886326,-2.988897 -2.74343,-0.625675 -5.763399,-1.076697 -7.9670487,-2.964205 -1.8824,-1.71527 -0.49588,-4.735552 1.5119607,-5.658781 2.406667,-1.054166 5.052648,-1.573333 7.690007,-1.565555 z m 11.559051,3.38653 c 0,0 2.758133,1.786356 2.604198,4.49809 -0.180496,3.184225 -2.604198,4.261196 -2.604198,4.261196 0,0 1.26909,-1.904422 1.272541,-4.142866 0.0046,-2.908411 -1.272541,-4.61642 -1.272541,-4.61642 z M 4.8178813,35.481235 c 0.02027,-0.0019 0.05072,0.0054 0.07099,0.03042 0.04055,0.0355 0.0016,0.129294 0.0016,0.129294 l -2.215953,6.061497 v -2.367503 l 2.080948,-3.826266 c 0,0 0.02027,-0.02434 0.06081,-0.02738 z m 1.599979,1.694603 c 0.02027,-0.0011 0.03045,0.0027 0.05072,0.01521 0.04055,0.0284 0.02027,0.09938 0.02027,0.09938 l -2.610594,6.921416 -0.591194,-0.923198 3.071582,-6.083237 c 0,0 0.02027,-0.02637 0.06081,-0.0294 z m 1.575745,1.897446 c 0.02027,-8.42e-4 0.03045,0.0027 0.05072,0.01521 0.04055,0.0284 0.02027,0.09938 0.02027,0.09938 l -2.462541,6.581737 -0.739247,-0.583591 3.071482,-6.083225 c 0,0 0.02027,-0.02637 0.06081,-0.0294 z m 1.657277,1.420666 c 0.02027,-0.0011 0.03045,0.0027 0.05072,0.01521 0.04054,0.0284 0.02027,0.09938 0.02027,0.09938 l -2.299884,6.507691 -0.856884,-0.642812 3.027167,-5.949887 c 0,0 0.02027,-0.02637 0.06081,-0.0294 z m 1.8939587,0.946826 c 0.02027,-7.65e-4 0.03045,0.0027 0.05072,0.01521 0.04055,0.0284 0.02027,0.09938 0.02027,0.09938 l -2.2778827,6.588987 -0.997831,-0.561281 3.1458067,-6.112745 c 0,0 0.02027,-0.02637 0.06081,-0.0294 z m 2.302523,0.357152 c 0.01017,5.37e-4 0.03045,0.0054 0.04054,0.01521 0.04055,0.0284 0.02027,0.09938 0.02027,0.09938 l -2.650853,7.128275 -0.898454,-0.427426 3.419201,-6.785928 c 0,0 0.03045,-0.03144 0.07099,-0.0294 z m 2.037544,0.691994 c 0.01017,7.64e-4 0.03045,0.0054 0.04054,0.01622 0.04055,0.0284 0.02027,0.09938 0.02027,0.09938 l -2.621342,7.246058 -1.072064,-0.410998 3.563505,-6.920068 c 0,0 0.03045,-0.03144 0.07099,-0.0294 z m 2.074263,0.60448 c 0.02027,-8.42e-4 0.03045,0.0027 0.05072,0.01521 0.04055,0.0284 0.02027,0.09938 0.02027,0.09938 l -2.618098,7.261623 -1.042146,-0.331394 3.530344,-7.015318 c 0,0 0.02027,-0.02637 0.06081,-0.02941 z m 2.130534,0.650924 c 0.02027,-8.42e-4 0.03045,0.0027 0.05072,0.01521 0.04055,0.0284 0.02027,0.09938 0.02027,0.09938 l -2.595784,7.165571 -1.057154,-0.294584 3.523137,-6.956017 c 0,0 0.02027,-0.02637 0.06081,-0.0294 z m 2.189965,0.266393 c 0.02027,-8.41e-4 0.03045,0.0027 0.05072,0.01521 0.04055,0.0284 0.02027,0.09938 0.02027,0.09938 l -2.551476,7.320914 -1.301036,-0.257571 3.722712,-7.148392 c 0,0 0.02027,-0.02637 0.06081,-0.02941 z m 2.189859,0.414242 c 0.02027,-7.64e-4 0.03045,0.0027 0.05072,0.01521 0.04055,0.0284 0.02027,0.09938 0.02027,0.09938 l -2.640404,7.202594 -1.108568,-0.154035 3.619072,-7.133649 c 0,0 0.02027,-0.02637 0.06081,-0.0294 z m 1.989985,0.80273 c 0.02027,-8.42e-4 0.03045,0.0027 0.05072,0.01521 0.04054,0.0284 0.02027,0.09938 0.02027,0.09938 l -2.418225,6.788868 -1.123578,-0.154543 3.412003,-6.719375 c 0,0 0.02027,-0.02637 0.06081,-0.02941 z m 2.130641,0.710145 c 0.02027,-7.65e-4 0.03045,0.0027 0.05072,0.0152 0.04054,0.0284 0.02027,0.09938 0.02027,0.09938 l -2.3801,6.649628 -1.066586,-0.30584 3.316786,-6.428807 c 0,0 0.02027,-0.02637 0.06081,-0.0294 z m 1.659908,1.250831 c 0.02027,-8.41e-4 0.03045,0.0027 0.05072,0.01521 0.04055,0.0284 0.02027,0.09938 0.02027,0.09938 l -2.285487,6.078135 -0.813274,-0.412925 2.968043,-5.750269 c 0,0 0.02027,-0.02637 0.06081,-0.0294 z m 1.654645,1.826867 c 0.02027,-7.65e-4 0.03045,0.0027 0.05072,0.01521 0.04055,0.0284 0.02027,0.09938 0.02027,0.09938 l -1.857455,5.42562 -0.862958,-0.578419 2.591018,-4.932219 c 0,0 0.02027,-0.02637 0.06081,-0.02941 z M 8.5263943,49.606006 c 0.04055,0.02434 0.09127,0.04867 0.128784,0.07301 3.1405427,1.597478 6.6035527,2.564971 10.0649427,3.219636 3.58155,0.732455 7.670439,0.601032 10.519336,3.24083 1.835951,1.5905 0.994786,4.824354 -1.109486,5.783004 -3.594433,1.911389 -7.815348,1.589425 -11.757805,1.660521 -1.867897,-0.183748 -3.79836,-0.26325 -5.581482,-0.876856 -2.7920067,-1.309322 -5.4484287,-3.677099 -6.1318027,-6.793433 -0.190647,-2.654866 1.845077,-4.849582 3.867008,-6.306471 z m -1.871445,0.410999 c 0,0 -1.706051,1.577347 -2.263885,2.574634 -0.523257,0.936888 -0.842679,2.211083 -0.947128,3.077698 -0.1369,1.140825 0.409681,2.298282 0.947128,3.314348 0.625672,1.183752 2.567701,3.088437 2.567701,3.088437 0,0 -2.488602,-1.461451 -3.277948,-2.614881 -0.747364,-1.091725 -1.209973,-1.61787 -1.183405,-3.787904 0.01017,-1.173024 0.484717,-2.372066 1.183405,-3.314339 1.07673,-1.452598 2.974132,-2.337993 2.974132,-2.337993 z m 26.6701457,1.367001 c 0.02027,-0.0011 0.03045,0.0027 0.05072,0.01521 0.04054,0.0284 0.02027,0.09938 0.02027,0.09938 l -1.722688,5.027734 -0.679419,-1.130898 2.272812,-3.982159 c 0,0 0.02027,-0.02637 0.06081,-0.0294 z m 1.112424,2.508365 c 0.01017,5.38e-4 0.03045,0.0046 0.04055,0.01521 0.04055,0.0284 0.02027,0.09938 0.02027,0.09938 l -2.314694,5.959815 -0.03045,-1.677963 2.213488,-4.366901 c 0,0 0.03045,-0.03144 0.07099,-0.0294 z"
       fill="#c9a94c"
       id="path8"
       style="fill:#000000;fill-opacity:1;stroke-width:2.68303" />
    <text
       xml:space="preserve"
       style="font-size:50.8px;font-family:Westner;-inkscape-font-specification:Westner;text-align:start;writing-mode:lr-tb;direction:ltr;text-anchor:start;fill:#000000;stroke-width:1.89"
       x="85.386261"
       y="65.643776"
       id="text1"><tspan
         id="tspan1"
         style="stroke-width:1.89"
         x="85.386261"
         y="65.643776">BARBER SHOP</tspan></text>
  </g>
</svg>
