<svg width="48" height="48" viewBox="0 0 48 48" fill="none" xmlns="http://www.w3.org/2000/svg">
<g clip-path="url(#clip0_80_264)">
<path d="M23.9899 0.828766C27.0313 0.828818 30.0433 1.42758 32.8532 2.59146C35.6631 3.75538 38.2163 5.46141 40.3669 7.61197C42.5176 9.76264 44.2235 12.3166 45.3874 15.1266C46.5512 17.9365 47.1501 20.9485 47.1501 23.9899C47.15 27.0313 46.5513 30.0433 45.3874 32.8532C44.2235 35.663 42.5175 38.2163 40.3669 40.3669C38.2163 42.5174 35.6631 44.2234 32.8532 45.3874C30.0433 46.5512 27.0313 47.15 23.9899 47.1501C20.9485 47.1501 17.9365 46.5512 15.1266 45.3874C12.3167 44.2234 9.76267 42.5175 7.612 40.3669C5.46144 38.2163 3.75541 35.663 2.59149 32.8532C1.42761 30.0433 0.82885 27.0313 0.828796 23.9899C0.828796 17.8473 3.26852 11.9554 7.612 7.61197C11.9555 3.26849 17.8473 0.828766 23.9899 0.828766Z" stroke="#C9A94C" stroke-miterlimit="5" stroke-linecap="round" stroke-linejoin="round"/>
<path d="M27.8929 32.8996C27.7558 32.8996 27.6222 32.9184 27.4922 32.956C27.3623 32.9912 27.2469 33.0463 27.1458 33.1214C26.9473 33.2716 26.848 33.4454 26.848 33.6426C26.848 33.7764 26.8768 33.889 26.9345 33.9805C26.9959 34.0721 27.0862 34.1507 27.2053 34.2165C27.3063 34.2751 27.4237 34.3232 27.5572 34.3607C27.6943 34.4006 27.8243 34.4382 27.947 34.4734C28.0697 34.5086 28.1888 34.5439 28.3043 34.5791C28.4198 34.6143 28.5154 34.6636 28.5912 34.7269C28.667 34.7879 28.705 34.8688 28.705 34.9697C28.705 35.1059 28.6417 35.2139 28.5154 35.2937C28.3927 35.3735 28.2123 35.4133 27.9741 35.4133C27.4255 35.4133 27.0971 35.1494 26.9888 34.6213H26.8913V35.4485H26.9888C26.996 35.4156 27.0141 35.3864 27.0429 35.3606C27.0718 35.3324 27.1115 35.3184 27.162 35.3184C27.1909 35.3184 27.2269 35.3266 27.2703 35.343C27.3136 35.3571 27.3749 35.3757 27.4543 35.3992C27.5337 35.4227 27.615 35.4415 27.698 35.4556C27.7846 35.4697 27.8747 35.4768 27.9686 35.4768C28.1454 35.4768 28.3116 35.458 28.4668 35.4204C28.6256 35.3805 28.7627 35.3219 28.8782 35.2444C29.1092 35.0872 29.2246 34.8864 29.2246 34.6423C29.2246 34.5508 29.2065 34.464 29.1705 34.3819C29.138 34.2997 29.0875 34.2304 29.019 34.174C28.9504 34.1154 28.8818 34.0685 28.8132 34.0332C28.7482 33.998 28.6706 33.9676 28.5804 33.9417C28.501 33.9183 28.3946 33.8889 28.261 33.8537C28.1275 33.8161 27.9812 33.7774 27.8224 33.7375C27.66 33.6953 27.5427 33.6401 27.4705 33.5721C27.4019 33.5017 27.3678 33.4301 27.3678 33.3573C27.3678 33.2447 27.4219 33.1508 27.5301 33.0757C27.6384 33.0006 27.7738 32.963 27.9362 32.963C28.1996 32.963 28.4126 33.0194 28.575 33.1321C28.7374 33.2448 28.8421 33.4136 28.889 33.6389H28.9864V32.9313H28.889C28.889 32.9525 28.8764 32.9784 28.8511 33.0089C28.8258 33.0394 28.7879 33.0545 28.7374 33.0545C28.6941 33.0545 28.6507 33.0476 28.6074 33.0335C28.5677 33.0194 28.5064 32.9994 28.4234 32.9735C28.3476 32.9501 28.2646 32.9325 28.1743 32.9208C28.0877 32.9067 27.994 32.8996 27.8929 32.8996ZM34.1024 32.8996C33.9003 32.8996 33.7145 32.9338 33.5449 33.0018C33.3753 33.0675 33.229 33.159 33.1063 33.2764C32.9872 33.3914 32.8935 33.5275 32.8249 33.6848C32.7599 33.842 32.7273 34.0098 32.7273 34.1882C32.7273 34.3666 32.7599 34.5343 32.8249 34.6916C32.8935 34.8465 32.9872 34.9827 33.1063 35.1C33.2254 35.215 33.3698 35.3065 33.5394 35.3746C33.709 35.4426 33.8967 35.4768 34.1024 35.4768C34.3081 35.4768 34.4958 35.4426 34.6654 35.3746C34.8351 35.3065 34.9794 35.215 35.0985 35.1C35.2176 34.9827 35.3098 34.8465 35.3748 34.6916C35.4434 34.5343 35.4775 34.3666 35.4775 34.1882C35.4775 34.0098 35.4433 33.842 35.3748 33.6848C35.3098 33.5275 35.2159 33.3914 35.0932 33.2764C34.9741 33.159 34.8297 33.0675 34.6601 33.0018C34.4905 32.9338 34.3045 32.8996 34.1024 32.8996ZM9.55634 32.9489V33.0123H9.81622V35.3641H9.55634V35.4275H11.056C11.2437 35.4275 11.4151 35.4134 11.5703 35.3853C11.7255 35.3571 11.8591 35.316 11.971 35.262C12.0828 35.2057 12.1676 35.1365 12.2253 35.0544C12.2867 34.9699 12.3174 34.8724 12.3174 34.7621C12.3174 34.5626 12.2163 34.4089 12.0142 34.3009C11.8121 34.1929 11.5234 34.1365 11.148 34.1318V34.1248C11.5162 34.1107 11.7886 34.0544 11.9654 33.9559C12.1459 33.855 12.2362 33.7164 12.2362 33.5404C12.2362 33.4535 12.2128 33.3738 12.1659 33.301C12.119 33.2282 12.0503 33.166 11.9601 33.1143C11.8735 33.0604 11.7669 33.0193 11.6406 32.9911C11.5179 32.963 11.3791 32.9489 11.2239 32.9489L9.55634 32.9489ZM13.6113 32.9489C13.4489 33.3197 13.3118 33.6332 13.1999 33.889C13.0916 34.1448 13.0013 34.3572 12.9292 34.5262C12.857 34.6928 12.7993 34.8231 12.756 34.917C12.7163 35.0085 12.6856 35.0777 12.6639 35.1247C12.6423 35.1693 12.6277 35.1987 12.6205 35.2127C12.6169 35.2245 12.6133 35.2327 12.6096 35.2374C12.5772 35.289 12.5411 35.323 12.5014 35.3394C12.4653 35.3558 12.4166 35.364 12.3553 35.364H12.312V35.4275H13.0482V35.364H12.9941C12.9075 35.364 12.8462 35.3582 12.8101 35.3464C12.7776 35.3324 12.7613 35.303 12.7613 35.2584C12.7613 35.242 12.7667 35.221 12.7775 35.1951C12.7847 35.1834 12.8027 35.1387 12.8316 35.0612C12.8605 34.9838 12.9021 34.8748 12.9562 34.734H13.7304L13.9685 35.364H13.7086V35.4274H15.1651V35.364H14.9702L13.9632 32.9489L13.6113 32.9489ZM15.1704 32.9489V33.0123H15.4303V35.3641H15.1704V35.4275H16.5996V35.3641H16.3723V34.1916H16.4914C16.5708 34.1916 16.6358 34.2011 16.6863 34.2199C16.7368 34.2363 16.7748 34.2679 16.8 34.3149C16.8289 34.3595 16.8487 34.4206 16.8595 34.4981C16.8703 34.5755 16.8793 34.6728 16.8866 34.7902C16.8902 34.8794 16.8992 34.9546 16.9136 35.0156C16.9317 35.0766 16.9516 35.1283 16.9732 35.1705C16.9949 35.2128 17.0202 35.2478 17.0491 35.276C17.0816 35.3042 17.1176 35.3301 17.1573 35.3535C17.2295 35.3981 17.3161 35.4297 17.4172 35.4485C17.5182 35.4673 17.6319 35.4768 17.7582 35.4768C17.7835 35.4768 17.8159 35.4743 17.8556 35.4697C17.8989 35.465 17.9422 35.4591 17.9856 35.4521C18.0325 35.4451 18.0758 35.4369 18.1155 35.4275C18.1394 35.4223 18.161 35.4167 18.1805 35.4107V35.4275H19.6802C19.8678 35.4275 20.0392 35.4134 20.1944 35.3852C20.3496 35.3571 20.4832 35.316 20.5951 35.262C20.707 35.2057 20.7917 35.1365 20.8495 35.0544C20.9108 34.9699 20.9415 34.8724 20.9415 34.7621C20.9415 34.5626 20.8405 34.4089 20.6384 34.3009C20.4362 34.1929 20.1475 34.1365 19.7722 34.1318V34.1248C20.1403 34.1107 20.4127 34.0544 20.5896 33.9559C20.77 33.8549 20.8603 33.7164 20.8603 33.5404C20.8603 33.4535 20.8369 33.3737 20.79 33.301C20.7431 33.2282 20.6745 33.166 20.5842 33.1143C20.4976 33.0604 20.3912 33.0193 20.2649 32.9911C20.1422 32.963 20.0032 32.9489 19.848 32.9489H18.1805V33.0123H18.4404V35.364H18.2022L18.1805 35.3323C18.1588 35.3393 18.1354 35.3476 18.1102 35.357C18.0885 35.3664 18.0632 35.3711 18.0343 35.3711C17.9658 35.3711 17.9278 35.343 17.9206 35.2866L17.872 34.8958C17.8612 34.816 17.8485 34.7468 17.8341 34.6881C17.8232 34.6294 17.807 34.579 17.7853 34.5368C17.7673 34.4945 17.7439 34.458 17.715 34.4275C17.6861 34.397 17.6518 34.3689 17.6121 34.3431C17.5219 34.2844 17.3936 34.241 17.2276 34.2128C17.0652 34.1846 16.8812 34.1647 16.6754 34.153V34.1459C17.4911 34.1318 17.899 33.9323 17.899 33.5474C17.899 33.362 17.798 33.2165 17.5959 33.1109C17.3974 33.0029 17.1175 32.9489 16.7566 32.9489L15.1704 32.9489ZM21.1905 32.9489V33.0123H21.4504V35.3641H21.1905V35.4275H23.5131L23.5672 34.6776H23.4699C23.441 34.8396 23.376 34.9756 23.2749 35.0859C23.1739 35.1939 23.0637 35.2678 22.9446 35.3077C22.8904 35.3265 22.8381 35.3405 22.7876 35.3499C22.7407 35.3593 22.6649 35.364 22.5603 35.364H22.3924V34.1918H22.5115C22.6089 34.1918 22.6866 34.2059 22.7443 34.234C22.8021 34.2622 22.8471 34.2985 22.8796 34.3431C22.9121 34.3877 22.9337 34.4381 22.9446 34.4944C22.959 34.5508 22.9699 34.6061 22.9771 34.66H23.0745V33.6636H22.9771C22.9591 33.7481 22.9374 33.8209 22.9122 33.882C22.8869 33.9406 22.8543 33.9886 22.8146 34.0262C22.7749 34.0614 22.7262 34.0873 22.6685 34.1038C22.6144 34.1202 22.5476 34.1284 22.4682 34.1284H22.3924V33.0123H22.6361C22.7371 33.0123 22.8345 33.0299 22.9284 33.0651C23.0222 33.0979 23.1052 33.1426 23.1774 33.199C23.2496 33.2529 23.3073 33.3139 23.3506 33.382C23.3975 33.4501 23.4265 33.5192 23.4373 33.5897H23.5348L23.5023 32.9489L21.1905 32.9489ZM23.7945 32.9489V33.0123H24.0544V35.3641H23.7945V35.4275H25.2239V35.3641H24.9964V34.1916H25.1155C25.1949 34.1916 25.2599 34.2011 25.3104 34.2199C25.361 34.2363 25.3989 34.2679 25.4242 34.3149C25.453 34.3595 25.473 34.4206 25.4838 34.4981C25.4946 34.5755 25.5036 34.6728 25.5109 34.7902C25.5145 34.8794 25.5235 34.9546 25.5379 35.0156C25.556 35.0766 25.5757 35.1283 25.5974 35.1705C25.619 35.2128 25.6443 35.2478 25.6732 35.276C25.7057 35.3042 25.7417 35.3301 25.7814 35.3535C25.8536 35.3981 25.9403 35.4297 26.0413 35.4485C26.1424 35.4673 26.2561 35.4768 26.3824 35.4768C26.4076 35.4768 26.4402 35.4743 26.4799 35.4697C26.5232 35.465 26.5666 35.4591 26.6099 35.4521C26.6568 35.4451 26.7001 35.4369 26.7398 35.4275C26.7831 35.4181 26.8192 35.4075 26.848 35.3958L26.8046 35.3323C26.7829 35.3394 26.7596 35.3476 26.7343 35.357C26.7126 35.3664 26.6873 35.3711 26.6585 35.3711C26.5899 35.3711 26.5521 35.343 26.5449 35.2866L26.4961 34.8958C26.4853 34.816 26.4726 34.7468 26.4582 34.6881C26.4474 34.6294 26.4311 34.5791 26.4094 34.5368C26.3914 34.4946 26.368 34.4581 26.3391 34.4275C26.3102 34.397 26.2759 34.3689 26.2362 34.3431C26.146 34.2844 26.0179 34.241 25.8519 34.2128C25.6895 34.1846 25.5053 34.1647 25.2996 34.153V34.1459C26.1153 34.1318 26.5232 33.9323 26.5232 33.5474C26.5232 33.362 26.4221 33.2165 26.22 33.1109C26.0215 33.0029 25.7418 32.9489 25.3809 32.9489L23.7945 32.9489ZM29.4088 32.9489V33.0123H29.6685V35.3641H29.4088V35.4275H30.8218V35.3641H30.6105V34.1706H31.2764V35.3641H31.0653V35.4275H32.4783V35.3641H32.2184V33.0123H32.4783V32.9489H31.0491V33.0123H31.2764V34.1072H30.6105V33.0123H30.838V32.9489H29.4088ZM35.7265 32.9489V33.0123H35.9864V35.3641H35.7265V35.4275H37.2424V35.3641H36.9284V34.2587H37.432C37.5872 34.2587 37.7315 34.2423 37.8651 34.2094C37.9986 34.1765 38.114 34.1307 38.2115 34.072C38.3089 34.0134 38.3848 33.9429 38.439 33.8608C38.4931 33.7763 38.5201 33.6835 38.5201 33.5826C38.5201 33.4817 38.4931 33.3926 38.439 33.3151C38.3884 33.2353 38.3144 33.1683 38.217 33.1144C38.1195 33.0604 38.0022 33.0193 37.8651 32.9911C37.7315 32.963 37.5835 32.9489 37.4211 32.9489H35.7265ZM34.0971 32.963C34.2198 32.963 34.3118 32.9888 34.3732 33.0404C34.4381 33.0897 34.4705 33.1707 34.4705 33.2834V35.0859C34.4705 35.1985 34.4381 35.282 34.3732 35.336C34.3118 35.3876 34.2215 35.4133 34.1024 35.4133C33.9833 35.4133 33.8913 35.3876 33.8263 35.336C33.765 35.2843 33.7343 35.2022 33.7343 35.0895V33.2834C33.7343 33.1614 33.7686 33.0781 33.8372 33.0335C33.9094 32.9866 33.996 32.963 34.0971 32.963ZM10.7582 33.0123H10.9802C11.0307 33.0123 11.0758 33.0205 11.1155 33.037C11.1552 33.0534 11.1914 33.0851 11.2239 33.1321C11.2419 33.1603 11.258 33.2059 11.2725 33.2693C11.2869 33.3326 11.2942 33.4265 11.2942 33.5509C11.2942 33.6706 11.2852 33.7669 11.2671 33.8397C11.2491 33.9125 11.2238 33.9687 11.1913 34.0086C11.1588 34.0462 11.1174 34.0721 11.0669 34.0861C11.02 34.0979 10.9676 34.1037 10.9099 34.1037H10.7582V33.0123ZM16.3723 33.0123H16.5346C16.6429 33.0123 16.7169 33.0229 16.7566 33.044C16.7999 33.0651 16.8361 33.0991 16.865 33.1461C16.8795 33.1742 16.8921 33.2248 16.9029 33.2975C16.9174 33.368 16.9245 33.483 16.9245 33.6426C16.9245 33.7224 16.9208 33.7916 16.9136 33.8502C16.9064 33.9089 16.8884 33.9571 16.8595 33.9946C16.8306 34.0322 16.7892 34.0603 16.7351 34.0791C16.6809 34.0979 16.605 34.1072 16.5076 34.1072H16.3723L16.3723 33.0123ZM19.3824 33.0123H19.6043C19.6549 33.0123 19.6999 33.0205 19.7396 33.037C19.7793 33.0534 19.8155 33.0851 19.848 33.1321C19.8661 33.1603 19.8822 33.2059 19.8966 33.2693C19.911 33.3326 19.9183 33.4265 19.9183 33.5509C19.9183 33.6706 19.9093 33.7669 19.8913 33.8397C19.8732 33.9125 19.8479 33.9687 19.8154 34.0086C19.783 34.0462 19.7415 34.0721 19.691 34.0861C19.6441 34.0979 19.5918 34.1037 19.534 34.1037H19.3824V33.0123ZM24.9964 33.0123H25.1589C25.2672 33.0123 25.3412 33.0229 25.3809 33.044C25.4242 33.0651 25.4603 33.0991 25.4891 33.1461C25.5036 33.1742 25.5162 33.2248 25.5271 33.2975C25.5415 33.368 25.5486 33.483 25.5486 33.6426C25.5486 33.7224 25.5451 33.7916 25.5379 33.8502C25.5307 33.9089 25.5127 33.9571 25.4838 33.9946C25.4549 34.0322 25.4133 34.0603 25.3592 34.0791C25.3051 34.0979 25.2293 34.1072 25.1319 34.1072H24.9964L24.9964 33.0123ZM36.9284 33.0123H37.1504C37.2731 33.0123 37.3597 33.0358 37.4103 33.0828C37.4644 33.1297 37.5004 33.186 37.5185 33.2517C37.5329 33.3057 37.5402 33.3621 37.5402 33.4208C37.5439 33.4771 37.5455 33.5287 37.5455 33.5757C37.5455 33.7095 37.5331 33.8174 37.5078 33.8995C37.4861 33.9793 37.4536 34.0416 37.4102 34.0862C37.3705 34.1284 37.3218 34.1576 37.2641 34.174C37.2064 34.1881 37.145 34.1952 37.08 34.1952H36.9284L36.9284 33.0123ZM13.3569 33.7904H13.3676L13.698 34.6706H12.9833L13.3569 33.7904ZM10.7582 34.1672H10.9206C11.0324 34.1672 11.112 34.1788 11.1589 34.2023C11.2094 34.2234 11.2509 34.2598 11.2833 34.3114C11.2905 34.3255 11.2978 34.3419 11.305 34.3607C11.3123 34.3795 11.3176 34.4065 11.3212 34.4417C11.3285 34.4745 11.3338 34.5167 11.3374 34.5684C11.341 34.6176 11.343 34.6788 11.343 34.7516C11.343 34.8196 11.3411 34.8806 11.3374 34.9346C11.3338 34.9862 11.3285 35.032 11.3212 35.0719C11.2924 35.1916 11.2454 35.2701 11.1804 35.3077C11.1155 35.3452 11.0344 35.364 10.9369 35.364H10.7582V34.1672ZM19.3824 34.1672H19.5449C19.6568 34.1672 19.7361 34.1788 19.783 34.2023C19.8336 34.2234 19.875 34.2598 19.9075 34.3114C19.9147 34.3255 19.922 34.3419 19.9292 34.3607C19.9364 34.3795 19.9418 34.4065 19.9454 34.4417C19.9526 34.4745 19.958 34.5167 19.9616 34.5684C19.9652 34.6176 19.9671 34.6788 19.9671 34.7516C19.9671 34.8196 19.9652 34.8806 19.9616 34.9346C19.958 34.9862 19.9526 35.032 19.9454 35.0719C19.9165 35.1916 19.8695 35.2701 19.8046 35.3077C19.7396 35.3452 19.6585 35.364 19.5611 35.364H19.3824V34.1672Z" fill="#C9A94C"/>
<path d="M33.6213 29.3625C33.7323 29.8136 34.4633 30.1545 35.0024 30.0561C35.5469 30.0198 36.0494 29.3507 35.716 28.8472C35.4 28.3204 34.7425 28.2115 34.1873 28.1516C32.7038 27.9914 31.2278 28.4183 29.8211 28.864C28.4124 29.3243 27.1107 29.9398 25.613 29.8593C25.193 29.8368 24.6163 29.788 24.3626 29.4193C24.2576 29.2666 24.2624 29.1413 24.285 29.0096C24.308 28.8761 24.3836 28.7885 24.3292 28.7356C24.2708 28.6787 24.1645 28.7742 24.1364 28.8973C24.0443 29.3015 24.1804 29.7509 24.5956 29.9C25.5562 30.245 26.4706 30.0993 27.3919 29.983C28.6509 29.7995 29.8222 29.1936 31.0956 29.1141C31.503 29.0887 32.083 29.1086 32.2577 29.4687C32.4705 29.9076 31.8677 30.2284 31.4404 30.0129C31.3767 29.9808 31.3041 29.9347 31.2786 29.8226C31.2549 29.7187 31.2899 29.7185 31.2806 29.6818C31.2687 29.6356 31.156 29.6794 31.1672 29.8441C31.1971 30.2824 31.8157 30.406 32.2792 30.2197C32.683 30.0574 32.7604 29.4213 32.4939 29.154C32.3683 29.028 32.3236 29.0206 32.0571 28.8537C32.0232 28.8324 32.2009 28.7747 32.2981 28.7553C32.9855 28.6178 33.9373 28.534 34.6619 28.713C35.1051 28.8224 35.707 29.3078 35.1631 29.6504C34.7356 29.9179 34.1412 29.8281 33.798 29.4499C33.7629 29.4112 33.7216 29.3313 33.6826 29.3089C33.6469 29.2885 33.6098 29.3148 33.6213 29.3625Z" fill="#C9A94C"/>
<path d="M14.0404 29.3593C13.9293 29.8104 13.1983 30.1512 12.6592 30.0529C12.1148 30.0165 11.6123 29.3475 11.9456 28.8439C12.2617 28.3172 12.9192 28.2083 13.4744 28.1484C14.9579 27.9882 16.4339 28.4151 17.8406 28.8607C19.2492 29.3211 20.5509 29.9366 22.0487 29.8561C22.4687 29.8336 23.0454 29.7847 23.299 29.4161C23.4041 29.2634 23.3993 29.138 23.3766 29.0064C23.3537 28.8728 23.2781 28.7853 23.3325 28.7324C23.3909 28.6755 23.4972 28.771 23.5252 28.8941C23.6173 29.2982 23.4813 29.7477 23.0661 29.8968C22.1055 30.2418 21.191 30.0961 20.2697 29.9798C19.0108 29.7962 17.8395 29.1904 16.566 29.1109C16.1586 29.0855 15.5786 29.1054 15.404 29.4655C15.1912 29.9044 15.794 30.2252 16.2213 30.0097C16.2849 29.9775 16.3575 29.9314 16.3831 29.8194C16.4068 29.7155 16.3718 29.7152 16.3813 29.6785C16.3931 29.6324 16.5058 29.6762 16.4946 29.8409C16.4648 30.2792 15.8461 30.4028 15.3826 30.2165C14.9788 30.0542 14.9014 29.4181 15.1679 29.1508C15.2935 29.0248 15.3382 29.0174 15.6048 28.8504C15.6387 28.8292 15.4609 28.7715 15.3638 28.7521C14.6763 28.6146 13.7246 28.5308 12.9999 28.7097C12.5567 28.8192 11.9548 29.3046 12.4988 29.6472C12.9262 29.9147 13.5206 29.8249 13.8638 29.4467C13.8989 29.408 13.9403 29.3281 13.9793 29.3057C14.0149 29.2853 14.0518 29.3115 14.0404 29.3593Z" fill="#C9A94C"/>
<path d="M39.813 19.195C39.7084 19.1977 39.5435 19.2642 39.5435 19.46C39.5435 19.6917 39.7425 19.7302 39.833 19.7247L44.2449 19.46L39.833 19.1953C39.8267 19.195 39.82 19.1946 39.813 19.195ZM39.1025 19.2394C39.0735 19.2394 39.0448 19.2451 39.0181 19.2562C38.9913 19.2673 38.967 19.2836 38.9465 19.3041C38.926 19.3245 38.9098 19.3489 38.8987 19.3756C38.8876 19.4024 38.8819 19.4311 38.8819 19.46C38.8819 19.489 38.8876 19.5177 38.8987 19.5445C38.9098 19.5712 38.926 19.5955 38.9465 19.616C38.967 19.6365 38.9913 19.6528 39.0181 19.6638C39.0448 19.6749 39.0735 19.6806 39.1025 19.6806C39.1315 19.6806 39.1601 19.6749 39.1869 19.6638C39.2137 19.6528 39.238 19.6365 39.2585 19.616C39.2789 19.5955 39.2952 19.5712 39.3063 19.5445C39.3174 19.5177 39.3231 19.489 39.3231 19.46C39.3231 19.4311 39.3174 19.4024 39.3063 19.3756C39.2952 19.3489 39.2789 19.3245 39.2585 19.3041C39.238 19.2836 39.2137 19.2673 39.1869 19.2562C39.1601 19.2451 39.1315 19.2394 39.1025 19.2394Z" fill="#C9A94C"/>
<path d="M7.87275 19.1895C7.86577 19.1893 7.85895 19.1894 7.85258 19.1898L3.44073 19.4545L7.85258 19.7192C7.94307 19.7246 8.14211 19.6861 8.14211 19.4545C8.14211 19.2587 7.97733 19.192 7.87275 19.1895ZM8.58312 19.2339C8.55415 19.2339 8.52547 19.2396 8.49871 19.2507C8.47194 19.2618 8.44763 19.2781 8.42714 19.2985C8.40666 19.319 8.39041 19.3433 8.37932 19.3701C8.36824 19.3969 8.36253 19.4256 8.36253 19.4545C8.36253 19.4835 8.36824 19.5122 8.37932 19.5389C8.39041 19.5657 8.40666 19.59 8.42714 19.6105C8.44763 19.631 8.47194 19.6472 8.49871 19.6583C8.52547 19.6694 8.55415 19.6751 8.58312 19.6751C8.61209 19.6751 8.64078 19.6694 8.66754 19.6583C8.6943 19.6472 8.71862 19.631 8.73911 19.6105C8.75959 19.59 8.77584 19.5657 8.78693 19.5389C8.79801 19.5122 8.80372 19.4835 8.80372 19.4545C8.80372 19.4256 8.79801 19.3969 8.78693 19.3701C8.77584 19.3433 8.75959 19.319 8.73911 19.2985C8.71862 19.2781 8.6943 19.2618 8.66754 19.2507C8.64078 19.2396 8.61209 19.2339 8.58312 19.2339Z" fill="#C9A94C"/>
<path d="M30.6648 12.4415C29.9606 12.4365 29.2561 12.5251 28.5762 12.7105C27.1779 13.1179 25.7043 13.6881 24.7784 14.8706C24.1263 15.792 23.8439 17.0571 24.2429 18.1383C24.6171 19.1853 25.5035 19.7668 26.4334 20.2878C26.4334 20.2878 26.0082 20.3567 25.5463 20.5946C23.9045 21.4403 23.6802 23.5465 24.781 24.6577C25.8553 25.7421 27.1566 26.0144 28.4757 26.2715C30.2711 26.6212 32.177 26.6184 33.9609 26.1238C35.1406 25.708 36.388 25.0886 36.9666 23.9118C37.8204 22.3926 37.2647 20.4345 36.0789 19.2585C35.6483 18.8705 35.1754 18.5539 34.6744 18.2901C35.3667 18.1375 36.0148 17.6801 36.3121 17.0266C36.7847 16.0749 36.4312 14.9066 35.6338 14.2504C34.2611 13.0772 32.4644 12.4542 30.6648 12.4415ZM30.64 13.1641C31.0868 13.1655 31.5329 13.2074 31.9697 13.2894C33.048 13.5369 34.1291 14.1181 34.7349 15.0691C35.1619 15.9415 35.012 17.3736 34.4541 17.8627C34.3474 17.9564 34.2781 18.0247 34.2372 18.0756C32.9643 17.4971 31.5431 17.213 30.1796 16.9616C29.1572 16.7283 28.0316 16.5602 27.2103 15.8567C26.5087 15.2175 27.0256 14.0917 27.7738 13.7477C28.6708 13.3547 29.657 13.1613 30.64 13.1641ZM34.9482 14.4263C34.9482 14.4263 35.9762 15.0921 35.9188 16.1028C35.8515 17.2897 34.9482 17.6911 34.9482 17.6911C34.9482 17.6911 35.4212 16.9813 35.4225 16.1469C35.4242 15.0629 34.9482 14.4263 34.9482 14.4263ZM25.5777 15.2844C25.5857 15.2837 25.5951 15.2864 25.6053 15.2956C25.62 15.309 25.6056 15.3439 25.6056 15.3439L24.7798 17.603V16.7207L25.5553 15.2946C25.5553 15.2946 25.5644 15.2853 25.5777 15.2844ZM26.174 15.916C26.18 15.9157 26.1867 15.917 26.194 15.9217C26.21 15.9324 26.2 15.9586 26.2 15.9586L25.227 18.5383L25.0067 18.1941L26.1516 15.9269C26.1516 15.9269 26.1608 15.9171 26.174 15.916ZM26.7613 16.6233C26.7673 16.623 26.7742 16.6243 26.7815 16.629C26.7975 16.6396 26.7875 16.6658 26.7875 16.6658L25.8697 19.1189L25.5943 18.9014L26.7391 16.6341C26.7391 16.6341 26.7481 16.6244 26.7613 16.6233ZM27.379 17.1527C27.385 17.1524 27.3919 17.1537 27.3992 17.1584C27.4152 17.1691 27.4052 17.1953 27.4052 17.1953L26.548 19.6207L26.2285 19.3812L27.3568 17.1636C27.3568 17.1636 27.3657 17.1538 27.379 17.1527ZM28.0849 17.5057C28.0909 17.5053 28.0978 17.5067 28.1051 17.5114C28.1211 17.522 28.1111 17.5482 28.1111 17.5482L27.2622 20.0041L26.8902 19.7948L28.0627 17.5165C28.0627 17.5165 28.0716 17.5068 28.0849 17.5057ZM28.9431 17.6387C28.9482 17.6389 28.9537 17.6407 28.9595 17.6446C28.9755 17.6552 28.9655 17.6815 28.9655 17.6815L27.9775 20.3382L27.6427 20.179L28.9171 17.6497C28.9171 17.6497 28.9279 17.638 28.9431 17.6387ZM29.7024 17.8967C29.7075 17.8969 29.7132 17.8987 29.719 17.9026C29.735 17.9132 29.725 17.9394 29.725 17.9394L28.748 20.6401L28.3484 20.4869L29.6766 17.9077C29.6766 17.9077 29.6872 17.896 29.7024 17.8967ZM30.4755 18.1219C30.4816 18.1216 30.4883 18.1229 30.4955 18.1276C30.5116 18.1383 30.5016 18.1645 30.5016 18.1645L29.5258 20.8711L29.1373 20.7475L30.4531 18.1328C30.4531 18.1328 30.4623 18.123 30.4755 18.1219ZM31.2697 18.3646C31.2757 18.3643 31.2824 18.3656 31.2897 18.3703C31.3057 18.3809 31.2957 18.4071 31.2957 18.4071L30.3282 21.0779L29.9342 20.9681L31.2473 18.3754C31.2473 18.3754 31.2565 18.3657 31.2697 18.3646ZM32.0859 18.4639C32.0919 18.4635 32.0986 18.4649 32.1059 18.4696C32.1219 18.4802 32.1119 18.5064 32.1119 18.5064L31.1609 21.2351L30.676 21.1391L32.0635 18.4747C32.0635 18.4747 32.0726 18.465 32.0859 18.4639ZM32.9021 18.6183C32.9081 18.6179 32.9148 18.6193 32.922 18.624C32.9381 18.6346 32.9281 18.6609 32.9281 18.6609L31.944 21.3454L31.5308 21.288L32.8797 18.6291C32.8797 18.6291 32.8889 18.6194 32.9021 18.6183ZM33.6438 18.9174C33.6498 18.9171 33.6567 18.9185 33.664 18.9232C33.68 18.9338 33.67 18.96 33.67 18.96L32.7687 21.4903L32.3499 21.4327L33.6216 18.9283C33.6216 18.9283 33.6306 18.9186 33.6438 18.9174ZM34.4379 19.1822C34.4439 19.1818 34.4508 19.1832 34.4581 19.1878C34.4742 19.1985 34.4642 19.2247 34.4642 19.2247L33.577 21.7031L33.1795 21.5892L34.4157 19.193C34.4157 19.193 34.4247 19.1832 34.4379 19.1822ZM35.0566 19.6483C35.0626 19.648 35.0694 19.6493 35.0766 19.654C35.0926 19.6647 35.0828 19.6909 35.0828 19.6909L34.2309 21.9563L33.928 21.8024L35.0342 19.6592C35.0342 19.6592 35.0434 19.6494 35.0566 19.6483ZM35.6733 20.3292C35.6793 20.3289 35.6862 20.3302 35.6934 20.3349C35.7095 20.3456 35.6995 20.3718 35.6995 20.3718L35.0072 22.394L34.6854 22.1784L35.651 20.3401C35.651 20.3401 35.66 20.3303 35.6733 20.3292ZM26.9599 20.549C26.9758 20.5579 26.9923 20.567 27.0081 20.576C28.1786 21.1714 29.4693 21.5321 30.7594 21.776C32.0943 22.0491 33.6183 22.0001 34.6801 22.9839C35.3644 23.5767 35.0508 24.782 34.2666 25.1394C32.9269 25.8517 31.3537 25.7318 29.8843 25.7582C29.1881 25.6897 28.4686 25.6602 27.804 25.4315C26.7634 24.9435 25.7733 24.0609 25.5186 22.8995C25.4476 21.91 26.2063 21.092 26.9599 20.549ZM26.2624 20.7022C26.2624 20.7022 25.6265 21.29 25.4186 21.6618C25.2234 22.0109 25.1044 22.4859 25.0657 22.8088C25.0148 23.2341 25.2186 23.6655 25.4186 24.0442C25.6517 24.4853 26.3756 25.1952 26.3756 25.1952C26.3756 25.1952 25.4481 24.6505 25.1539 24.2206C24.8755 23.8138 24.7028 23.6176 24.7127 22.8088C24.7181 22.3716 24.8936 21.9248 25.1539 21.5735C25.5552 21.0322 26.2624 20.7022 26.2624 20.7022ZM36.2027 21.2116C36.2087 21.2113 36.2156 21.2126 36.2229 21.2173C36.2389 21.228 36.2289 21.2542 36.2289 21.2542L35.5868 23.1282L35.3334 22.7067L36.1805 21.2225C36.1805 21.2225 36.1894 21.2127 36.2027 21.2116ZM36.6173 22.1465C36.6224 22.1468 36.6279 22.1482 36.6337 22.1522C36.6497 22.1629 36.6397 22.1893 36.6397 22.1893L35.777 24.4105L35.7663 23.7851L36.5913 22.1576C36.5913 22.1576 36.6021 22.1458 36.6173 22.1465Z" fill="#C9A94C"/>
<path d="M16.893 12.4402C16.1888 12.4352 15.4843 12.5237 14.8044 12.7092C13.4061 13.1166 11.9325 13.6867 11.0066 14.8693C10.3545 15.7907 10.0721 17.0558 10.4712 18.137C10.8454 19.1839 11.7317 19.7655 12.6616 20.2864C12.6616 20.2864 12.2364 20.3554 11.7745 20.5933C10.1327 21.439 9.90839 23.5451 11.0092 24.6563C12.0835 25.7408 13.3848 26.0131 14.7039 26.2701C16.4993 26.6199 18.4052 26.6171 20.1891 26.1224C21.3688 25.7066 22.6162 25.0872 23.1949 23.9105C24.0486 22.3913 23.493 20.4331 22.3071 19.2572C21.8765 18.8692 21.4036 18.5525 20.9026 18.2888C21.5949 18.1361 22.243 17.6787 22.5403 17.0252C23.0129 16.0735 22.6594 14.9053 21.862 14.249C20.4894 13.0759 18.6926 12.4529 16.893 12.4402ZM16.8682 13.1628C17.315 13.1641 17.7612 13.206 18.1979 13.2881C19.2762 13.5356 20.3573 14.1168 20.9631 15.0678C21.3901 15.9402 21.2402 17.3723 20.6823 17.8614C20.5756 17.955 20.5063 18.0233 20.4654 18.0742C19.1925 17.4958 17.7713 17.2117 16.4079 16.9602C15.3854 16.727 14.2598 16.5589 13.4385 15.8554C12.7369 15.2161 13.2538 14.0904 14.002 13.7463C14.899 13.3534 15.8852 13.1599 16.8682 13.1628ZM21.1764 14.425C21.1764 14.425 22.2044 15.0908 22.147 16.1015C22.0797 17.2883 21.1764 17.6897 21.1764 17.6897C21.1764 17.6897 21.6494 16.9799 21.6507 16.1456C21.6524 15.0616 21.1764 14.425 21.1764 14.425ZM11.8059 15.2831C11.8139 15.2824 11.8233 15.2851 11.8335 15.2943C11.8482 15.3077 11.834 15.3425 11.834 15.3425L11.0081 17.6017V16.7193L11.7837 15.2932C11.7837 15.2932 11.7926 15.284 11.8059 15.2831ZM12.4022 15.9147C12.4082 15.9143 12.4149 15.9157 12.4222 15.9203C12.4382 15.931 12.4282 15.9572 12.4282 15.9572L11.4552 18.5369L11.235 18.1928L12.3798 15.9255C12.3798 15.9255 12.389 15.9158 12.4022 15.9147ZM12.9895 16.6219C12.9955 16.6216 13.0024 16.6229 13.0097 16.6276C13.0257 16.6383 13.0157 16.6645 13.0157 16.6645L12.0979 19.1176L11.8225 18.9001L12.9673 16.6328C12.9673 16.6328 12.9763 16.623 12.9895 16.6219ZM13.6072 17.1514C13.6132 17.151 13.6201 17.1524 13.6274 17.157C13.6434 17.1677 13.6334 17.1939 13.6334 17.1939L12.7762 19.6194L12.4567 19.3798L13.585 17.1622C13.585 17.1622 13.594 17.1525 13.6072 17.1514ZM14.3131 17.5043C14.3191 17.504 14.326 17.5053 14.3332 17.51C14.3493 17.5207 14.3393 17.5469 14.3393 17.5469L13.4903 20.0027L13.1184 19.7935L14.2909 17.5152C14.2909 17.5152 14.2999 17.5054 14.3131 17.5043ZM15.1713 17.6374C15.1764 17.6376 15.1819 17.6394 15.1877 17.6432C15.2037 17.6539 15.1937 17.6801 15.1937 17.6801L14.2057 20.3369L13.8709 20.1776L15.1453 17.6484C15.1453 17.6484 15.1561 17.6367 15.1713 17.6374ZM15.9307 17.8953C15.9357 17.8956 15.9414 17.8973 15.9472 17.9012C15.9632 17.9119 15.9532 17.9381 15.9532 17.9381L14.9762 20.6388L14.5766 20.4856L15.9048 17.9064C15.9048 17.9064 15.9154 17.8946 15.9307 17.8953ZM16.7038 18.1206C16.7098 18.1203 16.7165 18.1216 16.7237 18.1263C16.7398 18.137 16.7298 18.1632 16.7298 18.1632L15.754 20.8697L15.3656 20.7462L16.6814 18.1315C16.6814 18.1315 16.6905 18.1217 16.7038 18.1206ZM17.4979 18.3632C17.5039 18.3629 17.5106 18.3642 17.5179 18.3689C17.5339 18.3796 17.5239 18.4058 17.5239 18.4058L16.5564 21.0765L16.1624 20.9667L17.4755 18.3741C17.4755 18.3741 17.4847 18.3643 17.4979 18.3632ZM18.3141 18.4625C18.3201 18.4622 18.3268 18.4635 18.3341 18.4682C18.3501 18.4789 18.3401 18.5051 18.3401 18.5051L17.3891 21.2337L16.9042 21.1377L18.2917 18.4734C18.2917 18.4734 18.3009 18.4636 18.3141 18.4625ZM19.1303 18.6169C19.1363 18.6166 19.143 18.6179 19.1503 18.6226C19.1663 18.6333 19.1563 18.6595 19.1563 18.6595L18.1722 21.344L17.759 21.2866L19.1079 18.6278C19.1079 18.6278 19.1171 18.618 19.1303 18.6169ZM19.872 18.9161C19.878 18.9158 19.8849 18.9171 19.8922 18.9218C19.9082 18.9325 19.8982 18.9587 19.8982 18.9587L18.9969 21.489L18.5781 21.4314L19.8498 18.927C19.8498 18.927 19.8588 18.9172 19.872 18.9161ZM20.6661 19.1808C20.6722 19.1805 20.679 19.1818 20.6863 19.1865C20.7023 19.1972 20.6923 19.2234 20.6923 19.2234L19.8052 21.7018L19.4077 21.5878L20.6439 19.1917C20.6439 19.1917 20.6529 19.1819 20.6661 19.1808ZM21.2848 19.647C21.2908 19.6467 21.2976 19.648 21.3048 19.6527C21.3209 19.6634 21.311 19.6896 21.311 19.6896L20.4592 21.955L20.1562 21.8011L21.2624 19.6579C21.2624 19.6579 21.2716 19.6481 21.2848 19.647ZM21.9015 20.3279C21.9075 20.3276 21.9144 20.3289 21.9216 20.3336C21.9377 20.3443 21.9277 20.3705 21.9277 20.3705L21.2354 22.3927L20.9136 22.1771L21.8793 20.3388C21.8793 20.3388 21.8882 20.329 21.9015 20.3279ZM13.1881 20.5476C13.204 20.5566 13.2205 20.5657 13.2363 20.5747C14.4068 21.1701 15.6975 21.5307 16.9876 21.7747C18.3225 22.0477 19.8465 21.9987 20.9083 22.9826C21.5926 23.5754 21.279 24.7807 20.4948 25.138C19.1551 25.8504 17.5819 25.7304 16.1125 25.7569C15.4163 25.6884 14.6968 25.6588 14.0322 25.4301C12.9916 24.9421 12.0015 24.0596 11.7468 22.8981C11.6758 21.9086 12.4345 21.0906 13.1881 20.5476ZM12.4906 20.7008C12.4906 20.7008 11.8547 21.2887 11.6468 21.6604C11.4516 22.0096 11.3326 22.4845 11.2939 22.8075C11.243 23.2327 11.4468 23.6641 11.6468 24.0428C11.8799 24.484 12.6038 25.1939 12.6038 25.1939C12.6038 25.1939 11.6763 24.6492 11.3821 24.2193C11.1037 23.8124 10.9311 23.6163 10.941 22.8075C10.9463 22.3703 11.1218 21.9234 11.3821 21.5722C11.7834 21.0308 12.4906 20.7008 12.4906 20.7008ZM22.4309 21.2103C22.4369 21.2099 22.4438 21.2113 22.4511 21.216C22.4671 21.2266 22.4571 21.2529 22.4571 21.2529L21.815 23.1268L21.5616 22.7053L22.4087 21.2211C22.4087 21.2211 22.4176 21.2114 22.4309 21.2103ZM22.8455 22.1452C22.8506 22.1454 22.8561 22.1469 22.8619 22.1509C22.878 22.1615 22.8679 22.1879 22.8679 22.1879L22.0052 24.4092L21.9945 23.7838L22.8195 22.1562C22.8195 22.1562 22.8304 22.1445 22.8455 22.1452Z" fill="#C9A94C"/>
</g>
<defs>
<clipPath id="clip0_80_264">
<rect width="48" height="48" fill="white"/>
</clipPath>
</defs>
</svg>
