<?xml version="1.0" encoding="UTF-8" standalone="no"?>
<!-- Created with Inkscape (http://www.inkscape.org/) -->

<svg
   width="368.16794mm"
   height="46.866234mm"
   viewBox="0 0 429.05005 47.195514"
   preserveAspectRatio="xMidYMid"
   style="overflow:visible"
   version="1.1"
   id="svg1"
   xmlns="http://www.w3.org/2000/svg"
   xmlns:svg="http://www.w3.org/2000/svg">
  <defs
     id="defs1" />
  <g
     id="layer1"
     transform="translate(-0.74748402,-23.174735)">
    <g
       id="g1"
       transform="matrix(1.4431399,0,0,1.4431399,-0.33124,-20.731418)">
      <path
         d="m 18.471175,27.853659 c -1.889393,-0.01318 -3.779603,0.224006 -5.603789,0.721706 -3.7517107,1.093074 -7.7054287,2.62267 -10.1896717,5.795618 -1.749554,2.472143 -2.5072517,5.86644 -1.436511,8.767338 1.00392,2.808861 3.381984,4.369314 5.876974,5.766899 -5.8123697,1.019985 -8.2532305,7.868796 -4.433463,11.724566 2.882357,2.90975 6.2567594,3.776837 9.7960287,4.466386 4.817082,0.938502 10.04768,0.7945 14.833934,-0.532801 3.165183,-1.115607 6.511979,-2.777477 8.064607,-5.934596 2.290551,-4.076059 0.800093,-9.329968 -2.381928,-12.484946 -1.155316,-1.041013 -2.4241,-1.890733 -3.768341,-2.598242 1.857453,-0.40968 3.59636,-1.636924 4.394021,-3.390282 1.267973,-2.55344 0.319429,-5.687753 -1.819933,-7.448626 -3.682757,-3.147464 -8.503594,-4.818989 -13.331928,-4.85306 z m -0.07099,1.938748 c 1.19882,0.0035 2.396019,0.115908 3.567659,0.33616 2.893106,0.664006 5.793723,2.223426 7.419154,4.77499 1.145585,2.34067 0.743308,6.183039 -0.753446,7.495312 -0.285962,0.251182 -0.472546,0.434423 -0.582067,0.570915 -3.415146,-1.551865 -7.228308,-2.314111 -10.886326,-2.988897 -2.74343,-0.625675 -5.763399,-1.076697 -7.9670487,-2.964205 -1.8824,-1.71527 -0.49588,-4.735552 1.5119607,-5.658781 2.406667,-1.054166 5.052648,-1.573333 7.690007,-1.565555 z M 8.5263943,49.606006 c 0.04055,0.02434 0.09127,0.04867 0.128784,0.07301 3.1405427,1.597478 6.6035527,2.564971 10.0649427,3.219636 3.58155,0.732455 7.670439,0.601032 10.519336,3.24083 1.835951,1.5905 0.994786,4.824354 -1.109486,5.783004 -3.594433,1.911389 -7.815348,1.589425 -11.757805,1.660521 -1.867897,-0.183748 -3.667536,-0.165691 -5.581482,-0.876856 -2.8906687,-1.074086 -6.2280586,-3.23195 -6.2696957,-6.793433 -0.032774,-2.803364 1.98297,-4.849582 4.004901,-6.306471 z"
         fill="#c9a94c"
         id="path8"
         style="fill:#000000;fill-opacity:1;stroke-width:2.68303" />
      <path
         d="m 55.421691,27.85352 c -1.889393,-0.01318 -3.779603,0.224006 -5.603789,0.721706 -3.751711,1.093074 -7.705429,2.62267 -10.189672,5.795618 -1.749554,2.472143 -2.507251,5.86644 -1.436511,8.767338 1.00392,2.808861 3.381984,4.369314 5.876974,5.766899 -5.812369,1.019985 -8.253231,7.868796 -4.433463,11.724566 2.882357,2.90975 6.25676,3.776837 9.796029,4.466386 4.817082,0.938502 10.04768,0.7945 14.833934,-0.532801 3.165183,-1.115607 6.511979,-2.777477 8.064607,-5.934596 2.290551,-4.076059 0.800093,-9.329968 -2.381928,-12.484946 -1.155316,-1.041013 -2.4241,-1.890733 -3.768341,-2.598242 1.857453,-0.40968 3.59636,-1.636924 4.394021,-3.390282 1.267973,-2.55344 0.319429,-5.687753 -1.819933,-7.448626 -3.682757,-3.147464 -8.503594,-4.818989 -13.331928,-4.85306 z m -0.07099,1.938748 c 1.19882,0.0035 2.396019,0.115908 3.567659,0.33616 2.893106,0.664006 5.793723,2.223426 7.419154,4.77499 1.145585,2.34067 0.743308,6.183039 -0.753446,7.495312 -0.285962,0.251182 -0.472546,0.434423 -0.582067,0.570915 -3.415146,-1.551865 -7.228308,-2.314111 -10.886326,-2.988897 -2.74343,-0.625675 -5.763399,-1.076697 -7.967049,-2.964205 -1.8824,-1.71527 -0.49588,-4.735552 1.511961,-5.658781 2.406667,-1.054166 5.052648,-1.573333 7.690007,-1.565555 z M 45.47691,49.605867 c 0.04055,0.02434 0.09127,0.04867 0.128784,0.07301 3.140543,1.597478 6.603553,2.564971 10.064943,3.219636 3.58155,0.732455 7.670439,0.601032 10.519336,3.24083 1.835951,1.5905 0.994786,4.824354 -1.109486,5.783004 -3.594433,1.911389 -7.815348,1.589425 -11.757805,1.660521 -1.867897,-0.183748 -3.667536,-0.165691 -5.581482,-0.876856 -2.890669,-1.074086 -6.228059,-3.23195 -6.269696,-6.793433 -0.03277,-2.803364 1.98297,-4.849582 4.004901,-6.306471 z"
         fill="#c9a94c"
         id="path8-8"
         style="fill:#000000;fill-opacity:1;stroke-width:2.68303" />
    </g>
    <path
       d="m 119.86677,49.997376 v 10.922 c 0,2.286 -1.3716,2.54 -3.2512,2.54 v 2.1844 h 3.2512 c 2.8448,0 2.286,-1.6256 3.7592,-1.6256 1.4732,0 0.9144,1.6256 3.81,1.6256 h 6.6548 c 5.6896,0 9.5504,-2.286 9.5504,-7.0612 v -6.7564 c 0,-2.6924 -1.9812,-4.2672 -4.0132,-5.1308 2.032,-0.8636 3.5052,-2.4384 3.5052,-5.0292 v -6.9088 c 0,-4.6736 -3.3528,-6.908799 -9.0424,-6.908799 h -6.6548 c -2.8956,0 -2.3368,1.625599 -3.81,1.625599 -1.4732,0 -0.9144,-1.625599 -3.7592,-1.625599 h -3.2512 v 2.184399 c 1.8796,0 3.2512,0.254 3.2512,2.4892 v 10.9728 c 0,1.778 -1.27,2.3876 -2.54,3.2512 1.27,0.8636 2.54,1.4732 2.54,3.2512 z m 9.7028,13.462 c -1.27,0 -2.1336,-0.6604 -2.1336,-2.54 v -13.1572 h 3.2004 c 3.9116,0 5.4864,1.8288 5.4864,3.8608 v 7.0104 c 0,3.1496 -2.2352,4.826 -6.5532,4.826 z m 0,-33.4264 c 4.318,0 5.9944,1.5748 5.9944,4.7244 v 7.112 c 0,1.9812 -1.016,3.7592 -4.9276,3.7592 h -3.2004 v -13.1572 c 0,-1.778 0.8636,-2.4384 2.1336,-2.4384 z m 42.82442,19.9644 c -0.4572,-1.778 0.6096,-2.3876 1.6764,-3.2512 -1.5748,-0.8636 -2.8956,-1.4732 -3.4036,-3.2512 l -2.9464,-10.9728 c -0.6096,-2.2352 0.1016,-2.4892 1.9812,-2.4892 v -2.184399 h -3.2512 c -2.8448,0 -2.3876,1.625599 -3.8608,1.625599 -1.4732,0 -1.0668,-1.625599 -3.9624,-1.625599 h -3.2004 v 2.184399 c 1.524,0 2.3876,0.6096 2.1844,1.3716 l -2.9972,12.0904 c -0.4572,1.778 -1.8288,2.3876 -3.4036,3.2512 1.0668,0.8636 2.1336,1.4732 1.6764,3.2512 l -2.9464,10.922 c -0.5588,2.286 -2.6416,2.54 -4.5212,2.54 v 2.1844 h 3.2512 c 2.8448,0 2.7432,-1.6256 3.4036,-1.6256 0.6096,0 -0.1016,1.6256 2.7432,1.6256 h 3.2512 v -2.1844 c -1.9304,0 -2.5908,-0.254 -1.9812,-2.54 l 1.9812,-7.2136 h 7.4676 l 1.9812,7.2136 c 0.6096,2.286 -0.0508,2.54 -1.9812,2.54 v 2.1844 h 3.2512 c 2.8448,0 2.1844,-1.6256 3.6068,-1.6256 1.4732,0 1.3716,1.6256 4.2164,1.6256 h 3.2512 v -2.1844 c -1.8796,0 -3.9624,-0.254 -4.5212,-2.54 z m -13.7668,1.5748 3.2004,-11.8872 3.2004,11.8872 z m 34.03595,-3.7592 c 2.286,0 3.6576,1.0668 4.1148,3.302 l 2.286,11.2268 c 0.4572,2.2352 1.778,3.302 4.0132,3.302 h 7.1628 v -2.1844 c -1.8796,0 -3.2004,-0.254 -3.7084,-2.54 l -2.2352,-10.5156 c -0.3048,-1.5748 -1.4224,-2.9972 -3.4036,-3.4036 3.6576,-0.762 6.7564,-2.3368 6.7564,-5.7912 v -5.9436 c 0,-5.5372 -4.0132,-7.416799 -9.4996,-7.416799 h -6.6548 c -2.8956,0 -2.3368,1.625599 -3.81,1.625599 -1.4732,0 -0.9144,-1.625599 -3.7592,-1.625599 h -3.2512 v 2.184399 c 1.8796,0 3.2512,0.254 3.2512,2.4892 v 10.9728 c 0,1.778 -1.27,2.3876 -2.54,3.2512 1.27,0.8636 2.54,1.4732 2.54,3.2512 v 10.922 c 0,2.286 -1.3716,2.54 -3.2512,2.54 v 2.1844 h 3.2512 c 2.8448,0 2.286,-1.6256 3.7592,-1.6256 1.4732,0 0.9144,1.6256 3.81,1.6256 h 3.2004 v -2.1844 c -1.8796,0 -3.2004,-0.254 -3.2004,-2.54 v -13.1064 z m 2.032,-17.78 c 2.9464,0 5.4356,1.0668 5.4356,5.7912 v 4.9276 c 0,4.064 -2.2352,4.9276 -6.5024,4.9276 h -2.1336 v -13.1572 c 0,-1.8288 0.8636,-2.4892 3.2004,-2.4892 z m 20.47239,19.9644 v 10.922 c 0,2.286 -1.3716,2.54 -3.2512,2.54 v 2.1844 h 3.2512 c 2.8448,0 2.286,-1.6256 3.7592,-1.6256 1.4732,0 0.9144,1.6256 3.81,1.6256 h 6.6548 c 5.6896,0 9.5504,-2.286 9.5504,-7.0612 v -6.7564 c 0,-2.6924 -1.9812,-4.2672 -4.0132,-5.1308 2.032,-0.8636 3.5052,-2.4384 3.5052,-5.0292 v -6.9088 c 0,-4.6736 -3.3528,-6.908799 -9.0424,-6.908799 h -6.6548 c -2.8956,0 -2.3368,1.625599 -3.81,1.625599 -1.4732,0 -0.9144,-1.625599 -3.7592,-1.625599 h -3.2512 v 2.184399 c 1.8796,0 3.2512,0.254 3.2512,2.4892 v 10.9728 c 0,1.778 -1.27,2.3876 -2.54,3.2512 1.27,0.8636 2.54,1.4732 2.54,3.2512 z m 9.7028,13.462 c -1.27,0 -2.1336,-0.6604 -2.1336,-2.54 v -13.1572 h 3.2004 c 3.9116,0 5.4864,1.8288 5.4864,3.8608 v 7.0104 c 0,3.1496 -2.2352,4.826 -6.5532,4.826 z m 0,-33.4264 c 4.318,0 5.9944,1.5748 5.9944,4.7244 v 7.112 c 0,1.9812 -1.016,3.7592 -4.9276,3.7592 h -3.2004 v -13.1572 c 0,-1.778 0.8636,-2.4384 2.1336,-2.4384 z m 27.58445,35.6108 h 12.5476 v -2.794 c 0,-1.2192 -1.1684,-1.27 -1.1684,-1.8796 0,-0.6096 1.1684,-0.9144 1.1684,-1.9304 v -5.4864 c -0.9652,0.508 -1.9812,0.8128 -2.9464,0.8128 -1.016,0 -2.032,-0.3048 -2.9972,-0.8128 v 6.2484 c 0,2.2352 -1.27,3.6576 -3.1496,3.6576 h -0.3556 c -1.8796,0 -3.0988,-0.254 -3.0988,-2.54 v -13.1064 h 2.6416 c 2.1336,0 3.1496,1.016 3.1496,3.2004 v 0.0508 h 2.1844 v -8.636 h -2.1844 v 0.0508 c 0,2.1844 -1.016,3.2004 -3.1496,3.2004 h -2.6416 v -13.1572 c 0,-2.2352 1.3208,-2.4892 3.2004,-2.4892 h 0.254 c 1.8796,0 3.1496,1.4224 3.1496,3.6576 v 6.2484 c 0.9652,-0.5588 1.9812,-0.8128 2.9972,-0.8128 0.9652,0 1.9812,0.254 2.9464,0.8128 v -5.4864 c 0,-1.0668 -1.1684,-1.3208 -1.1684,-1.9812 0,-0.5588 1.1684,-0.6096 1.1684,-1.8288 v -2.793999 h -12.5476 c -2.8956,0 -2.3368,1.625599 -3.81,1.625599 -1.4732,0 -0.9144,-1.625599 -3.7592,-1.625599 h -3.2512 v 2.184399 c 1.8796,0 3.2512,0.254 3.2512,2.4892 v 10.9728 c 0,1.778 -1.27,2.3876 -2.54,3.2512 1.27,0.8636 2.54,1.4732 2.54,3.2512 v 10.922 c 0,2.286 -1.3716,2.54 -3.2512,2.54 v 2.1844 h 3.2512 c 2.8448,0 2.286,-1.6256 3.7592,-1.6256 1.4732,0 0.9144,1.6256 3.81,1.6256 z m 27.53356,-17.8308 c 2.286,0 3.6576,1.0668 4.1148,3.302 l 2.286,11.2268 c 0.4572,2.2352 1.778,3.302 4.0132,3.302 h 7.1628 v -2.1844 c -1.8796,0 -3.2004,-0.254 -3.7084,-2.54 l -2.2352,-10.5156 c -0.3048,-1.5748 -1.4224,-2.9972 -3.4036,-3.4036 3.6576,-0.762 6.7564,-2.3368 6.7564,-5.7912 v -5.9436 c 0,-5.5372 -4.0132,-7.416799 -9.4996,-7.416799 h -6.6548 c -2.8956,0 -2.3368,1.625599 -3.81,1.625599 -1.4732,0 -0.9144,-1.625599 -3.7592,-1.625599 h -3.2512 v 2.184399 c 1.8796,0 3.2512,0.254 3.2512,2.4892 v 10.9728 c 0,1.778 -1.27,2.3876 -2.54,3.2512 1.27,0.8636 2.54,1.4732 2.54,3.2512 v 10.922 c 0,2.286 -1.3716,2.54 -3.2512,2.54 v 2.1844 h 3.2512 c 2.8448,0 2.286,-1.6256 3.7592,-1.6256 1.4732,0 0.9144,1.6256 3.81,1.6256 h 3.2004 v -2.1844 c -1.8796,0 -3.2004,-0.254 -3.2004,-2.54 v -13.1064 z m 2.032,-17.78 c 2.9464,0 5.4356,1.0668 5.4356,5.7912 v 4.9276 c 0,4.064 -2.2352,4.9276 -6.5024,4.9276 h -2.1336 v -13.1572 c 0,-1.8288 0.8636,-2.4892 3.2004,-2.4892 z m 42.26563,0 c 2.032,0 3.3528,0.9652 3.3528,3.6576 v 6.2484 c 0.9652,-0.5588 1.9812,-0.8128 2.9972,-0.8128 0.9652,0 1.9812,0.254 2.9464,0.8128 v -5.4864 c 0,-1.0668 -1.2192,-1.3208 -1.2192,-1.9812 0,-0.5588 1.2192,-0.6096 1.2192,-1.8288 v -2.793999 h -12.0396 c -4.6228,0 -9.398,2.438399 -9.398,7.162799 v 2.794 c 0,5.5372 2.4892,6.4008 5.1816,9.0424 0.762,0.762 0.4572,1.9812 0.3048,3.2004 0.8636,-0.3048 1.7272,-0.7112 2.4892,-0.7112 0.254,0 0.5588,0.0508 0.8128,0.2032 3.4544,2.1336 6.35,3.9624 6.35,7.5692 0,3.7084 -1.6256,6.1468 -5.7912,6.1468 -2.5908,0 -3.2004,-1.4732 -3.2004,-3.4544 v -6.2484 c -0.9652,0.508 -1.9304,0.8128 -2.9464,0.8128 -1.016,0 -1.9812,-0.3048 -2.9972,-0.8128 v 5.4864 c 0,1.016 1.2192,1.3208 1.2192,1.9304 0,0.6096 -1.2192,0.6604 -1.2192,1.8796 v 2.794 h 11.5316 c 5.2324,0 10.922,-2.2352 10.922,-6.7564 v -2.9972 c 0,-6.35 -3.556,-7.9248 -6.9088,-10.7696 -0.8128,-0.7112 -0.3556,-1.9812 -0.254,-3.2004 -0.8636,0.3048 -1.7272,0.7112 -2.54,0.7112 -0.4064,0 -0.762,-0.1016 -1.1684,-0.3556 -2.54,-1.778 -4.318,-3.1496 -4.318,-6.9596 0,-2.3876 1.1176,-5.2832 4.6736,-5.2832 z m 16.45917,13.462 c 0,1.778 -1.27,2.3876 -2.54,3.2512 1.27,0.8636 2.54,1.4732 2.54,3.2512 v 10.922 c 0,2.286 -1.3716,2.54 -3.2512,2.54 v 2.1844 h 3.2512 c 2.8448,0 2.286,-1.6256 3.7592,-1.6256 1.4732,0 0.9144,1.6256 3.81,1.6256 h 3.2004 v -2.1844 c -1.8796,0 -3.2004,-0.254 -3.2004,-2.54 v -13.1064 h 10.7696 v 13.1064 c 0,2.286 -1.3716,2.54 -3.2512,2.54 v 2.1844 h 3.2512 c 2.8448,0 2.3368,-1.6256 3.7592,-1.6256 1.4732,0 0.9144,1.6256 3.81,1.6256 h 3.2512 v -2.1844 c -1.9304,0 -3.2512,-0.254 -3.2512,-2.54 v -10.922 c 0,-1.778 1.2192,-2.3876 2.54,-3.2512 -1.3208,-0.8636 -2.54,-1.4732 -2.54,-3.2512 v -10.9728 c 0,-2.2352 1.3208,-2.4892 3.2512,-2.4892 v -2.184399 h -3.2512 c -2.8956,0 -2.3368,1.625599 -3.81,1.625599 -1.4224,0 -0.9144,-1.625599 -3.7592,-1.625599 h -3.2512 v 2.184399 c 1.8796,0 3.2512,0.254 3.2512,2.4892 v 13.1572 h -10.7696 v -13.1572 c 0,-2.2352 1.3208,-2.4892 3.2004,-2.4892 v -2.184399 h -3.2004 c -2.8956,0 -2.3368,1.625599 -3.81,1.625599 -1.4732,0 -0.9144,-1.625599 -3.7592,-1.625599 h -3.2512 v 2.184399 c 1.8796,0 3.2512,0.254 3.2512,2.4892 z m 33.68041,15.0876 c 0,4.7752 3.3528,7.0612 8.9916,7.0612 h 6.2992 c 5.6388,0 8.9916,-2.286 8.9916,-7.0612 v -8.5852 c 0,-1.778 1.27,-2.3876 2.54,-3.2512 -1.27,-0.8636 -2.54,-1.4732 -2.54,-3.2512 v -8.7376 c 0,-4.6736 -3.3528,-6.908799 -8.9916,-6.908799 h -6.2992 c -5.6388,0 -8.9916,2.235199 -8.9916,6.908799 v 8.7376 c 0,1.778 -1.2192,2.3876 -2.54,3.2512 1.3208,0.8636 2.54,1.4732 2.54,3.2512 z m 7.5692,0.0508 v -23.876 c 0,-2.7432 1.27,-4.7244 4.572,-4.7244 3.302,0 4.572,1.9812 4.572,4.7244 v 23.876 c 0,2.794 -1.27,4.826 -4.572,4.826 -3.302,0 -4.572,-2.032 -4.572,-4.826 z m 37.59198,-10.8204 c 4.5212,0 10.2108,-0.9652 10.2108,-6.1976 v -6.7056 c 0,-4.7752 -3.3528,-7.061199 -9.0424,-7.061199 h -6.6548 c -2.8956,0 -2.3368,1.625599 -3.81,1.625599 -1.4732,0 -0.9144,-1.625599 -3.7592,-1.625599 h -3.2512 v 2.184399 c 1.8796,0 3.2512,0.254 3.2512,2.4892 v 10.9728 c 0,1.778 -1.27,2.3876 -2.54,3.2512 1.27,0.8636 2.54,1.4732 2.54,3.2512 v 10.922 c 0,2.286 -1.3716,2.54 -3.2512,2.54 v 2.1844 h 3.2512 c 2.8448,0 2.286,-1.6256 3.7592,-1.6256 1.4732,0 0.9144,1.6256 3.81,1.6256 h 3.2004 v -2.1844 c -1.8796,0 -3.2004,-0.254 -3.2004,-2.54 v -13.1064 z m -3.3528,-17.78 c 4.318,0 5.9944,1.6256 5.9944,4.826 v 6.9596 c 0,2.032 -1.016,3.8608 -4.9276,3.8608 h -3.2004 v -13.1572 c 0,-1.8288 0.8636,-2.4892 2.1336,-2.4892 z"
       id="text1"
       style="font-size:50.8px;font-family:Westner;-inkscape-font-specification:Westner;stroke-width:1.89"
       aria-label="BARBER SHOP" />
  </g>
</svg>
