<?xml version="1.0" encoding="UTF-8" standalone="no"?>
<svg
   width="48"
   height="48"
   viewBox="0 0 48 48"
   fill="none"
   version="1.1"
   id="svg8"
   xmlns="http://www.w3.org/2000/svg"
   xmlns:svg="http://www.w3.org/2000/svg">
  <g
     clip-path="url(#clip0_80_264)"
     id="g8">
    <path
       d="m 23.9899,0.828766 c 3.0414,5.2e-5 6.0534,0.598814 8.8633,1.762694 2.8099,1.16392 5.3631,2.86995 7.5137,5.02051 2.1507,2.15067 3.8566,4.70463 5.0205,7.51463 1.1638,2.8099 1.7627,5.8219 1.7627,8.8633 -1e-4,3.0414 -0.5988,6.0534 -1.7627,8.8633 -1.1639,2.8098 -2.8699,5.3631 -5.0205,7.5137 -2.1506,2.1505 -4.7038,3.8565 -7.5137,5.0205 -2.8099,1.1638 -5.8219,1.7626 -8.8633,1.7627 -3.0414,0 -6.0534,-0.5989 -8.8633,-1.7627 C 12.3167,44.2234 9.76267,42.5175 7.612,40.3669 5.46144,38.2163 3.75541,35.663 2.59149,32.8532 1.42761,30.0433 0.82885,27.0313 0.828796,23.9899 0.828796,17.8473 3.26852,11.9554 7.612,7.61197 11.9555,3.26849 17.8473,0.828766 23.9899,0.828766 Z"
       stroke="#c9a94c"
       stroke-miterlimit="5"
       stroke-linecap="round"
       stroke-linejoin="round"
       id="path1" />
    <path
       d="m 32.220987,15.359332 c -0.864614,-0.0062 -1.729597,0.102645 -2.564375,0.330277 -1.716827,0.500204 -3.526106,1.200293 -4.662923,2.652163 -0.800645,1.13129 -1.147375,2.684575 -0.657484,4.012068 0.459441,1.285502 1.547759,1.999465 2.689487,2.639147 0,0 -0.522059,0.0846 -1.089178,0.376687 -2.015795,1.038347 -2.29119,3.624331 -0.939632,4.988658 1.319021,1.331422 2.916752,1.665751 4.536337,1.981417 2.204384,0.42936 4.54444,0.425922 6.734706,-0.181346 1.44843,-0.510517 2.979983,-1.271014 3.690386,-2.715884 1.048292,-1.865267 0.366005,-4.269414 -1.089915,-5.713303 -0.528689,-0.476384 -1.109313,-0.865104 -1.724439,-1.188997 0.850003,-0.187361 1.645737,-0.748955 2.010761,-1.55132 0.580256,-1.168493 0.146231,-2.602927 -0.832814,-3.408606 -1.685395,-1.440451 -3.891375,-2.205368 -6.100917,-2.220961 z m -0.03045,0.887205 c 0.54858,0.0017 1.096299,0.05317 1.632601,0.153843 1.323932,0.30388 2.651302,1.017475 3.395101,2.185109 0.524269,1.071129 0.340222,2.829455 -0.344766,3.429971 -0.131005,0.115044 -0.216092,0.198902 -0.266308,0.261397 -1.562862,-0.71028 -3.307805,-1.059097 -4.981905,-1.367764 -1.255298,-0.286446 -2.637305,-0.492838 -3.645694,-1.356592 -0.861421,-0.784807 -0.226774,-2.16706 0.691863,-2.589422 1.101333,-0.482523 2.312185,-0.719979 3.519108,-0.716542 z m 5.289591,1.549725 c 0,0 1.262173,0.817466 1.191698,2.058399 -0.08263,1.457271 -1.191698,1.950108 -1.191698,1.950108 0,0 0.580747,-0.871489 0.582343,-1.895962 0.0021,-1.33093 -0.582343,-2.112545 -0.582343,-2.112545 z m -11.505065,1.053571 c 0.0098,-8.91e-4 0.02136,0.0024 0.03389,0.01375 0.01805,0.01645 3.68e-4,0.0593 3.68e-4,0.0593 l -1.013914,2.773713 v -1.083283 l 0.952156,-1.750959 c 0,0 0.01117,-0.01142 0.02751,-0.01253 z m 0.732134,0.775476 c 0.0074,-3.68e-4 0.0156,0.0012 0.02456,0.007 0.01964,0.01313 0.0074,0.0453 0.0074,0.0453 L 25.544484,22.844921 25.274,22.422314 26.679703,19.638655 c 0,0 0.0113,-0.01203 0.02751,-0.01338 z m 0.721085,0.86842 c 0.0074,-3.68e-4 0.01584,0.0012 0.0248,0.007 0.01964,0.01301 0.0074,0.04518 0.0074,0.04518 l -1.126871,3.011906 -0.338135,-0.267045 1.405581,-2.783782 c 0,0 0.01105,-0.01191 0.02726,-0.01326 z m 0.758409,0.649995 c 0.0074,-3.68e-4 0.01584,0.0012 0.0248,0.007 0.01964,0.01313 0.0074,0.0453 0.0074,0.0453 l -1.052467,2.977896 -0.39228,-0.294057 1.385322,-2.72276 c 0,0 0.01093,-0.01203 0.02726,-0.01338 z m 0.866702,0.433412 c 0.0074,-4.91e-4 0.01584,0.0012 0.0248,0.007 0.01964,0.01301 0.0074,0.04518 0.0074,0.04518 l -1.042276,3.015344 -0.45674,-0.256978 1.43959,-2.797286 c 0,0 0.01093,-0.01191 0.02726,-0.01326 z m 1.053694,0.163297 c 0.0062,2.45e-4 0.01301,0.0024 0.02014,0.0072 0.01964,0.01301 0.0074,0.0453 0.0074,0.0453 l -1.213062,3.261885 -0.411066,-0.195465 1.564703,-3.105464 c 0,0 0.01326,-0.01436 0.03192,-0.01351 z m 0.932265,0.316771 c 0.0062,2.46e-4 0.01326,0.0024 0.02038,0.0072 0.01964,0.01301 0.0074,0.04518 0.0074,0.04518 l -1.199556,3.315908 -0.490628,-0.188098 1.630759,-3.166731 c 0,0 0.01301,-0.01436 0.03168,-0.01351 z m 0.949209,0.2765 c 0.0074,-3.69e-4 0.01572,0.0012 0.02456,0.007 0.01976,0.01313 0.0075,0.0453 0.0075,0.0453 L 30.822538,25.709156 30.34554,25.5574 31.961073,22.347082 c 0,0 0.0113,-0.01203 0.02751,-0.01338 z m 0.975115,0.297986 c 0.0074,-3.68e-4 0.0156,0.0012 0.02456,0.007 0.01964,0.01301 0.0074,0.04518 0.0074,0.04518 l -1.187893,3.279197 -0.483752,-0.134813 1.612219,-3.183306 c 0,0 0.0113,-0.01191 0.02751,-0.01326 z m 1.002128,0.12192 c 0.0074,-4.91e-4 0.01559,0.0012 0.02456,0.007 0.01964,0.01301 0.0074,0.04518 0.0074,0.04518 l -1.167634,3.350287 -0.595358,-0.117869 1.703566,-3.271339 c 0,0 0.01118,-0.01191 0.02751,-0.01326 z m 1.002126,0.189572 c 0.0074,-4.91e-4 0.01559,0.0012 0.02443,0.007 0.01977,0.01301 0.0075,0.0453 0.0075,0.0453 l -1.208274,3.296019 -0.507326,-0.07048 1.656174,-3.264587 c 0,0 0.0113,-0.01191 0.0275,-0.01326 z m 0.910657,0.367233 c 0.0074,-3.68e-4 0.01584,0.0014 0.0248,0.0071 0.01964,0.01301 0.0074,0.04518 0.0074,0.04518 l -1.106613,3.106692 -0.514201,-0.07072 1.561388,-3.074891 c 0,0 0.01105,-0.01191 0.02726,-0.01339 z m 0.974992,0.325121 c 0.0074,-4.91e-4 0.01584,0.0012 0.0248,0.0069 0.01976,0.01313 0.0074,0.0453 0.0074,0.0453 l -1.0893,3.042969 -0.488049,-0.139846 1.517802,-2.942044 c 0,0 0.01105,-0.01203 0.02725,-0.01326 z m 0.759638,0.572276 c 0.0074,-3.69e-4 0.01572,0.0012 0.02456,0.007 0.01964,0.01313 0.0076,0.0453 0.0076,0.0453 l -1.045959,2.781449 -0.371899,-0.188958 1.358187,-2.631412 c 0,0 0.0113,-0.01203 0.02751,-0.01338 z m 0.757181,0.836005 c 0.0074,-3.68e-4 0.01584,0.0012 0.02468,0.007 0.01977,0.01314 0.0075,0.0453 0.0075,0.0453 l -0.850004,2.482849 -0.395104,-0.264713 1.185559,-2.257057 c 0,0 0.01105,-0.01203 0.02738,-0.01338 z m -10.698276,0.26987 c 0.01952,0.01093 0.03978,0.0221 0.05918,0.03315 1.437135,0.731029 3.021851,1.173895 4.605831,1.473354 1.638984,0.335312 3.510145,0.27515 4.813818,1.483055 0.840181,0.727838 0.455145,2.2077 -0.507693,2.646515 -1.644878,0.874559 -3.576446,0.727346 -5.38057,0.75976 -0.854791,-0.0841 -1.73819,-0.120325 -2.554183,-0.401122 -1.277645,-0.599164 -2.493285,-1.682816 -2.806005,-3.108778 -0.08717,-1.214905 0.844355,-2.219242 1.769622,-2.885935 z m -0.856388,0.188098 c 0,0 -0.780755,0.721699 -1.036013,1.178193 -0.239666,0.428624 -0.385774,1.011827 -0.433289,1.408282 -0.0625,0.522182 0.187729,1.051853 0.433289,1.516819 0.286198,0.541581 1.175,1.413193 1.175,1.413193 0,0 -1.138781,-0.66878 -1.499998,-1.196609 -0.341818,-0.499468 -0.553859,-0.740362 -0.541704,-1.733403 0.0066,-0.536792 0.222108,-1.085371 0.541704,-1.516696 0.492714,-0.664606 1.361011,-1.069779 1.361011,-1.069779 z m 12.20466,0.62544 c 0.0074,-3.69e-4 0.01584,0.0012 0.0248,0.007 0.01964,0.01313 0.0074,0.0453 0.0074,0.0453 l -0.788368,2.30089 -0.311123,-0.517517 1.040065,-1.822294 c 0,0 0.01093,-0.01203 0.02726,-0.01338 z m 0.509043,1.147866 c 0.0062,3.69e-4 0.01301,0.0021 0.02014,0.007 0.01964,0.01313 0.0074,0.04556 0.0074,0.04556 l -1.059219,2.72718 -0.01314,-0.767863 1.012932,-1.998238 c 0,0 0.01326,-0.01449 0.03192,-0.01363 z"
       fill="#c9a94c"
       id="path7"
       style="stroke-width:1.2278" />
    <path
       d="m 15.312028,15.359348 c -0.864614,-0.0062 -1.729596,0.102522 -2.564374,0.330278 -1.716827,0.500203 -3.526107,1.20017 -4.6629232,2.652161 -0.8006456,1.131292 -1.1473752,2.684576 -0.6573619,4.012069 0.4594413,1.285379 1.5476366,1.999465 2.6893641,2.639024 0,0 -0.5220589,0.08472 -1.0891778,0.376811 -2.0157951,1.038347 -2.291202,3.624207 -0.9396321,4.988534 1.3190211,1.331545 2.9167519,1.665873 4.5363369,1.981417 2.204385,0.429483 4.544441,0.426045 6.734706,-0.181346 1.448431,-0.510517 2.979983,-1.271013 3.690509,-2.715761 1.048169,-1.865268 0.366006,-4.269537 -1.090037,-5.713303 -0.528689,-0.476385 -1.109314,-0.865227 -1.72444,-1.188997 0.850004,-0.187484 1.645738,-0.749078 2.010762,-1.551443 0.580256,-1.168493 0.14623,-2.602804 -0.832814,-3.408606 -1.685273,-1.440328 -3.891377,-2.205245 -6.100918,-2.220838 z m -0.03045,0.887206 c 0.548579,0.0016 1.096422,0.05304 1.6326,0.153843 1.323932,0.303879 2.651302,1.017474 3.395101,2.185108 0.524269,1.071129 0.340222,2.829456 -0.344765,3.42997 -0.131006,0.114922 -0.216092,0.19878 -0.266309,0.261275 -1.562865,-0.710157 -3.307808,-1.058974 -4.981786,-1.367764 -1.255421,-0.286322 -2.637428,-0.492715 -3.645817,-1.35647 -0.861421,-0.784929 -0.226773,-2.167059 0.691863,-2.589544 1.101334,-0.482401 2.312185,-0.719979 3.519109,-0.716418 z m 5.28959,1.549724 c 0,0 1.262174,0.817466 1.191698,2.0584 -0.08263,1.457148 -1.191698,1.949984 -1.191698,1.949984 0,0 0.580747,-0.871489 0.582343,-1.895839 0.0021,-1.330931 -0.582343,-2.112545 -0.582343,-2.112545 z m -11.50506,1.053571 c 0.00982,-8.91e-4 0.021364,0.0024 0.033887,0.01375 0.018049,0.01645 6.139e-4,0.05918 6.139e-4,0.05918 L 8.0865722,21.696617 V 20.61321 l 0.9522784,-1.750959 c 0,0 0.010927,-0.0113 0.027257,-0.0124 z m 0.7321347,0.775476 c 0.00737,-4.91e-4 0.015593,0.0012 0.024556,0.0069 0.019645,0.01313 0.00737,0.0453 0.00737,0.0453 L 8.6355214,22.844856 8.3651607,22.422371 9.7707415,19.63859 c 0,0 0.011296,-0.01191 0.027503,-0.01326 z m 0.7210843,0.868297 c 0.0074,-3.68e-4 0.01584,0.0012 0.0248,0.007 0.01965,0.01313 0.0074,0.0453 0.0074,0.0453 L 9.4246263,23.557796 9.0864914,23.29075 10.492072,20.506969 c 0,0 0.01105,-0.01203 0.02726,-0.01339 z m 0.75841,0.650118 c 0.0074,-4.91e-4 0.01584,0.0012 0.0248,0.0069 0.01965,0.01313 0.0074,0.0453 0.0074,0.0453 l -1.052499,2.978 L 9.8651576,23.87976 11.25048,21.157 c 0,0 0.01105,-0.01191 0.02726,-0.01326 z m 0.866701,0.433289 c 0.0074,-3.68e-4 0.01584,0.0012 0.02468,0.007 0.01977,0.01313 0.0075,0.0453 0.0075,0.0453 l -1.042398,3.015221 -0.456618,-0.256855 1.439591,-2.797287 c 0,0 0.01105,-0.01203 0.02726,-0.01338 z m 1.053694,0.16342 c 0.0062,2.45e-4 0.01301,0.0024 0.02014,0.0071 0.01964,0.01313 0.0074,0.0453 0.0074,0.0453 l -1.213066,3.262005 -0.411066,-0.195588 1.564703,-3.105342 c 0,0 0.01326,-0.01436 0.03192,-0.01351 z m 0.932388,0.316648 c 0.0062,3.69e-4 0.01314,0.0024 0.02026,0.0072 0.01964,0.01313 0.0074,0.0453 0.0074,0.0453 l -1.199556,3.315907 -0.490628,-0.188098 1.630759,-3.16673 c 0,0 0.01301,-0.01449 0.0318,-0.01363 z m 0.949209,0.276623 c 0.0074,-3.69e-4 0.01559,0.0012 0.02443,0.007 0.01977,0.01314 0.0075,0.0453 0.0075,0.0453 l -1.198083,3.32303 -0.476876,-0.151633 1.615534,-3.210318 c 0,0 0.01117,-0.01203 0.02751,-0.01338 z m 0.974993,0.297863 c 0.0074,-3.68e-4 0.01559,0.0012 0.02456,0.007 0.01964,0.01313 0.0074,0.0453 0.0074,0.0453 l -1.187892,3.279074 -0.483752,-0.134812 1.61222,-3.183183 c 0,0 0.01129,-0.01203 0.02751,-0.01338 z m 1.002127,0.121921 c 0.0074,-3.69e-4 0.0156,0.0012 0.02456,0.007 0.01964,0.01313 0.0074,0.0453 0.0074,0.0453 l -1.167634,3.350164 -0.595359,-0.117869 1.703567,-3.271217 c 0,0 0.0113,-0.01203 0.02751,-0.01338 z m 1.002127,0.189571 c 0.0074,-3.69e-4 0.01559,0.0012 0.02456,0.007 0.01964,0.01313 0.0074,0.0453 0.0074,0.0453 l -1.208273,3.296019 -0.507326,-0.07048 1.656174,-3.264464 c 0,0 0.0113,-0.01203 0.02751,-0.01338 z m 0.910656,0.367357 c 0.0074,-3.69e-4 0.01584,0.0012 0.0248,0.007 0.01964,0.01313 0.0074,0.0453 0.0074,0.0453 l -1.106612,3.106692 -0.5142,-0.07072 1.561388,-3.074892 c 0,0 0.01105,-0.01203 0.02726,-0.01338 z m 0.974993,0.324997 c 0.0074,-3.68e-4 0.01584,0.0012 0.0248,0.007 0.01964,0.01313 0.0074,0.0453 0.0074,0.0453 l -1.089177,3.042969 -0.488049,-0.139969 1.517801,-2.941922 c 0,0 0.01105,-0.01203 0.02726,-0.01338 z m 0.759637,0.572398 c 0.0074,-3.68e-4 0.01572,0.0012 0.02456,0.007 0.01976,0.01313 0.0076,0.0453 0.0076,0.0453 l -1.045837,2.781448 -0.372022,-0.188958 1.358188,-2.631412 c 0,0 0.0113,-0.01203 0.0275,-0.01338 z m 0.757181,0.836007 c 0.0074,-3.69e-4 0.01584,0.0012 0.02468,0.007 0.01976,0.01314 0.0075,0.0453 0.0075,0.0453 l -0.850003,2.482849 -0.395105,-0.264713 1.185683,-2.257057 c 0,0 0.01092,-0.01203 0.02726,-0.01338 z M 10.763167,25.31358 c 0.01952,0.01105 0.03978,0.02223 0.05918,0.03327 1.437135,0.73103 3.02185,1.173773 4.60583,1.473355 1.638985,0.335188 3.510145,0.275027 4.813819,1.483055 0.840181,0.727837 0.455145,2.207699 -0.507693,2.646391 -1.644878,0.874681 -3.576446,0.727346 -5.380569,0.759882 -0.854793,-0.0841 -1.738192,-0.120444 -2.554185,-0.401242 C 10.521906,30.709129 9.3062649,29.625599 8.9935453,28.199515 8.9063718,26.98461 9.8379005,25.980273 10.763167,25.31358 Z m -0.8563872,0.188098 c 0,0 -0.7807553,0.721822 -1.0360141,1.178194 -0.2396657,0.428745 -0.3857734,1.011826 -0.4332891,1.408404 -0.062495,0.522059 0.18773,1.05173 0.4332891,1.516696 0.2861992,0.541704 1.1750003,1.413316 1.1750003,1.413316 0,0 -1.1387803,-0.66878 -1.4999979,-1.19661 -0.3418183,-0.49959 -0.5537359,-0.740361 -0.5415806,-1.733402 0.00651,-0.536792 0.2219854,-1.085494 0.5415806,-1.516696 0.4927145,-0.664729 1.3610117,-1.069902 1.3610117,-1.069902 z m 12.2046582,0.625563 c 0.0074,-4.92e-4 0.01584,0.0012 0.0248,0.007 0.01964,0.01301 0.0074,0.0453 0.0074,0.0453 l -0.788368,2.300767 -0.311124,-0.517516 1.040066,-1.822295 c 0,0 0.01092,-0.01191 0.02726,-0.01326 z m 0.509045,1.147866 c 0.0062,2.46e-4 0.01301,0.0021 0.02014,0.007 0.01977,0.01301 0.0074,0.04543 0.0074,0.04543 l -1.05922,2.727302 -0.01313,-0.767862 1.012932,-1.998361 c 0,0 0.01338,-0.01437 0.03192,-0.01351 z"
       fill="#c9a94c"
       id="path8"
       style="stroke-width:1.2278" />
  </g>
  <defs
     id="defs8">
    <clipPath
       id="clip0_80_264">
      <rect
         width="48"
         height="48"
         fill="#ffffff"
         id="rect8"
         x="0"
         y="0" />
    </clipPath>
  </defs>
</svg>
