<?xml version="1.0" encoding="UTF-8" standalone="no"?>
<!-- Created with Inkscape (http://www.inkscape.org/) -->

<svg
   width="368.168mm"
   height="46.866234mm"
   viewBox="0 0 429.05012 47.195514"
   preserveAspectRatio="xMidYMid meet"
   style="overflow:visible"
   version="1.1"
   id="svg1"
   xmlns="http://www.w3.org/2000/svg"
   xmlns:svg="http://www.w3.org/2000/svg">
  <defs
     id="defs1" />
  <g
     id="layer1"
     transform="translate(-0.74748402,-23.174735)">
    <g
       id="g1"
       transform="matrix(1.4431399,0,0,1.4431399,-0.33124,-20.731418)">
      <path
         d="m 18.471175,27.853659 c -1.889393,-0.01318 -3.779603,0.224006 -5.603789,0.721706 -3.7517107,1.093074 -7.7054287,2.62267 -10.1896717,5.795618 -1.749554,2.472143 -2.5072517,5.86644 -1.436511,8.767338 1.00392,2.808861 3.381984,4.369314 5.876974,5.766899 -5.8123697,1.019985 -8.2532305,7.868796 -4.433463,11.724566 2.882357,2.90975 6.2567594,3.776837 9.7960287,4.466386 4.817082,0.938502 10.04768,0.7945 14.833934,-0.532801 3.165183,-1.115607 6.511979,-2.777477 8.064607,-5.934596 2.290551,-4.076059 0.800093,-9.329968 -2.381928,-12.484946 -1.155316,-1.041013 -2.4241,-1.890733 -3.768341,-2.598242 1.857453,-0.40968 3.59636,-1.636924 4.394021,-3.390282 1.267973,-2.55344 0.319429,-5.687753 -1.819933,-7.448626 -3.682757,-3.147464 -8.503594,-4.818989 -13.331928,-4.85306 z m -0.07099,1.938748 c 1.19882,0.0035 2.396019,0.115908 3.567659,0.33616 2.893106,0.664006 5.793723,2.223426 7.419154,4.77499 1.145585,2.34067 0.743308,6.183039 -0.753446,7.495312 -0.285962,0.251182 -0.472546,0.434423 -0.582067,0.570915 -3.415146,-1.551865 -7.228308,-2.314111 -10.886326,-2.988897 -2.74343,-0.625675 -5.763399,-1.076697 -7.9670487,-2.964205 -1.8824,-1.71527 -0.49588,-4.735552 1.5119607,-5.658781 2.406667,-1.054166 5.052648,-1.573333 7.690007,-1.565555 z M 8.5263943,49.606006 c 0.04055,0.02434 0.09127,0.04867 0.128784,0.07301 3.1405427,1.597478 6.6035527,2.564971 10.0649427,3.219636 3.58155,0.732455 7.670439,0.601032 10.519336,3.24083 1.835951,1.5905 0.994786,4.824354 -1.109486,5.783004 -3.594433,1.911389 -7.815348,1.589425 -11.757805,1.660521 -1.867897,-0.183748 -3.667536,-0.165691 -5.581482,-0.876856 -2.8906687,-1.074086 -6.2280586,-3.23195 -6.2696957,-6.793433 -0.032774,-2.803364 1.98297,-4.849582 4.004901,-6.306471 z"
         fill="#c9a94c"
         id="path8"
         style="fill:#000000;fill-opacity:1;stroke-width:2.68303" />
      <path
         d="m 55.421691,27.85352 c -1.889393,-0.01318 -3.779603,0.224006 -5.603789,0.721706 -3.751711,1.093074 -7.705429,2.62267 -10.189672,5.795618 -1.749554,2.472143 -2.507251,5.86644 -1.436511,8.767338 1.00392,2.808861 3.381984,4.369314 5.876974,5.766899 -5.812369,1.019985 -8.253231,7.868796 -4.433463,11.724566 2.882357,2.90975 6.25676,3.776837 9.796029,4.466386 4.817082,0.938502 10.04768,0.7945 14.833934,-0.532801 3.165183,-1.115607 6.511979,-2.777477 8.064607,-5.934596 2.290551,-4.076059 0.800093,-9.329968 -2.381928,-12.484946 -1.155316,-1.041013 -2.4241,-1.890733 -3.768341,-2.598242 1.857453,-0.40968 3.59636,-1.636924 4.394021,-3.390282 1.267973,-2.55344 0.319429,-5.687753 -1.819933,-7.448626 -3.682757,-3.147464 -8.503594,-4.818989 -13.331928,-4.85306 z m -0.07099,1.938748 c 1.19882,0.0035 2.396019,0.115908 3.567659,0.33616 2.893106,0.664006 5.793723,2.223426 7.419154,4.77499 1.145585,2.34067 0.743308,6.183039 -0.753446,7.495312 -0.285962,0.251182 -0.472546,0.434423 -0.582067,0.570915 -3.415146,-1.551865 -7.228308,-2.314111 -10.886326,-2.988897 -2.74343,-0.625675 -5.763399,-1.076697 -7.967049,-2.964205 -1.8824,-1.71527 -0.49588,-4.735552 1.511961,-5.658781 2.406667,-1.054166 5.052648,-1.573333 7.690007,-1.565555 z M 45.47691,49.605867 c 0.04055,0.02434 0.09127,0.04867 0.128784,0.07301 3.140543,1.597478 6.603553,2.564971 10.064943,3.219636 3.58155,0.732455 7.670439,0.601032 10.519336,3.24083 1.835951,1.5905 0.994786,4.824354 -1.109486,5.783004 -3.594433,1.911389 -7.815348,1.589425 -11.757805,1.660521 -1.867897,-0.183748 -3.667536,-0.165691 -5.581482,-0.876856 -2.890669,-1.074086 -6.228059,-3.23195 -6.269696,-6.793433 -0.03277,-2.803364 1.98297,-4.849582 4.004901,-6.306471 z"
         fill="#c9a94c"
         id="path8-8"
         style="fill:#000000;fill-opacity:1;stroke-width:2.68303" />
    </g>
    <text
       xml:space="preserve"
       style="font-size:50.8px;font-family:Westner;-inkscape-font-specification:Westner;text-align:start;writing-mode:lr-tb;direction:ltr;text-anchor:start;fill:#000000;stroke-width:1.89"
       x="115.54877"
       y="65.643776"
       id="text1"><tspan
         id="tspan1"
         style="stroke-width:1.89"
         x="115.54877"
         y="65.643776">BARBER SHOP</tspan></text>
  </g>
</svg>
